<svg width="39" height="40" viewBox="0 0 39 40" fill="none" xmlns="http://www.w3.org/2000/svg">
<path d="M0 13.6364C0 10.9091 1.99535 8.72727 4.53488 8.27273V8.18182C4.53488 3.63636 8.16279 0 12.6977 0C15.4186 0 17.8674 1.36364 19.4093 3.54545C20.407 3 21.4953 2.72727 22.6744 2.72727C26.0302 2.72727 28.9326 5.09091 29.7488 8.18182C32.4698 8.54545 34.4651 10.8182 34.4651 13.6364C34.4651 16 32.9233 18 30.8372 18.7273V20H33.5581C36.5512 20 39 22.4545 39 25.4545V29.0909C39 32.0909 36.5512 34.5455 33.5581 34.5455H30.8372C30.8372 37.5455 28.3884 40 25.3953 40H9.06977C6.07674 40 3.62791 37.5455 3.62791 34.5455V18.7273C1.54186 18 0 16 0 13.6364ZM5.44186 11.8182C4.44419 11.8182 3.62791 12.6364 3.62791 13.6364C3.62791 14.6364 4.44419 15.4545 5.44186 15.4545H29.0233C30.0209 15.4545 30.8372 14.6364 30.8372 13.6364C30.8372 12.6364 30.0209 11.8182 29.0233 11.8182C28.9326 11.8182 28.7512 11.8182 28.5698 11.9091C28.0256 12.0909 27.3907 11.9091 27.0279 11.5455C26.5744 11.1818 26.3023 10.6364 26.3023 10.0909V9.90909C26.3023 8 24.6698 6.36364 22.6744 6.36364C21.6767 6.36364 20.7698 6.72727 20.0442 7.45455C19.5907 7.90909 18.9558 8.09091 18.3209 8C17.686 7.81818 17.2326 7.36364 16.9605 6.81818C16.4163 4.90909 14.693 3.63636 12.6977 3.63636C10.1581 3.63636 8.16279 5.63636 8.16279 8.18182C8.16279 8.63636 8.25349 9.18182 8.43488 9.63636C8.61628 10.2727 8.52558 11 7.9814 11.5455C7.43721 12 6.71163 12.1818 6.07674 11.9091C5.80465 11.8182 5.62326 11.8182 5.44186 11.8182ZM33.5581 23.6364H30.8372V30.9091H33.5581C34.5558 30.9091 35.3721 30.0909 35.3721 29.0909V25.4545C35.3721 24.4545 34.5558 23.6364 33.5581 23.6364ZM27.2093 34.5455V19.0909H7.25581V34.5455C7.25581 35.5455 8.07209 36.3636 9.06977 36.3636H25.3953C26.393 36.3636 27.2093 35.5455 27.2093 34.5455Z" fill="url(#paint0_linear_19_1630)"/>
<defs>
<linearGradient id="paint0_linear_19_1630" x1="19.5" y1="0" x2="19.5" y2="40" gradientUnits="userSpaceOnUse">
<stop stop-color="#E37A27"/>
<stop offset="1" stop-color="#FECF76"/>
</linearGradient>
</defs>
</svg>
