<svg width="43" height="35" viewBox="0 0 43 35" fill="none" xmlns="http://www.w3.org/2000/svg">
<path d="M37.5248 34.2225H5.26117C2.36019 34.2225 0 31.8623 0 28.9613V5.419C0 2.51803 2.36019 0.157837 5.26117 0.157837H37.5248C40.4257 0.157837 42.7859 2.51803 42.7859 5.419C42.7859 8.01292 41.2232 10.3365 38.8996 11.2026C36.4111 12.1284 34.7384 14.5344 34.7384 17.1925C34.7384 19.8505 36.4111 22.2566 38.8996 23.1823C41.2277 24.0485 42.7905 26.372 42.7905 28.9659C42.7859 31.8623 40.4257 34.2225 37.5248 34.2225ZM5.26117 3.48502C4.19335 3.48502 3.3226 4.35577 3.3226 5.42359V28.9659C3.3226 30.0337 4.19335 30.9045 5.26117 30.9045H37.5248C38.5926 30.9045 39.4633 30.0337 39.4633 28.9659C39.4633 27.756 38.7713 26.6791 37.7402 26.2987C33.9593 24.8917 31.4158 21.2346 31.4158 17.1971C31.4158 13.1595 33.9593 9.49778 37.7402 8.09542C38.7713 7.71045 39.4633 6.63805 39.4633 5.42817C39.4633 4.36035 38.5926 3.4896 37.5248 3.4896H5.26117V3.48502Z" fill="url(#paint0_linear_19_1552)"/>
<path d="M13.5562 10.1852H7.75881C6.84681 10.1852 6.09521 9.4382 6.09521 8.52162C6.09521 7.60963 6.84223 6.85803 7.75881 6.85803H13.5562C14.4682 6.85803 15.2198 7.60504 15.2198 8.52162C15.2198 9.4382 14.4728 10.1852 13.5562 10.1852Z" fill="url(#paint1_linear_19_1552)"/>
<path d="M37.7998 17.1925C37.7998 17.5199 37.8643 17.8441 37.9896 18.1466C38.1149 18.449 38.2985 18.7239 38.53 18.9554C38.7615 19.1869 39.0364 19.3705 39.3388 19.4958C39.6413 19.6211 39.9655 19.6856 40.2929 19.6856C40.6203 19.6856 40.9445 19.6211 41.247 19.4958C41.5494 19.3705 41.8243 19.1869 42.0558 18.9554C42.2873 18.7239 42.4709 18.449 42.5962 18.1466C42.7215 17.8441 42.786 17.5199 42.786 17.1925C42.786 16.8651 42.7215 16.5409 42.5962 16.2384C42.4709 15.936 42.2873 15.6611 42.0558 15.4296C41.8243 15.1981 41.5494 15.0145 41.247 14.8892C40.9445 14.7639 40.6203 14.6994 40.2929 14.6994C39.9655 14.6994 39.6413 14.7639 39.3388 14.8892C39.0364 15.0145 38.7615 15.1981 38.53 15.4296C38.2985 15.6611 38.1149 15.936 37.9896 16.2384C37.8643 16.5409 37.7998 16.8651 37.7998 17.1925Z" fill="url(#paint2_linear_19_1552)"/>
<defs>
<linearGradient id="paint0_linear_19_1552" x1="21.3953" y1="0.157837" x2="21.3953" y2="34.2225" gradientUnits="userSpaceOnUse">
<stop stop-color="#E37A27"/>
<stop offset="1" stop-color="#FECF76"/>
</linearGradient>
<linearGradient id="paint1_linear_19_1552" x1="10.6575" y1="6.85803" x2="10.6575" y2="10.1852" gradientUnits="userSpaceOnUse">
<stop stop-color="#E37A27"/>
<stop offset="1" stop-color="#FECF76"/>
</linearGradient>
<linearGradient id="paint2_linear_19_1552" x1="40.2929" y1="14.6994" x2="40.2929" y2="19.6856" gradientUnits="userSpaceOnUse">
<stop stop-color="#E37A27"/>
<stop offset="1" stop-color="#FECF76"/>
</linearGradient>
</defs>
</svg>
