<svg width="70" height="61" viewBox="0 0 70 61" fill="none" xmlns="http://www.w3.org/2000/svg">
<path d="M70 0V61H0V0H70ZM64.3243 5.71875H5.67567V55.2812H64.3243V5.71875ZM17.0127 16.7921L26.5876 26.4377L17.0146 36.0833L13 32.0421L18.5603 26.4377L13 20.8333L17.0127 16.7921ZM26.5876 41.7812V47.5H12.2542V41.7812H26.5876Z" fill="#D68B63"/>
<path d="M54.3333 28.8333H43.6667C42.8667 28.8333 42.3333 28.3 42.3333 27.5C42.3333 26.7 42.8667 26.1667 43.6667 26.1667H58.3333V20.8333H51.6667V15.5H46.3333V20.8333H43.6667C39.9333 20.8333 37 23.7667 37 27.5C37 31.2333 39.9333 34.1667 43.6667 34.1667H54.3333C55.1333 34.1667 55.6667 34.7 55.6667 35.5C55.6667 36.3 55.1333 36.8333 54.3333 36.8333H39.6667V42.1667H46.3333V47.5H51.6667V42.1667H54.3333C58.0667 42.1667 61 39.2333 61 35.5C61 31.7667 58.0667 28.8333 54.3333 28.8333Z" fill="#D68B63"/>
</svg>
