<svg width="45" height="46" viewBox="0 0 45 46" fill="none" xmlns="http://www.w3.org/2000/svg">
<path d="M44.1765 15.7278L30.1144 1.66477C29.7716 1.32248 29.3462 1.07446 28.8794 0.944705C28.4127 0.814951 27.9203 0.807851 27.45 0.924092C26.9797 1.04033 26.5474 1.27598 26.1948 1.60824C25.8422 1.94051 25.5813 2.35814 25.4374 2.82075C24.8004 4.8866 23.6993 6.68245 22.0695 8.31094C19.8927 10.4865 17.0578 12.1347 14.0583 13.8771C10.8747 15.7222 7.58557 17.6347 4.88987 20.3292C2.59916 22.6229 1.03967 25.1739 0.125638 28.1356C-0.0256148 28.6248 -0.0405976 29.146 0.0823018 29.643C0.205201 30.1401 0.461329 30.5943 0.823117 30.9566L14.8852 45.0196C15.2282 45.3619 15.6538 45.6098 16.1208 45.7394C16.5877 45.8689 17.0801 45.8758 17.5505 45.7592C18.0208 45.6427 18.4531 45.4067 18.8056 45.0742C19.158 44.7416 19.4186 44.3237 19.5622 43.8608C20.2007 41.795 21.3017 39.9991 22.9329 38.3706C25.1083 36.1951 27.9418 34.5497 30.9441 32.8087C34.1249 30.9608 37.4155 29.0483 40.1098 26.3538C42.4005 24.0629 43.96 21.5091 44.8754 18.5474C45.0259 18.0583 45.0403 17.5373 44.9172 17.0406C44.7941 16.5438 44.538 16.09 44.1765 15.7278ZM16.875 43.0297L2.8129 28.9667C6.80935 16.0273 24.131 16.5927 28.1247 3.65328L42.1895 17.7163C38.1917 30.6528 20.87 30.0903 16.875 43.0297Z" fill="url(#paint0_linear_19_1410)"/>
<path d="M27.6482 21.7363C27.1747 21.3555 26.6983 21.0961 26.2191 20.9678C25.7533 20.8391 25.2677 20.7895 24.7842 20.8213C24.2865 20.8595 23.7972 20.9671 23.3318 21.1407C22.8326 21.3253 22.3413 21.5291 21.8591 21.7517C21.0977 20.9022 20.3176 20.0684 19.5194 19.2508C19.8709 18.9453 20.2122 18.7905 20.5404 18.7793C20.8701 18.7654 21.1867 18.7989 21.4873 18.8714C21.7938 18.9453 22.0741 19.0081 22.3326 19.0569C22.4526 19.0832 22.5774 19.0818 22.6968 19.053C22.8162 19.0241 22.9268 18.9686 23.0196 18.8909C23.1223 18.8079 23.2058 18.7053 23.2648 18.5895C23.3238 18.4737 23.357 18.3474 23.3623 18.2186C23.3768 17.9438 23.2694 17.676 23.0297 17.4152C22.7446 17.0888 22.3485 16.87 21.9114 16.7973C21.4636 16.7215 21.0046 16.7315 20.5607 16.8266C20.1018 16.927 19.6646 17.093 19.2507 17.3273C18.8368 17.5616 18.5042 17.8016 18.2573 18.0359L17.9741 17.7792C17.9215 17.7324 17.8598 17.696 17.7925 17.672C17.7252 17.6481 17.6537 17.6371 17.582 17.6398C17.5056 17.6401 17.4303 17.6569 17.3617 17.6891C17.2931 17.7212 17.2328 17.7677 17.1855 17.8253C17.1348 17.8784 17.0967 17.9415 17.0736 18.0101C17.0506 18.0786 17.0431 18.1512 17.0519 18.2228C17.0564 18.2903 17.0751 18.3562 17.1068 18.4166C17.1384 18.477 17.1825 18.5306 17.2363 18.5743C17.3307 18.651 17.4251 18.7263 17.5195 18.8058C17.1477 19.2368 16.8413 19.7125 16.6002 20.2146C16.3682 20.6834 16.2186 21.1858 16.1572 21.7015C16.1006 22.1896 16.1543 22.636 16.3097 23.0503C16.4651 23.4673 16.7527 23.8216 17.1724 24.1563C17.8565 24.7017 18.6611 24.9333 19.5949 24.8816C20.5259 24.8272 21.5295 24.5608 22.6085 24.0043C23.4654 24.9556 24.3252 25.8999 25.1835 26.7772C24.8205 27.0715 24.5024 27.2403 24.2221 27.2947C23.9728 27.3521 23.7123 27.3473 23.4654 27.2807C23.2417 27.2136 23.0293 27.1154 22.8351 26.9892C22.6527 26.8667 22.4609 26.7576 22.2614 26.6628C22.0741 26.5736 21.8809 26.5233 21.6834 26.5206C21.4859 26.5178 21.2753 26.6098 21.0429 26.8009C20.8047 27.0004 20.6856 27.2319 20.6856 27.4927C20.6856 27.7522 20.8105 28.0158 21.0545 28.2822C21.3014 28.5486 21.6224 28.7732 22.0102 28.9503C22.398 29.1275 22.8366 29.239 23.3187 29.2697C23.8387 29.2995 24.3593 29.2215 24.8452 29.041C25.384 28.8527 25.917 28.5124 26.4427 28.006C26.6954 28.2432 26.9511 28.4691 27.2052 28.6867C27.259 28.7322 27.322 28.7665 27.3902 28.7876C27.4584 28.8088 27.5304 28.8162 27.6017 28.8094C27.678 28.8059 27.7526 28.7865 27.8203 28.7525C27.888 28.7186 27.9472 28.6709 27.9938 28.6128C28.0446 28.5573 28.0828 28.4924 28.1063 28.4221C28.1298 28.3518 28.138 28.2776 28.1304 28.2041C28.1263 28.1384 28.108 28.0742 28.0768 28.0156C28.0455 27.9571 28.0019 27.9053 27.9488 27.8638C27.6881 27.6633 27.4328 27.4564 27.1834 27.2431C27.6177 26.7312 27.9662 26.1914 28.2248 25.6572C28.4833 25.1202 28.6358 24.6027 28.6866 24.1229C28.7415 23.6784 28.6821 23.2277 28.5138 22.8103C28.3511 22.41 28.0621 22.0669 27.6482 21.7363ZM19.5281 22.682C19.3279 22.6922 19.1276 22.6613 18.9408 22.5913C18.754 22.5213 18.5848 22.4139 18.4447 22.2761C18.3112 22.1526 18.2136 21.9978 18.1615 21.827C18.1 21.6387 18.0807 21.44 18.1048 21.244C18.1252 21.0347 18.1905 20.8158 18.3038 20.5954C18.4113 20.375 18.571 20.1546 18.7744 19.9412C19.5347 20.6763 20.2709 21.4341 20.9819 22.2134C20.4242 22.5077 19.9391 22.6653 19.5281 22.682ZM26.3788 25.4744C26.2481 25.706 26.0985 25.9124 25.9228 26.0923C25.0828 25.2673 24.2691 24.4179 23.4829 23.5454C23.6905 23.4561 23.9084 23.3627 24.1437 23.2678C24.379 23.173 24.6142 23.1102 24.8495 23.0712C25.0906 23.0363 25.3288 23.0461 25.567 23.1005C25.8022 23.1577 26.0259 23.2804 26.2336 23.4743C26.4384 23.6709 26.5676 23.8746 26.6199 24.095C26.6766 24.3181 26.6795 24.5441 26.6403 24.7756C26.594 25.0209 26.5057 25.257 26.3788 25.4744ZM20.6116 31.8906H20.6087C19.6884 32.5564 18.8151 33.28 17.9945 34.0567C17.225 34.7933 16.5157 35.5856 15.8726 36.4265L14.8792 37.7293L14.8821 37.7321C14.7919 37.8665 14.7522 38.0265 14.7696 38.1856C14.7871 38.3446 14.8606 38.4932 14.9779 38.6066C15.115 38.7373 15.3004 38.8106 15.4935 38.8106C15.6867 38.8106 15.872 38.7373 16.0091 38.6066C16.0512 38.5649 16.0873 38.518 16.1166 38.4671L17.0446 37.2467C17.6198 36.4921 18.2849 35.7487 19.0213 35.0429C19.799 34.3011 20.6309 33.6136 21.5106 32.9855L21.5077 32.9827C21.5338 32.9632 21.5585 32.9479 21.5817 32.9255C21.7123 32.7991 21.7876 32.6294 21.792 32.4513C21.7965 32.2732 21.7299 32.1003 21.6058 31.9679C21.4817 31.8355 21.3095 31.7538 21.1247 31.7394C20.9398 31.725 20.7562 31.7791 20.6116 31.8906ZM25.9286 11.7146C25.169 12.4441 24.3455 13.101 23.4916 13.7273C23.3914 13.7797 23.3053 13.8538 23.2401 13.9436C23.1749 14.0335 23.1323 14.1367 23.1158 14.2451C23.0994 14.3535 23.1094 14.4641 23.1451 14.5682C23.1808 14.6722 23.2413 14.7668 23.3216 14.8445C23.599 15.1137 24.0478 15.1193 24.3368 14.8641L24.3426 14.8669C25.2504 14.1974 26.1348 13.4888 26.9554 12.7007C27.7244 11.9647 28.4337 11.1734 29.0773 10.3337L30.0707 9.02538L30.0678 9.02259C30.1863 8.88414 30.2453 8.70745 30.2327 8.52862C30.2201 8.34979 30.1368 8.18234 30 8.0605C29.8631 7.93866 29.6829 7.87164 29.4963 7.87313C29.3097 7.87462 29.1307 7.94452 28.9959 8.06853C28.9453 8.11974 28.9022 8.17748 28.8681 8.24009L27.9038 9.50938C27.3055 10.2922 26.6452 11.0295 25.9286 11.7146Z" fill="url(#paint1_linear_19_1410)"/>
<defs>
<linearGradient id="paint0_linear_19_1410" x1="22.5" y1="0.841858" x2="22.5" y2="45.8419" gradientUnits="userSpaceOnUse">
<stop stop-color="#E37A27"/>
<stop offset="1" stop-color="#FECF76"/>
</linearGradient>
<linearGradient id="paint1_linear_19_1410" x1="22.5" y1="7.87311" x2="22.5" y2="38.8106" gradientUnits="userSpaceOnUse">
<stop stop-color="#E37A27"/>
<stop offset="1" stop-color="#FECF76"/>
</linearGradient>
</defs>
</svg>
