<svg width="48" height="48" viewBox="0 0 48 48" fill="none" xmlns="http://www.w3.org/2000/svg">
<rect width="48" height="48" rx="8" fill="#E37A27"/>
<path d="M30.7301 9.26316C29.5685 9.26145 28.4179 9.48889 27.3443 9.93247C26.2706 10.376 25.2949 11.027 24.473 11.8482C23.6511 12.6694 22.9992 13.6446 22.5544 14.7181C22.1097 15.7916 21.8809 16.9423 21.8812 18.1044C21.8832 19.1972 22.0851 20.2805 22.4769 21.3006L14.2996 29.4809C13.3018 29.4831 12.327 29.781 11.4984 30.3371C10.6699 30.8932 10.0246 31.6825 9.64428 32.6053C9.26393 33.528 9.16552 34.5429 9.36149 35.5216C9.55746 36.5003 10.039 37.3989 10.7453 38.1039C11.4516 38.809 12.3509 39.2888 13.3297 39.4827C14.3085 39.6767 15.3228 39.576 16.2444 39.1936C17.166 38.8111 17.9536 38.164 18.5078 37.3339C19.0619 36.5038 19.3576 35.5281 19.3576 34.5299L27.535 26.3497C28.5526 26.7503 29.6365 26.9561 30.7301 26.9564C33.0767 26.9555 35.3269 26.0226 36.9862 24.3627C38.6455 22.7029 39.5781 20.4518 39.579 18.1044C39.5777 17.014 39.3719 15.9335 38.9724 14.9189L34.5209 19.372H29.4629V14.323L33.9252 9.86991C32.9076 9.46926 31.8237 9.26344 30.7301 9.26316ZM14.2996 32.0054C14.7982 32.0076 15.2851 32.1574 15.6986 32.4361C16.1122 32.7148 16.434 33.1098 16.6233 33.5713C16.8127 34.0328 16.8611 34.5401 16.7625 35.029C16.6639 35.518 16.4227 35.9668 16.0694 36.3188C15.716 36.6708 15.2663 36.9102 14.7771 37.0067C14.2879 37.1032 13.781 37.0526 13.3205 36.8612C12.86 36.6698 12.4665 36.3463 12.1897 35.9313C11.9129 35.5164 11.7651 35.0288 11.7651 34.5299C11.7627 34.1968 11.8266 33.8665 11.9532 33.5584C12.0799 33.2503 12.2666 32.9705 12.5026 32.7355C12.7386 32.5004 13.0191 32.3148 13.3276 32.1894C13.6361 32.0641 13.9666 32.0015 14.2996 32.0054Z" fill="#491707"/>
</svg>
