<svg width="82" height="65" viewBox="0 0 82 65" fill="none" xmlns="http://www.w3.org/2000/svg">
<path d="M28.061 33.9128H5.40783C1.81822 33.9128 0.634801 32.0343 0.291436 31.227C-0.0519299 30.4196 -0.574752 28.277 1.96396 25.7994L9.27832 18.6608C10.3188 17.6441 12.0043 17.6441 13.0448 18.6608C14.0852 19.6762 14.0852 21.3213 13.0448 22.3367L6.5107 28.7138H28.061C29.5332 28.7138 30.7245 29.8764 30.7245 31.3133C30.7245 32.7501 29.5332 33.9128 28.061 33.9128Z" fill="#D68B63"/>
<path d="M43.6896 64.9997C43.0034 64.9997 42.3171 64.7458 41.7934 64.2381C40.7456 63.2226 40.7456 61.5775 41.7934 60.562L48.3756 54.1846H2.68216C1.19961 54.1846 0 53.0218 0 51.5849C0 50.148 1.19961 48.9852 2.68216 48.9852H49.4861C53.1006 48.9852 54.2925 50.864 54.6383 51.6713C54.984 52.4786 55.5105 54.6213 52.954 57.0991L45.5861 64.2381C45.0622 64.7458 44.3758 64.9997 43.6896 64.9997Z" fill="#D68B63"/>
<path d="M59.1197 45.2174C47.0562 45.2174 37.2427 35.0752 37.2427 22.6106C37.2427 10.1422 47.0562 0 59.1197 0C71.1858 0 81.0019 10.1422 81.0019 22.6106C81.0019 35.0752 71.1858 45.2174 59.1197 45.2174ZM59.1197 5.39229C49.9332 5.39229 42.4616 13.1148 42.4616 22.6106C42.4616 32.1 49.9332 39.8251 59.1197 39.8251C68.3088 39.8251 75.783 32.1 75.783 22.6106C75.783 13.1148 68.3088 5.39229 59.1197 5.39229Z" fill="#D68B63"/>
<path d="M70.8678 25.4348H58.5467C57.0631 25.4348 55.8623 24.2448 55.8623 22.7739V13.0232C55.8623 11.5525 57.0631 10.3623 58.5467 10.3623C60.0306 10.3623 61.2311 11.5525 61.2311 13.0232V20.113H70.8678C72.3515 20.113 73.5522 21.3032 73.5522 22.7739C73.5521 24.2448 72.3515 25.4348 70.8678 25.4348Z" fill="#D68B63"/>
</svg>
