<svg width="80" height="63" viewBox="0 0 80 63" fill="none" xmlns="http://www.w3.org/2000/svg">
<path d="M45.2872 50.867H32.2103C31.9487 46.944 28.3744 43.8927 24.1026 43.7183C19.4821 43.4568 15.2974 46.6824 14.9487 50.867C10.9385 50.867 6.92823 50.867 2.91797 50.867V36.4824H45.2V50.867H45.2872Z" fill="#E6B8A0" stroke="#0C0501" stroke-miterlimit="10"/>
<path d="M51.6493 38.2266H45.2852V54.6163H51.6493V38.2266Z" fill="#936857" stroke="#0C0703" stroke-miterlimit="10"/>
<path d="M49.6438 50.8679H51.0387V42.9346H49.6438C49.1207 42.9346 48.5977 43.3705 48.5977 43.9807V49.9089C48.5977 50.432 49.0335 50.8679 49.6438 50.8679Z" fill="#FCFCFC" stroke="#0C0703" stroke-miterlimit="10"/>
<path d="M51.448 57.1904L72.3711 57.1904L72.3711 35.6571L51.448 35.6571L51.448 57.1904Z" fill="#FFAC5C" stroke="#0C0501" stroke-miterlimit="10"/>
<path d="M57.2225 52.5223C57.9199 52.5223 58.5302 51.9121 58.5302 51.2146V41.3633C58.5302 40.6659 57.9199 40.0556 57.2225 40.0556C56.5251 40.0556 55.9148 40.6659 55.9148 41.3633V51.2146C55.8276 51.9121 56.4379 52.5223 57.2225 52.5223Z" fill="#FF853D"/>
<path d="M55.8281 42.9324V51.6504C55.8281 52.3478 56.4384 52.9581 57.1358 52.9581C57.8333 52.9581 58.4435 52.3478 58.4435 51.6504V42.9324" stroke="#070301" stroke-miterlimit="10"/>
<path d="M66.6397 52.784C67.3372 52.784 67.9474 52.1738 67.9474 51.4763V41.6251C67.9474 40.9276 67.3372 40.3174 66.6397 40.3174C65.9423 40.3174 65.332 40.9276 65.332 41.6251V51.4763C65.332 52.1738 65.9423 52.784 66.6397 52.784Z" fill="#FF853D" stroke="#070301" stroke-miterlimit="10"/>
<path d="M78.5889 57.3184H43.2812V62.2004H78.5889V57.3184Z" fill="#916153" stroke="#0C0502" stroke-miterlimit="10"/>
<path d="M45.2872 7.97436H1V7.45128C1 3.87692 3.87692 1 7.45128 1H38.8359C42.4102 1 45.2872 3.87692 45.2872 7.45128V7.97436Z" fill="#DEAF90" stroke="#110601" stroke-miterlimit="10"/>
<path d="M45.2872 22.3594H1V22.8825C1 26.4568 3.87692 29.3337 7.45128 29.3337H38.8359C42.4102 29.3337 45.2872 26.4568 45.2872 22.8825V22.3594Z" fill="#DEAF90" stroke="#110601" stroke-miterlimit="10"/>
<path d="M45.377 15.3848H1.08984V22.3591H45.377V15.3848Z" fill="#DEAF90" stroke="#110601" stroke-miterlimit="10"/>
<path d="M45.377 8.14844H1.08984V15.1228H45.377V8.14844Z" fill="#DEAF90" stroke="#110601" stroke-miterlimit="10"/>
<path d="M12.5994 1.17383H9.46094V30.8149H12.5994V1.17383Z" fill="#ABABA9" stroke="#0C0501" stroke-miterlimit="10"/>
<path d="M6.75781 36.4819C6.75781 32.8203 8.67576 29.8562 11.0296 29.8562C13.3834 29.8562 15.3014 32.8203 15.3014 36.4819" fill="#ABABA9"/>
<path d="M6.75781 36.4819C6.75781 32.8203 8.67576 29.8562 11.0296 29.8562C13.3834 29.8562 15.3014 32.8203 15.3014 36.4819" stroke="#0C0501" stroke-miterlimit="10"/>
<path d="M38.6619 1.17383H35.5234V30.8149H38.6619V1.17383Z" fill="#ABABA9" stroke="#0C0501" stroke-miterlimit="10"/>
<path d="M32.8203 36.4819C32.8203 32.8203 34.7383 29.8562 37.0921 29.8562C39.4459 29.8562 41.3639 32.8203 41.3639 36.4819" fill="#ABABA9"/>
<path d="M32.8203 36.4819C32.8203 32.8203 34.7383 29.8562 37.0921 29.8562C39.4459 29.8562 41.3639 32.8203 41.3639 36.4819" stroke="#0C0501" stroke-miterlimit="10"/>
<path d="M55.6613 22.1846H59.1485C59.41 22.1846 59.5844 22.4461 59.4972 22.7077C58.9741 23.5794 58.2767 25.1487 58.8869 26.282C58.8869 26.282 64.9023 24.0153 69.9587 29.1589C69.9587 29.1589 79.0254 26.8051 77.369 33.8666C77.369 33.8666 74.6664 38.6615 69.7844 35.0872C69.7844 35.0872 65.3382 40.841 60.6305 37.9641L59.8459 41.4512C59.8459 41.4512 57.5792 44.0666 55.9228 41.4512L55.5741 36.5692C55.5741 36.5692 49.2972 35.6974 49.5587 32.123C49.5587 32.123 50.0818 28.723 53.6562 28.5487C53.6562 28.5487 52.3485 24.8 54.7895 24.0153L55.6613 22.1846Z" fill="#FEEAC9" stroke="#050501" stroke-miterlimit="10"/>
<path d="M45.1995 13.2927V17.303H55.1379C55.3995 17.303 55.661 17.5645 55.661 17.9132V22.185H59.4097V14.6876C59.4097 13.903 58.8866 13.3799 58.1892 13.3799H45.1995V13.2927Z" fill="#ABABA9" stroke="#0C0501" stroke-miterlimit="10"/>
<path d="M58.4491 9.89249H54.0901V10.5899H55.9209V13.2925H56.6183V10.5899H58.4491V9.89249Z" fill="#0C0501"/>
</svg>
