<svg width="199" height="194" viewBox="0 0 199 194" fill="none" xmlns="http://www.w3.org/2000/svg">
<path d="M47.7621 146.727C35.2499 139.503 27.7449 126.046 28.1761 111.606L29.1744 78.0227C29.5656 64.8077 36.5156 52.77 47.7626 45.8269L76.3471 28.1709C88.6352 20.5806 104.042 20.3517 116.554 27.5757L150.353 47.0894C162.862 54.3115 170.37 67.7702 169.941 82.2073L168.943 115.79C168.552 129.005 161.602 141.043 150.353 147.989L121.768 165.645C109.477 173.234 94.0703 173.462 81.5613 166.24L47.7621 146.727Z" fill="#691712"/>
<path d="M148.303 145.58L119.719 163.236C108.147 170.381 93.5886 170.597 81.8078 163.795L48.8818 144.786C37.1042 137.986 30.0089 125.268 30.413 111.671L31.4113 78.0878C31.7786 65.6652 38.3626 54.2614 48.9373 47.732L77.5217 30.076C89.0937 22.9304 103.654 22.7113 115.435 29.5129L148.361 48.5227C160.138 55.3225 167.234 68.04 166.831 81.6345L165.833 115.217C165.461 127.641 158.875 139.048 148.303 145.58Z" fill="#761A15"/>
<mask id="mask0_1_1133" style="mask-type:alpha" maskUnits="userSpaceOnUse" x="30" y="24" width="137" height="145">
<path d="M148.301 145.58L119.717 163.236C108.145 170.381 93.5868 170.597 81.8059 163.795L48.8799 144.786C37.1023 137.986 30.007 125.268 30.4111 111.671L31.4095 78.0878C31.7767 65.6652 38.3607 54.2614 48.9354 47.732L77.5199 30.076C89.0918 22.9304 103.652 22.7113 115.433 29.5129L148.359 48.5227C160.136 55.3225 167.232 68.04 166.829 81.6345L165.831 115.217C165.459 127.641 158.873 139.048 148.301 145.58Z" fill="#D83F36"/>
</mask>
<g mask="url(#mask0_1_1133)">
<path d="M69.4844 37.0262C71.0693 37.1264 72.66 37.0739 74.2295 36.8704C75.8017 36.6772 77.3478 36.3042 78.9508 36.1027C80.5529 35.8878 82.219 35.9525 83.8111 36.2953C84.6084 36.4608 85.3906 36.6827 86.1586 36.944C86.9312 37.2124 87.6816 37.5416 88.4045 37.9113C91.3133 39.4044 93.7692 41.5244 96.2866 43.4329C98.7954 45.3712 101.419 47.1549 104.1 48.8411C109.47 52.2191 115.147 55.0892 120.902 57.7789C126.667 60.4575 132.525 62.9466 138.389 65.4478L138.066 66.3668C133.42 64.9629 128.97 62.9401 124.855 60.3908C122.797 59.1203 120.827 57.7055 118.944 56.1932C117.062 54.6777 115.286 53.0323 113.611 51.2938L113.067 50.7332L113.823 50.9265C119.536 52.3827 125.176 54.1221 130.715 56.1497C136.243 58.1969 141.708 60.4202 147.066 62.881C157.805 67.7635 168.179 73.4061 178.4 79.2599L186.055 83.6747C188.594 85.1624 191.172 86.5902 193.665 88.2332C194.907 89.0544 196.128 89.9282 197.286 90.8874C198.449 91.8451 199.529 92.8887 200.568 93.9483L203.637 97.1243C204.145 97.6476 204.675 98.1486 205.189 98.6621C205.723 99.1566 206.242 99.6687 206.792 100.151C211.106 104.067 215.874 107.497 220.988 110.306C221.621 110.667 222.272 110.995 222.917 111.342C223.57 111.667 224.216 112.005 224.878 112.314L225.869 112.782C226.193 112.934 226.513 113.071 226.847 113.199C227.506 113.454 228.183 113.662 228.869 113.825C230.239 114.139 231.665 114.282 232.991 114.028C233.646 113.9 234.27 113.666 234.777 113.291C235.289 112.924 235.674 112.414 235.924 111.816L236.068 111.475L236.427 111.462C237.968 111.406 239.513 111.553 241.016 111.87C242.513 112.197 243.971 112.683 245.361 113.308C248.14 114.561 250.665 116.283 252.954 118.242C254.101 119.221 255.187 120.268 256.22 121.354C257.258 122.439 258.238 123.586 259.151 124.776C260.065 125.962 260.948 127.157 261.918 128.285C262.883 129.414 263.922 130.482 264.997 131.519L264.903 131.621C263.773 130.643 262.67 129.625 261.657 128.52C260.633 127.426 259.689 126.253 258.733 125.116C256.825 122.843 254.712 120.744 252.434 118.865C250.149 116.996 247.65 115.379 244.955 114.235C243.607 113.673 242.215 113.217 240.794 112.929C239.372 112.646 237.921 112.532 236.478 112.605L236.982 112.25C236.826 112.632 236.624 113.005 236.372 113.345C236.116 113.683 235.812 113.984 235.476 114.236C234.802 114.749 234.011 115.047 233.231 115.212C231.654 115.532 230.086 115.381 228.59 115.059C227.842 114.892 227.106 114.679 226.391 114.409C226.032 114.28 225.673 114.129 225.332 113.976L224.32 113.513C223.642 113.208 222.983 112.871 222.312 112.548C221.653 112.203 220.984 111.882 220.337 111.517C217.726 110.1 215.193 108.534 212.771 106.814C210.344 105.101 208.012 103.248 205.813 101.246C205.255 100.755 204.725 100.232 204.18 99.7266C203.655 99.2023 203.116 98.6873 202.6 98.1552L199.536 94.9778C198.512 93.9359 197.473 92.9284 196.371 92.0063C195.273 91.0777 194.1 90.2269 192.894 89.418C190.48 87.8032 187.915 86.3527 185.387 84.8455L177.773 80.3759C167.605 74.453 157.361 68.6601 146.762 63.564C136.167 58.4782 125.152 54.1779 113.726 51.3646L113.94 50.994C115.605 52.7186 117.398 54.3128 119.279 55.7929C121.157 57.2763 123.149 58.6167 125.208 59.8318C129.329 62.2586 133.758 64.1524 138.351 65.4388L138.028 66.3578C132.111 63.9863 126.188 61.6026 120.395 58.9039C118.944 58.2349 117.505 57.5431 116.069 56.8397C114.647 56.1136 113.213 55.3986 111.809 54.6315C108.991 53.117 106.21 51.529 103.516 49.7916C100.822 48.0625 98.1835 46.2358 95.6636 44.2566C93.1452 42.2824 90.7793 40.1493 88.0226 38.6704C86.6561 37.9291 85.1816 37.3899 83.6617 37.0195C82.1451 36.651 80.5853 36.5523 79.0217 36.6855C77.4568 36.8136 75.8794 37.1208 74.279 37.2501C72.6777 37.3962 71.0674 37.355 69.4829 37.164L69.4844 37.0262Z" fill="#82301D"/>
<path d="M122.6 52.9438C133.702 60.7793 144.595 68.8933 155.393 77.1344C156.735 78.1735 158.084 79.208 159.413 80.2615L161.416 81.8381C162.077 82.3587 162.73 82.857 163.444 83.1824C164.15 83.5208 164.91 83.6084 165.73 83.5618C166.546 83.5217 167.388 83.3704 168.274 83.3445C169.163 83.3206 170.063 83.467 170.892 83.7724C171.725 84.0713 172.489 84.504 173.205 84.9909C174.634 85.9764 175.843 87.1942 177.063 88.3757C178.281 89.5554 179.515 90.7141 180.82 91.7931C183.412 93.9702 186.173 95.9454 189.074 97.6852C190.525 98.5493 192.006 99.3697 193.509 100.138C195.019 100.893 196.557 101.594 198.113 102.245C201.226 103.535 204.455 104.572 207.641 105.817C209.235 106.443 210.815 107.13 212.343 107.943C213.865 108.761 215.347 109.707 216.7 110.787C219.422 112.935 221.764 115.424 224.327 117.562C225.617 118.615 226.953 119.611 228.356 120.516C229.759 121.418 231.214 122.254 232.694 123.039C235.666 124.603 238.777 125.926 241.897 127.242C245.023 128.553 248.183 129.822 251.284 131.245C254.382 132.673 257.413 134.285 260.248 136.207L259.734 136.609C259.029 134.459 257.949 132.418 256.505 130.648L256.37 130.484L256.543 130.38C257.686 129.691 259.182 129.758 260.236 130.492L260.16 130.608C259.108 129.975 257.713 130.028 256.735 130.685L256.776 130.419C258.328 132.152 259.586 134.178 260.386 136.387L260.729 137.326L259.873 136.788C257.016 134.996 253.963 133.541 250.859 132.213C247.756 130.876 244.582 129.685 241.416 128.442C238.244 127.209 235.09 125.887 232.03 124.324C228.967 122.776 226.044 120.894 223.382 118.681C220.748 116.441 218.454 113.928 215.862 111.834C214.573 110.778 213.193 109.872 211.736 109.062C210.274 108.261 208.748 107.571 207.199 106.914C204.093 105.611 200.859 104.524 197.748 103.088C196.197 102.374 194.665 101.611 193.167 100.798C191.669 99.9767 190.203 99.1084 188.764 98.1913C187.331 97.2644 185.933 96.2926 184.559 95.2868C183.191 94.2713 181.857 93.2108 180.555 92.117C179.258 91.0166 177.998 89.8647 176.769 88.691C175.551 87.5114 174.316 86.3475 172.925 85.4315C171.544 84.5128 169.937 83.9321 168.321 84.052C167.507 84.1024 166.679 84.283 165.801 84.3615C165.364 84.3992 164.905 84.412 164.446 84.3592C163.985 84.3097 163.527 84.1796 163.103 84.0045C162.253 83.6525 161.53 83.1264 160.838 82.6275L158.781 81.1233C157.406 80.1259 156.046 79.1109 154.684 78.0992C143.833 69.9272 133.079 61.6333 122.533 53.0608L122.6 52.9438Z" fill="#82301D"/>
<path d="M57.1366 44.3002C58.6473 43.8982 60.1919 43.5503 61.763 43.4041C62.5433 43.2912 63.3344 43.2798 64.1215 43.2228C64.5146 43.2026 64.9121 43.2198 65.3074 43.2183C65.7041 43.2219 66.098 43.2153 66.4945 43.2492C69.6496 43.415 72.8045 44.0315 75.7774 45.1585C77.2756 45.694 78.7121 46.389 80.1111 47.1491L81.1354 47.7622C81.3059 47.8649 81.4781 47.9644 81.6448 48.0736L82.1392 48.411L83.126 49.0891L84.0725 49.822C86.5923 51.8013 88.6541 54.1836 90.9314 56.2525C93.1942 58.3391 95.77 60.0863 98.4795 61.5944C101.192 63.1042 104.067 64.3346 107.016 65.3441C109.96 66.3717 112.97 67.2083 115.996 67.9886L120.551 69.1146C121.316 69.322 122.089 69.5601 122.826 69.9423C123.558 70.3176 124.259 70.8608 124.733 71.6023L125.496 72.8018L124.181 72.2116C123.272 71.8039 122.36 71.4246 121.437 71.2296C120.519 71.0332 119.588 71.0379 118.816 71.4153L118.897 70.4784C123.338 73.424 127.822 76.3031 132.377 79.0672L135.804 81.1194L139.242 83.1521L142.701 85.1491L146.171 87.1265C147.334 87.7765 148.504 88.4084 149.662 89.0682L153.166 90.9871L156.694 92.8638L160.243 94.7047L163.801 96.5294L167.384 98.3118L170.976 100.078C172.179 100.651 173.384 101.23 174.583 101.818L174.527 101.946C173.283 101.458 172.045 100.959 170.807 100.453L167.113 98.901L163.447 97.2784L159.798 95.6097L156.186 93.871L152.594 92.0829L149.026 90.2526C147.84 89.6332 146.668 88.9911 145.488 88.3619L141.975 86.4206L138.498 84.4175L135.05 82.3657L131.642 80.2507C127.112 77.4058 122.646 74.4587 118.282 71.3631L117.505 70.8102L118.364 70.4262C118.894 70.1907 119.471 70.0773 120.03 70.0621C120.593 70.0488 121.138 70.1336 121.659 70.2658C122.698 70.5317 123.642 70.9768 124.546 71.4296L123.995 72.039C123.647 71.4396 123.099 70.9627 122.458 70.6014C121.817 70.24 121.095 69.983 120.361 69.7591L115.857 68.4764C112.844 67.6295 109.84 66.7446 106.871 65.7457C105.388 65.2446 103.917 64.6989 102.456 64.1286C101.007 63.522 99.5533 62.9251 98.1499 62.2103C95.3333 60.8051 92.6217 59.1356 90.1939 57.0794C88.9824 56.0548 87.8545 54.9529 86.7302 53.8747C85.6097 52.79 84.4934 51.7207 83.2921 50.7758L82.3949 50.0627L81.4541 49.4025L80.9843 49.0749C80.8242 48.9694 80.6584 48.8737 80.4963 48.7715L79.5166 48.1712C78.1734 47.4347 76.8143 46.7107 75.3771 46.167C69.6741 43.8756 63.2913 43.2419 57.1625 44.4279L57.1366 44.3002Z" fill="#82301D"/>
<path d="M117.737 78.8847C124.306 81.5595 131.03 83.7809 137.69 86.2526C144.344 88.707 150.973 91.451 157.09 95.1429C163.21 98.8148 168.844 103.155 174.668 107.19C177.584 109.203 180.541 111.161 183.591 112.957C186.632 114.769 189.794 116.365 192.971 117.935C194.564 118.711 196.161 119.473 197.765 120.23C198.563 120.605 199.374 121.003 200.16 121.344C200.947 121.686 201.746 121.961 202.527 122.004C202.916 122.03 203.295 121.988 203.651 121.882C204.008 121.775 204.373 121.592 204.761 121.387C205.146 121.185 205.557 120.954 206.035 120.779C206.506 120.6 207.074 120.512 207.595 120.561C208.654 120.657 209.516 121.116 210.311 121.496L212.699 122.667C219.065 125.801 225.42 129.041 231.422 132.909C234.412 134.856 237.327 136.938 240.082 139.209C242.835 141.475 245.485 143.829 248.202 146.09C250.922 148.346 253.686 150.54 256.679 152.398C258.191 153.292 259.717 154.178 261.34 154.872C262.939 155.617 264.629 156.143 266.332 156.623L266.303 156.758C264.565 156.396 262.826 155.955 261.171 155.286C259.494 154.669 257.893 153.861 256.327 153.001C253.226 151.224 250.313 149.138 247.524 146.926C244.738 144.71 242.028 142.422 239.251 140.242C236.474 138.071 233.61 136.027 230.63 134.147C227.66 132.25 224.608 130.479 221.513 128.774C218.422 127.064 215.279 125.435 212.12 123.828L209.75 122.625C208.964 122.223 208.212 121.85 207.487 121.769C207.125 121.729 206.793 121.771 206.43 121.896C206.07 122.017 205.695 122.208 205.296 122.411C204.894 122.612 204.462 122.827 203.963 122.963C203.467 123.102 202.949 123.136 202.457 123.095C201.461 123.01 200.569 122.664 199.742 122.286C198.917 121.892 198.146 121.477 197.353 121.072C195.778 120.257 194.201 119.438 192.634 118.607C179.918 112.18 168.831 103.066 156.521 96.1362C153.454 94.3915 150.308 92.8136 147.096 91.3494C143.883 89.8885 140.606 88.56 137.316 87.2543C130.732 84.6493 124.066 82.1487 117.687 79.0162L117.737 78.8847Z" fill="#82301D"/>
<path d="M80.3475 62.921C78.1594 61.1029 75.6782 59.6573 73.0182 58.7241L73.3732 58.2745C74.2697 59.4769 75.2297 60.6294 76.3202 61.6534C77.4018 62.6853 78.577 63.6152 79.8268 64.4235C81.071 65.2415 82.4079 65.9137 83.7761 66.4869C84.3933 66.7392 85.1079 66.8527 85.7456 66.7917C86.0637 66.7587 86.3616 66.6706 86.5583 66.5328C86.7535 66.3898 86.8469 66.2356 86.8717 65.9899L87.0953 66.496C81.6553 62.5101 76.0092 58.8212 70.2323 55.3515C67.3431 53.6141 64.4169 51.9333 61.4427 50.3506C59.961 49.5688 58.4487 48.8473 56.8503 48.4403C56.0518 48.2393 55.2361 48.1281 54.424 48.1534C54.0179 48.166 53.6103 48.2038 53.2146 48.2961C52.8148 48.373 52.4246 48.4858 52.1021 48.6766C51.7781 48.8623 51.544 49.1476 51.4624 49.4993C51.3761 49.8439 51.4419 50.2329 51.5813 50.5995C51.8695 51.3467 52.4119 51.9762 52.9939 52.5897L53.8479 53.5205C54.1319 53.8318 54.4463 54.1131 54.7411 54.4133C55.0429 54.7089 55.3414 55.0026 55.6488 55.2884L56.6015 56.1159C59.1557 58.3057 61.9215 60.2493 64.8332 61.9477C67.7393 63.6559 70.7411 65.1982 73.7715 66.6835C76.8052 68.1706 79.8633 69.6154 82.8757 71.1769C88.9193 74.2674 94.7344 77.7462 100.586 81.1245C106.434 84.5009 112.288 87.8676 118.343 90.7873C119.067 91.1402 119.786 91.3817 120.307 91.2365C120.561 91.1794 120.852 90.9917 121.232 90.7471C121.422 90.6273 121.632 90.497 121.884 90.391C122.137 90.2818 122.426 90.21 122.7 90.186C123.256 90.1387 123.757 90.2545 124.204 90.3957C124.658 90.5407 125.047 90.7221 125.442 90.8938C126.237 91.2359 127.004 91.635 127.763 92.0472C130.776 93.7265 133.486 95.8198 136.128 97.9258C138.769 100.04 141.39 102.152 144.28 103.859C145.72 104.712 147.212 105.491 148.783 106.082C150.352 106.667 151.988 107.091 153.663 107.283L153.653 107.42C151.957 107.333 150.274 106.99 148.649 106.464C147.026 105.934 145.467 105.225 143.964 104.413C140.964 102.777 138.23 100.726 135.524 98.7085C132.82 96.6879 130.123 94.6711 127.182 93.1206C126.446 92.7435 125.701 92.3742 124.94 92.0644C124.176 91.7361 123.415 91.4398 122.826 91.507C122.54 91.5369 122.312 91.6528 121.967 91.8827C121.637 92.0949 121.231 92.4153 120.656 92.5692C120.097 92.7189 119.536 92.6633 119.057 92.5471C118.573 92.4239 118.145 92.2418 117.747 92.0599C111.58 89.1755 105.683 85.8096 99.8685 82.3444C94.0543 78.8792 88.275 75.3908 82.3484 72.1728C76.4119 68.9794 70.3035 66.0162 64.5368 62.4311C61.6595 60.6355 58.8654 58.6885 56.3146 56.44L55.363 55.5959L54.4474 54.7118C54.1475 54.413 53.8247 54.1312 53.5374 53.818L52.6686 52.883C52.0841 52.2811 51.494 51.6067 51.1522 50.7722C50.9837 50.3585 50.8764 49.8761 50.9861 49.3933C51.0842 48.9081 51.4273 48.4864 51.8302 48.2466C52.2336 47.9984 52.6667 47.8713 53.0926 47.7792C53.5177 47.6735 53.9566 47.6191 54.3939 47.5899C55.2699 47.5365 56.1476 47.6228 56.996 47.8049C58.6975 48.1761 60.2854 48.8718 61.8148 49.6161C64.8577 51.1172 67.8594 52.6899 70.8112 54.3638C76.7093 57.7214 82.3526 61.5126 87.7646 65.5995L88.043 65.8079L87.99 66.1024C87.9671 66.2322 87.9442 66.362 87.9096 66.4894C87.8583 66.6158 87.8116 66.7493 87.7389 66.8677C87.5935 67.1045 87.3994 67.3131 87.1776 67.4495C86.7433 67.7362 86.2782 67.8361 85.8469 67.8775C84.9736 67.9411 84.1488 67.7856 83.3649 67.4544C81.9462 66.826 80.584 66.0699 79.3187 65.1834C78.0446 64.3047 76.8618 63.3054 75.7809 62.2046C74.6963 61.1103 73.7193 59.9047 72.8748 58.6196L72.337 57.802L73.2265 58.1682C75.895 59.2667 78.3687 60.838 80.4308 62.8217L80.3475 62.921Z" fill="#82301D"/>
<path d="M255.34 171.554C251.034 169.185 247.109 166.134 243.485 162.816C241.68 161.145 239.918 159.43 238.211 157.673C236.488 155.928 234.814 154.142 233.144 152.35C231.48 150.562 229.833 148.753 228.111 147.021C227.264 146.138 226.379 145.298 225.506 144.447C225.074 144.015 224.603 143.622 224.153 143.215C223.695 142.816 223.249 142.394 222.78 142.006C220.879 140.493 219.016 138.832 216.776 137.946C216.22 137.729 215.647 137.559 215.061 137.463C214.476 137.372 213.88 137.353 213.278 137.374C212.077 137.413 210.878 137.614 209.637 137.712C204.669 138.142 199.576 136.927 195.231 134.423C193.052 133.174 191.06 131.594 189.334 129.757C187.6 127.932 186.201 125.755 185.086 123.564C183.959 121.379 182.912 119.192 181.427 117.386C180.688 116.482 179.83 115.679 178.872 115.048C177.912 114.42 176.843 113.967 175.721 113.84C174.602 113.697 173.402 113.884 172.143 113.933C171.514 113.955 170.859 113.95 170.211 113.81C169.56 113.677 168.928 113.39 168.408 112.985C167.348 112.17 166.744 111.032 166.12 109.996C165.496 108.959 164.844 107.911 163.812 107.259L163.878 107.137C165.011 107.704 165.791 108.757 166.491 109.751C167.193 110.75 167.88 111.775 168.813 112.418C169.28 112.735 169.8 112.939 170.355 113.021C170.909 113.112 171.493 113.085 172.083 113.031C173.261 112.927 174.498 112.639 175.826 112.756C177.147 112.856 178.415 113.332 179.525 114.007C180.634 114.691 181.605 115.555 182.443 116.52C184.141 118.467 185.227 120.745 186.383 122.878C187.489 125.047 188.786 127.013 190.386 128.782C191.979 130.543 193.838 132.076 195.885 133.305C199.98 135.747 204.765 137.106 209.587 136.959C210.79 136.917 212.017 136.767 213.27 136.78C214.518 136.781 215.799 137.009 216.95 137.509C218.104 138.002 219.157 138.671 220.15 139.4C221.149 140.124 222.089 140.905 223.061 141.661C224.955 143.223 226.836 144.807 228.644 146.466L230 147.713L231.335 148.982C232.226 149.826 233.097 150.689 233.974 151.551C235.703 153.286 237.399 155.054 239.09 156.819C239.929 157.707 240.783 158.577 241.643 159.446C242.486 160.327 243.364 161.172 244.225 162.038C247.714 165.439 251.386 168.651 255.418 171.434L255.34 171.554Z" fill="#82301D"/>
<path d="M99.8088 26.4609C99.4523 29.0377 100.202 31.5985 101.522 33.7261C102.183 34.7967 103.003 35.7557 103.914 36.6244C104.369 37.0603 104.856 37.4629 105.356 37.8511C105.854 38.2426 106.37 38.6099 106.902 38.9563C109.038 40.3323 111.352 41.4736 113.696 42.5274C116.044 43.5798 118.482 44.4544 120.986 45.1025C121.614 45.2612 122.243 45.4032 122.879 45.5322C123.514 45.6561 124.155 45.7619 124.794 45.8709C126.079 46.0791 127.371 46.2963 128.644 46.6502C129.917 46.999 131.151 47.5255 132.307 48.1583C133.465 48.7878 134.571 49.4999 135.668 50.1981C140.049 52.9702 144.505 55.6122 149.151 57.8873L148.426 57.9195C148.507 57.8621 148.557 57.8046 148.616 57.6433C148.67 57.4885 148.706 57.2619 148.726 57.0092C148.785 56.5015 148.744 55.8751 149.069 55.1311C149.248 54.7617 149.555 54.4102 149.951 54.2052C150.351 53.9989 150.779 53.9556 151.146 53.981C151.884 54.0472 152.458 54.3137 152.996 54.5983C154.953 55.7062 156.827 56.8748 158.683 58.1029C160.533 59.3357 162.343 60.6232 164.102 61.9766C165.862 63.3267 167.566 64.7525 169.214 66.2288L169.131 66.3364C167.316 65.0722 165.492 63.8242 163.648 62.6203C161.805 61.4132 159.938 60.24 158.048 59.1142C156.17 57.9823 154.235 56.8959 152.332 55.8533C151.895 55.627 151.425 55.4507 151.057 55.4337C150.681 55.4246 150.549 55.526 150.405 55.7679C150.267 56.0439 150.24 56.5568 150.195 57.1377C150.167 57.4337 150.131 57.7594 150.004 58.1285C149.887 58.4898 149.607 58.9136 149.215 59.1507L148.852 59.3745L148.493 59.1848C143.863 56.7459 139.356 54.057 135.161 50.9412C134.11 50.1702 133.074 49.3983 131.984 48.7258C130.893 48.0481 129.752 47.4634 128.52 47.0985C127.295 46.7122 126.017 46.4942 124.734 46.2827C123.45 46.0828 122.155 45.8773 120.874 45.6188C118.302 45.1264 115.762 44.4357 113.295 43.5224C110.832 42.5994 108.441 41.4569 106.24 39.9525C105.135 39.2101 104.091 38.3604 103.155 37.3995C102.688 36.9174 102.242 36.413 101.837 35.8758C101.436 35.332 101.075 34.7638 100.754 34.1711C100.426 33.583 100.17 32.9589 99.948 32.3233C99.7287 31.6896 99.5593 31.037 99.4645 30.3754C99.2511 29.0559 99.3196 27.6911 99.6814 26.4263L99.8088 26.4609Z" fill="#82301D"/>
<path d="M38.3795 61.4748C41.1576 63.8026 44.0194 66.0227 46.9901 68.0845C49.9625 70.1431 53.0035 72.0982 56.1471 73.8828C59.2837 75.6721 62.5128 77.2937 65.7984 78.7875C69.0826 80.2762 72.4438 81.6013 75.8528 82.7763L75.0855 83.5122C74.4114 81.294 72.9279 79.3365 71.0423 77.9705C69.1642 76.5914 66.8538 75.7733 64.5359 75.8091L64.9679 74.7755C66.8707 76.78 68.854 78.7052 70.8891 80.578C72.9243 82.4508 75.0296 84.2472 77.1948 85.9697C81.5342 89.4069 86.1076 92.5589 90.9166 95.318L91.2124 95.4888L90.9697 95.7214C89.8279 96.8133 88.3891 97.556 86.883 97.9651C85.3703 98.3704 83.7805 98.4364 82.2433 98.186C80.7099 97.9292 79.2051 97.3899 77.9171 96.4902C77.6105 96.2481 77.2785 96.0348 76.9939 95.7621L76.5692 95.3565L76.3578 95.1521L76.173 94.9241C75.9309 94.6152 75.6602 94.3333 75.4579 93.9781C75.255 93.6312 75.0891 93.258 75.0011 92.8474C74.9177 92.4439 74.9188 91.9764 75.1399 91.5709C75.3443 91.1645 75.7548 90.8813 76.1766 90.7738C77.0309 90.5779 77.832 90.8194 78.5612 91.0279C80.0343 91.4493 81.5069 91.8791 82.9715 92.3303C85.9021 93.2377 88.8034 94.241 91.6707 95.333C97.4111 97.5072 103.026 100.034 108.44 102.939C109.122 103.297 109.794 103.664 110.466 104.039C111.142 104.407 111.809 104.784 112.473 105.172C113.821 105.924 115.099 106.766 116.433 107.307C117.762 107.844 119.2 108.085 120.375 107.506C120.67 107.364 120.949 107.187 121.202 106.982C121.445 106.772 121.671 106.538 121.838 106.279C122.002 106.018 122.126 105.743 122.188 105.462C122.237 105.183 122.225 104.903 122.162 104.628L121.629 102.301L123.287 103.986C126.094 106.842 127.638 110.46 129.678 113.54C129.932 113.925 130.192 114.309 130.468 114.672C130.731 115.05 131.028 115.39 131.324 115.734C131.463 115.914 131.623 116.072 131.783 116.229L132.254 116.705L132.762 117.132C132.932 117.274 133.096 117.425 133.287 117.536C133.655 117.778 134.013 118.037 134.414 118.212C134.61 118.308 134.804 118.415 135 118.503C135.204 118.577 135.402 118.67 135.619 118.73C136.457 119.006 137.343 119.175 138.259 119.292C140.09 119.53 142.031 119.576 143.983 120.091C144.952 120.356 145.884 120.717 146.768 121.131C147.649 121.549 148.498 122.009 149.333 122.469C150.995 123.381 152.623 124.308 154.34 124.81C155.192 125.076 156.068 125.209 156.936 125.186C157.79 125.207 158.71 124.936 159.789 124.943C160.319 124.942 160.91 125.044 161.426 125.277C161.94 125.505 162.377 125.822 162.767 126.151C163.158 126.481 163.495 126.827 163.837 127.151L164.865 128.126C166.235 129.424 167.65 130.674 169.089 131.899C171.971 134.339 174.976 136.633 178.093 138.779C184.333 143.054 191.009 146.7 197.994 149.662L197.943 149.789C190.824 147.126 183.996 143.661 177.608 139.5C174.409 137.428 171.318 135.184 168.375 132.752C166.904 131.539 165.455 130.295 164.049 129.007L162.995 128.039C162.64 127.716 162.31 127.387 161.971 127.109C161.633 126.832 161.284 126.595 160.928 126.446C160.572 126.297 160.209 126.235 159.79 126.24C158.965 126.236 158.026 126.518 156.98 126.529C155.953 126.573 154.922 126.429 153.959 126.146C152.018 125.589 150.315 124.619 148.652 123.723C146.992 122.822 145.344 121.961 143.613 121.512C141.879 121.07 139.997 121.011 138.068 120.764C137.104 120.64 136.119 120.454 135.151 120.133C134.907 120.061 134.673 119.956 134.434 119.866C134.2 119.762 133.975 119.64 133.745 119.529C133.276 119.319 132.859 119.022 132.435 118.742C130.751 117.575 129.53 115.951 128.47 114.334C127.414 112.701 126.53 111.012 125.576 109.399C124.622 107.786 123.601 106.235 122.336 104.936L123.461 104.294C123.573 104.767 123.586 105.264 123.495 105.736C123.393 106.206 123.192 106.636 122.942 107.016C122.428 107.772 121.715 108.323 120.921 108.693C120.519 108.863 120.102 109.008 119.657 109.072C119.208 109.138 118.773 109.147 118.357 109.102C117.511 109.029 116.704 108.789 115.958 108.475C114.457 107.847 113.178 106.97 111.868 106.213C111.215 105.819 110.557 105.435 109.894 105.061C109.234 104.68 108.572 104.302 107.903 103.937C102.563 100.993 97.0568 98.3386 91.3943 96.0446C88.5653 94.901 85.6941 93.8458 82.7954 92.8831L80.6144 92.1787C79.8868 91.945 79.1526 91.7378 78.4207 91.519C78.0525 91.4061 77.6986 91.3058 77.3371 91.2488C76.9807 91.1904 76.6199 91.1771 76.2974 91.2553C75.9813 91.3372 75.7077 91.526 75.563 91.8066C75.4105 92.0782 75.3964 92.4255 75.4652 92.7643C75.5372 93.105 75.6768 93.4413 75.8598 93.755C76.0344 94.0682 76.2934 94.3477 76.523 94.6407L76.6966 94.858L76.8969 95.0516L77.2956 95.4422C77.5607 95.7036 77.8816 95.9062 78.1701 96.1421C79.3912 97.0075 80.8354 97.5466 82.3182 97.7785C83.801 98.0105 85.3341 97.9377 86.7755 97.5432C88.2182 97.1539 89.5661 96.4108 90.6277 95.3679L90.6808 95.7713C85.8111 93.0725 81.1067 90.0573 76.659 86.6876C74.434 85.0085 72.2661 83.2455 70.1684 81.4059C68.0656 79.5677 66.0494 77.6321 64.0991 75.6349L63.1105 74.622L64.5311 74.6013C67.1437 74.558 69.7079 75.462 71.7874 76.9877C73.8618 78.5147 75.4957 80.6847 76.2402 83.1863L76.5732 84.3062L75.4729 83.9223C72.03 82.7234 68.6593 81.3321 65.36 79.787C62.057 78.2484 58.8498 76.5138 55.7298 74.6431C52.6136 72.766 49.5724 70.7588 46.6699 68.5715C43.7655 66.3875 40.958 64.0732 38.3031 61.5997L38.3795 61.4748Z" fill="#82301D"/>
<path d="M187.644 148.651C184.575 146.992 181.564 145.249 178.569 143.468C175.58 141.686 172.606 139.878 169.66 138.021C163.777 134.299 158.145 130.181 152.18 126.594L149.947 125.244C149.197 124.802 148.442 124.375 147.687 123.956C146.172 123.12 144.614 122.364 143.02 121.747C141.424 121.133 139.786 120.66 138.124 120.437C136.46 120.227 134.789 120.306 133.181 120.696C131.556 121.093 129.934 121.786 128.11 122.115C127.203 122.281 126.232 122.319 125.296 122.198C124.363 122.08 123.458 121.831 122.601 121.492C119.213 120.1 116.368 117.595 114.523 114.492L114.818 114.732C112.625 113.86 110.461 112.91 108.343 111.878C107.285 111.362 106.232 110.828 105.196 110.264C104.159 109.704 103.13 109.136 102.118 108.531L102.181 108.407C103.254 108.883 104.329 109.365 105.408 109.823C106.489 110.278 107.571 110.73 108.659 111.167C110.833 112.041 113.023 112.863 115.231 113.626L115.404 113.687L115.524 113.869C116.451 115.267 117.574 116.535 118.873 117.588C120.157 118.646 121.608 119.532 123.142 120.118C123.908 120.413 124.69 120.635 125.481 120.736C126.274 120.843 127.06 120.803 127.868 120.68C129.486 120.43 131.111 119.791 132.876 119.393C134.655 119.007 136.518 118.947 138.302 119.244C140.085 119.541 141.789 120.126 143.398 120.86C145.01 121.596 146.54 122.466 148.024 123.388C148.766 123.851 149.5 124.322 150.23 124.8L152.423 126.218C158.25 130.029 164.414 133.301 170.325 136.974C173.279 138.818 176.203 140.706 179.106 142.621C182.011 144.541 184.895 146.491 187.724 148.528L187.644 148.651Z" fill="#82301D"/>
<path d="M47.024 88.3026L51.4435 92.4795C52.93 93.8536 54.4203 95.2211 55.9523 96.5391C57.4811 97.8551 59.0496 99.1248 60.6715 100.317C62.2846 101.517 63.9604 102.623 65.6963 103.625C67.4253 104.632 69.2199 105.525 71.0738 106.271C72.9245 107.014 74.8232 107.629 76.7694 108.042C77.7382 108.263 78.7195 108.418 79.7041 108.544C80.6874 108.666 81.7803 108.725 82.8341 109.212C83.3596 109.45 83.8366 109.825 84.2076 110.256C84.58 110.692 84.8567 111.181 85.071 111.673C85.5029 112.66 85.7303 113.662 86.0492 114.596C86.656 116.45 87.8466 118.104 89.3799 119.345C90.9215 120.586 92.8196 121.353 94.8129 121.541C96.7963 121.754 98.8718 121.665 100.881 122.149C102.885 122.604 104.794 123.368 106.65 124.184C110.368 125.806 114.091 127.422 117.772 129.153C121.452 130.879 125.063 132.786 128.538 134.936L129.436 135.489L128.507 136.01C127.183 136.75 125.566 136.869 124.176 136.5C122.763 136.161 121.507 135.484 120.367 134.696C119.801 134.295 119.25 133.869 118.74 133.401C118.233 132.943 117.752 132.484 117.268 132.031C116.305 131.124 115.338 130.253 114.305 129.536C113.27 128.829 112.154 128.285 110.976 128.147C109.813 127.969 108.565 128.254 107.213 128.441C104.449 128.852 101.558 128.417 99.0305 127.231C98.3996 126.928 97.793 126.582 97.2109 126.194C96.6223 125.802 96.0991 125.357 95.5941 125C95.0813 124.635 94.5913 124.365 94.0317 124.246C93.4661 124.114 92.8278 124.101 92.1584 124.074C89.4846 123.961 86.7562 123.747 84.1499 122.901C82.8476 122.491 81.594 121.915 80.4356 121.181C79.2917 120.43 78.2542 119.532 77.3527 118.526C75.5412 116.513 74.1626 114.209 72.831 111.906L72.9463 111.834C74.4441 114.029 75.9213 116.26 77.7917 118.103C78.7094 119.036 79.7366 119.854 80.8436 120.519C81.96 121.168 83.1646 121.664 84.4174 122.002C86.9225 122.685 89.5556 122.862 92.1902 122.901C92.8471 122.912 93.5507 122.902 94.2884 123.05C95.0369 123.188 95.7495 123.56 96.3227 123.956C96.9076 124.354 97.4128 124.763 97.9412 125.094C98.4742 125.432 99.033 125.733 99.6077 125.991C101.917 127.03 104.508 127.399 107.008 126.995C107.647 126.901 108.306 126.774 109.005 126.697C109.696 126.619 110.438 126.579 111.175 126.692C112.657 126.872 113.994 127.544 115.146 128.335C116.296 129.142 117.288 130.083 118.251 131.012C118.733 131.476 119.206 131.94 119.681 132.379C120.147 132.817 120.646 133.214 121.159 133.588C122.186 134.324 123.314 134.937 124.494 135.236C125.669 135.559 126.885 135.464 127.91 134.92L127.879 135.994C124.508 133.792 120.963 131.854 117.374 129.986C113.784 128.125 110.113 126.391 106.45 124.658C104.614 123.815 102.753 123.022 100.797 122.573C99.82 122.343 98.8303 122.218 97.8192 122.167C96.8119 122.11 95.7937 122.094 94.7741 121.991C93.7544 121.888 92.7236 121.692 91.7521 121.317C90.7821 120.948 89.8639 120.444 89.0248 119.825C87.357 118.585 86.007 116.869 85.2699 114.887C84.8995 113.915 84.63 112.94 84.2158 112.081C83.8066 111.221 83.2142 110.528 82.4051 110.195C81.5881 109.853 80.612 109.81 79.5904 109.71C78.5629 109.598 77.535 109.464 76.5257 109.245C74.5027 108.822 72.5197 108.211 70.6203 107.409C68.7187 106.619 66.8758 105.689 65.1215 104.629C63.3659 103.563 61.6749 102.4 60.0654 101.142C58.4596 99.8764 56.9062 98.5505 55.4155 97.161C52.4341 94.3822 49.6664 91.4059 46.9388 88.4051L47.024 88.3026Z" fill="#82301D"/>
<path d="M134.044 129.781C139.556 132.456 145.019 135.224 150.447 138.05C150.783 138.227 151.128 138.396 151.486 138.616C151.842 138.834 152.21 139.103 152.507 139.482C152.806 139.858 152.986 140.305 153.091 140.738C153.188 141.171 153.221 141.594 153.227 141.996L153.224 143.151C153.236 143.513 153.251 143.869 153.297 144.225C153.375 144.938 153.573 145.632 153.807 146.314C154.834 149.026 156.942 151.283 159.399 152.897C161.887 154.52 164.779 155.531 167.703 156.352C170.637 157.171 173.636 157.87 176.571 158.755C179.513 159.621 182.423 160.616 185.245 161.838C186.655 162.453 188.043 163.119 189.398 163.85C190.755 164.586 192.064 165.402 193.341 166.261C195.897 167.975 198.346 169.831 200.832 171.574C203.319 173.318 205.931 174.86 208.644 176.205C210.001 176.872 211.385 177.485 212.793 178.042C213.498 178.315 214.205 178.584 214.917 178.83C215.62 179.084 216.385 179.305 217.152 179.704C217.532 179.902 217.91 180.155 218.251 180.473C218.59 180.795 218.873 181.197 219.066 181.62C219.464 182.478 219.532 183.381 219.516 184.182C219.503 184.993 219.427 185.756 219.417 186.478C219.406 187.196 219.463 187.878 219.7 188.436C219.922 188.997 220.334 189.439 220.886 189.745C221.435 190.04 222.088 190.2 222.739 190.191C223.064 190.183 223.383 190.142 223.699 190.06C224.02 189.977 224.332 189.849 224.636 189.699C225.238 189.392 225.807 188.976 226.313 188.475C226.569 188.228 226.808 187.963 227.039 187.684C227.271 187.402 227.473 187.12 227.709 186.793C227.951 186.472 228.219 186.12 228.612 185.823C228.998 185.521 229.536 185.333 230.017 185.325C230.504 185.307 230.937 185.406 231.336 185.519C231.736 185.637 232.088 185.771 232.454 185.895C233.183 186.147 233.903 186.424 234.623 186.701C240.36 188.973 245.775 192.026 250.625 195.78L250.542 195.892C245.439 192.517 239.968 189.748 234.24 187.711C233.525 187.454 232.807 187.205 232.086 186.975C231.358 186.741 230.646 186.481 230.075 186.524C229.789 186.546 229.576 186.63 229.36 186.801C229.145 186.971 228.941 187.235 228.731 187.53C228.525 187.827 228.294 188.175 228.046 188.491C227.797 188.811 227.533 189.118 227.246 189.412C226.122 190.579 224.576 191.559 222.764 191.605C221.883 191.629 220.998 191.435 220.196 191.015C219.4 190.599 218.694 189.871 218.344 189.005C217.972 188.149 217.937 187.262 217.942 186.459C217.957 185.652 218.034 184.887 218.047 184.166C218.066 183.444 217.986 182.778 217.739 182.245C217.612 181.977 217.454 181.734 217.244 181.526C217.029 181.32 216.771 181.136 216.475 180.974C215.886 180.651 215.179 180.425 214.447 180.154C213.72 179.89 213 179.605 212.281 179.311C210.85 178.719 209.443 178.071 208.064 177.366C205.306 175.965 202.675 174.307 200.2 172.466C197.713 170.649 195.38 168.669 192.914 166.881C190.457 165.086 187.846 163.513 185.06 162.264C182.287 161.001 179.39 160.005 176.453 159.185C174.981 158.777 173.499 158.416 172.007 158.079C170.513 157.754 169.013 157.447 167.517 157.095C164.531 156.389 161.513 155.505 158.793 153.865C158.124 153.44 157.466 152.995 156.861 152.481C156.548 152.235 156.262 151.957 155.969 151.693C155.693 151.404 155.404 151.132 155.148 150.824C154.613 150.234 154.146 149.579 153.713 148.903C153.288 148.22 152.948 147.487 152.663 146.728C152.404 145.959 152.191 145.173 152.11 144.359C152.06 143.957 152.051 143.545 152.04 143.144L152.056 142.005C152.06 141.278 151.971 140.621 151.622 140.159C151.282 139.69 150.624 139.358 149.947 138.984C144.587 136.024 139.261 133.005 133.984 129.893L134.044 129.781Z" fill="#82301D"/>
<path d="M233.692 211.033C229.989 208.393 226.176 205.927 222.253 203.654L219.294 201.984L216.294 200.395L213.259 198.872L210.185 197.432C206.07 195.55 201.849 193.898 197.571 192.433C193.292 190.964 188.951 189.662 184.54 188.624L183.639 188.412L184.388 187.895C186.171 186.662 188.258 186.207 189.748 184.917C190.485 184.28 191.075 183.43 191.251 182.495C191.338 182.029 191.289 181.551 191.129 181.107C190.969 180.664 190.673 180.267 190.318 179.937C189.593 179.271 188.662 178.833 187.732 178.418L184.911 177.17L179.253 174.71C175.473 173.082 171.682 171.487 167.892 169.884L162.213 167.498C161.297 167.126 160.349 166.847 159.506 166.993C158.67 167.126 157.893 167.744 157.823 168.436L157.716 169.484L156.876 168.808C154.986 167.283 153.204 165.626 151.546 163.85C150.715 162.962 149.914 162.045 149.144 161.111C148.377 160.173 147.639 159.236 146.863 158.35C146.091 157.466 145.28 156.634 144.382 155.929C143.488 155.218 142.493 154.622 141.457 154.089C139.388 153.025 137.122 152.206 134.897 151.337C132.673 150.496 130.435 149.719 128.143 149.371C127.035 149.226 125.672 148.998 125.189 149.451C124.922 149.657 124.778 150.042 124.783 150.522C124.793 151 124.927 151.519 125.146 151.988C125.197 152.109 125.26 152.219 125.327 152.335L125.553 152.687C125.695 152.929 125.868 153.146 126.044 153.36C126.208 153.586 126.407 153.782 126.603 153.983C126.789 154.194 127.009 154.368 127.223 154.553C128.085 155.276 129.09 155.839 130.16 156.223C132.295 156.991 134.721 157.031 136.832 156.169L136.608 156.811C135.863 155.354 134.653 154.131 133.215 153.305C131.774 152.473 130.097 152.03 128.423 152.099L128.638 151.72C129.628 153.796 131.494 155.458 133.711 156.244L133.669 156.376C131.367 155.732 129.337 154.105 128.174 151.96L127.99 151.619L128.389 151.581C130.17 151.408 131.989 151.817 133.575 152.659C135.159 153.495 136.535 154.775 137.428 156.375L137.67 156.804L137.204 157.017C134.889 158.077 132.186 158.09 129.797 157.287C127.4 156.484 125.245 154.871 123.984 152.544C123.683 151.932 123.487 151.273 123.455 150.548C123.443 150.186 123.483 149.801 123.616 149.419C123.745 149.038 123.993 148.661 124.321 148.387C124.644 148.105 125.056 147.94 125.425 147.863C125.803 147.786 126.158 147.779 126.488 147.787C127.13 147.815 127.737 147.875 128.357 147.965C130.823 148.318 133.164 149.097 135.426 149.948C136.558 150.381 137.667 150.817 138.794 151.268C139.919 151.723 141.041 152.211 142.139 152.779C143.233 153.354 144.3 154.014 145.275 154.811C146.256 155.603 147.118 156.512 147.912 157.443C148.708 158.375 149.441 159.336 150.184 160.263C150.927 161.191 151.694 162.093 152.497 162.968C154.101 164.718 155.815 166.366 157.625 167.901L156.676 168.268C156.776 167.584 157.183 167 157.671 166.619C158.161 166.229 158.736 165.998 159.337 165.903C160.558 165.733 161.653 166.135 162.614 166.542L168.23 169.126C171.968 170.842 175.704 172.57 179.455 174.263L185.087 176.782L187.91 178.026C188.851 178.439 189.823 178.879 190.627 179.604C191.019 179.969 191.376 180.409 191.577 180.932C191.781 181.449 191.849 182.03 191.759 182.576C191.572 183.681 190.93 184.62 190.154 185.355C189.358 186.105 188.405 186.591 187.487 187.062C186.565 187.526 185.653 187.971 184.87 188.555L184.715 187.824C189.187 188.72 193.627 189.844 197.965 191.278C202.302 192.716 206.544 194.437 210.681 196.378L213.757 197.89L216.789 199.485L219.767 201.174L222.696 202.947C226.559 205.377 230.273 208.037 233.789 210.925L233.692 211.033Z" fill="#82301D"/>
<path d="M31.9471 101.761C33.5346 101.902 35.1135 102.103 36.6926 102.355C38.267 102.601 39.8361 102.909 41.3919 103.27C42.9547 103.626 44.4847 104.024 46.0392 104.462C46.434 104.582 46.8408 104.725 47.2384 104.938C47.6327 105.148 48.0234 105.447 48.3067 105.827C48.8964 106.593 49.0734 107.51 49.1568 108.334C49.2341 109.176 49.226 109.956 49.2765 110.739C49.3186 111.522 49.3762 112.301 49.4785 113.062C49.6779 114.586 50.0885 116.067 50.8642 117.321C51.6417 118.572 52.7806 119.602 54.0365 120.505C55.2956 121.409 56.6429 122.274 57.967 123.134C60.6173 124.872 63.3309 126.508 66.0872 128.078C67.4666 128.857 68.8604 129.618 70.2693 130.353C71.6843 131.071 73.1006 131.793 74.5462 132.45C75.9861 133.117 77.4354 133.767 78.9026 134.371L80.0021 134.824C80.3697 134.976 80.7555 135.133 81.1092 135.376C81.4666 135.613 81.7649 135.967 81.9592 136.344C82.1587 136.719 82.2864 137.114 82.4048 137.494C83.2867 140.509 85.2687 143.127 87.7955 144.906C88.4206 145.362 89.1048 145.731 89.7886 146.079C90.4911 146.393 91.2031 146.692 91.9467 146.882C93.4217 147.301 94.9812 147.46 96.5525 147.591C98.1256 147.719 99.7287 147.795 101.346 148.057C102.957 148.315 104.601 148.801 106.048 149.71C107.506 150.616 108.652 151.92 109.553 153.294C110.461 154.672 111.172 156.127 111.895 157.533C112.623 158.937 113.341 160.305 114.261 161.521C115.176 162.743 116.253 163.85 117.416 164.869C118.585 165.885 119.843 166.807 121.148 167.677C122.458 168.538 123.81 169.349 125.175 170.154C127.91 171.759 130.672 173.319 133.462 174.831L137.658 177.084C139.056 177.83 140.465 178.527 141.93 179.091C143.394 179.641 144.907 180.09 146.468 180.202C148.019 180.322 149.612 180.071 151.013 179.333L151.084 179.452C149.72 180.312 148.069 180.68 146.451 180.644C144.826 180.62 143.226 180.255 141.701 179.743C140.171 179.232 138.698 178.577 137.26 177.885C135.823 177.199 134.388 176.509 132.97 175.781C130.129 174.336 127.314 172.845 124.524 171.304C121.732 169.766 118.959 168.091 116.464 165.978C115.222 164.915 114.083 163.72 113.091 162.398C112.095 161.068 111.323 159.612 110.618 158.183C109.909 156.754 109.237 155.335 108.41 154.043C107.589 152.754 106.597 151.605 105.353 150.808C104.115 150.003 102.656 149.542 101.139 149.264C99.6224 148.978 98.0437 148.86 96.4544 148.692C94.8671 148.521 93.2393 148.322 91.6744 147.805C90.8831 147.569 90.1355 147.219 89.4038 146.858C88.6895 146.458 87.9813 146.041 87.3406 145.536C86.0319 144.56 84.9106 143.349 83.983 142.02C83.0783 140.674 82.3772 139.186 81.9474 137.633C81.7319 136.88 81.4787 136.14 80.8622 135.737C80.5619 135.529 80.2045 135.374 79.8402 135.225L78.7378 134.762C77.2736 134.137 75.8111 133.51 74.3624 132.851C71.461 131.54 68.5832 130.173 65.7421 128.728C62.9066 127.273 60.1116 125.733 57.3714 124.09C56.6846 123.681 56.0105 123.257 55.3382 122.83C54.6641 122.406 53.9834 121.978 53.3225 121.501C52.0105 120.553 50.7048 119.444 49.8165 117.964C48.9291 116.498 48.5045 114.831 48.3073 113.214C48.2048 112.4 48.1576 111.588 48.1351 110.787C48.1042 109.984 48.1279 109.17 48.0716 108.427C48.0153 107.683 47.8681 106.97 47.4821 106.452C47.118 105.934 46.4727 105.618 45.7488 105.378C44.2555 104.901 42.7238 104.446 41.2061 104.012C39.6808 103.591 38.1475 103.191 36.5996 102.839C35.0536 102.484 33.4938 102.19 31.9321 101.9L31.9471 101.761Z" fill="#82301D"/>
<path d="M40.885 132.784C43.2421 131.367 45.691 130.015 48.3943 129.274C49.7388 128.898 51.1475 128.71 52.5651 128.739C52.9259 128.753 53.2903 128.79 53.6577 128.889C54.0218 128.987 54.3987 129.152 54.7079 129.435C55.0242 129.713 55.2232 130.096 55.3431 130.452C55.4696 130.811 55.5276 131.161 55.6231 131.476C56.2885 134.062 57.8911 136.361 59.9733 138.01C62.0542 139.653 64.6373 140.69 67.2672 140.752L67.6298 140.762L67.767 141.109C67.9581 141.597 67.9398 142.154 67.8139 142.597C67.6909 143.051 67.4964 143.432 67.3118 143.79C66.9335 144.49 66.5446 145.141 66.4885 145.711C66.4668 145.989 66.5211 146.233 66.6621 146.462C66.8012 146.694 67.0372 146.908 67.3167 147.1C67.5993 147.293 67.9138 147.462 68.2599 147.636C68.5976 147.809 68.9442 147.974 69.2894 148.135C72.0609 149.423 75.0119 150.242 78.0512 150.684C79.5773 150.923 81.1315 151.114 82.6828 151.438C83.4601 151.6 84.2354 151.796 84.9992 152.042C85.7664 152.29 86.5095 152.602 87.2324 152.942C90.1189 154.331 92.5797 156.285 95.2535 157.772C95.9204 158.148 96.6047 158.487 97.2981 158.788C98.0035 159.082 98.6952 159.326 99.4574 159.545C99.8354 159.663 100.223 159.787 100.609 159.975C100.988 160.159 101.369 160.414 101.657 160.78C101.955 161.142 102.102 161.6 102.178 161.995C102.258 162.397 102.294 162.777 102.395 163.113C102.583 163.794 103.009 164.399 103.547 164.901C104.087 165.407 104.728 165.821 105.395 166.197C106.745 166.921 108.162 167.605 109.541 168.31L117.892 172.472L126.273 176.574L127.124 176.991L126.176 177.042C124.241 177.143 122.315 176.785 120.496 176.182C118.674 175.576 116.952 174.73 115.272 173.842C111.923 172.051 108.668 170.107 105.063 169.144C103.262 168.637 101.413 168.267 99.5608 167.796C97.7116 167.335 95.848 166.78 94.0854 165.914C92.3177 165.049 90.7392 163.834 89.3572 162.482C87.9721 161.127 86.742 159.654 85.5296 158.196L86.6635 157.628C86.8451 158.357 87.3819 158.996 88.0733 159.526C88.7576 160.059 89.577 160.502 90.4046 160.976C92.0486 161.912 93.7001 162.835 95.3605 163.75C98.6786 165.571 102.021 167.349 105.379 169.092C108.746 170.828 112.127 172.516 115.531 174.182C117.236 175.019 118.96 175.876 120.603 176.92C121.423 177.436 122.225 178.007 122.977 178.619C123.73 179.228 124.446 179.866 125.156 180.497C125.863 181.127 126.562 181.756 127.283 182.346C127.639 182.646 128.009 182.921 128.386 183.19C128.766 183.457 129.125 183.751 129.524 183.99C131.061 185.029 132.729 185.879 134.437 186.645C136.149 187.403 137.908 188.064 139.7 188.647C141.489 189.242 143.299 189.793 145.114 190.334C146.93 190.876 148.751 191.424 150.561 192.019L151.915 192.475L153.259 192.961C153.704 193.122 154.161 193.291 154.611 193.525C155.057 193.751 155.486 194.082 155.805 194.491C156.442 195.309 156.701 196.257 157.113 197.075C157.529 197.892 158.09 198.641 158.761 199.288C160.1 200.594 161.751 201.556 163.391 202.499L163.325 202.621C161.645 201.755 159.936 200.864 158.504 199.56C157.787 198.917 157.162 198.153 156.686 197.297C156.222 196.44 155.921 195.529 155.348 194.86C154.798 194.192 153.929 193.889 153.033 193.593L151.689 193.151L150.333 192.736C148.523 192.194 146.697 191.699 144.867 191.206C141.208 190.216 137.517 189.207 133.984 187.692C132.218 186.937 130.478 186.084 128.856 185.026C128.437 184.784 128.057 184.482 127.654 184.211C127.254 183.936 126.859 183.652 126.485 183.345C125.726 182.747 125.005 182.118 124.287 181.5C122.851 180.255 121.441 179.072 119.866 178.106C118.295 177.126 116.612 176.302 114.909 175.483C111.48 173.855 108.079 172.155 104.708 170.404C101.334 168.659 97.9913 166.851 94.6808 164.987C93.0247 164.057 91.376 163.114 89.733 162.161C88.9241 161.685 88.0639 161.224 87.2547 160.583C86.8553 160.261 86.463 159.905 86.133 159.463C85.8043 159.026 85.5361 158.507 85.4031 157.949L84.7265 155.157L86.5403 157.384C87.7355 158.849 88.9233 160.298 90.2374 161.603C91.5464 162.909 92.9842 164.06 94.6128 164.888C96.241 165.724 98.0166 166.289 99.8326 166.77C101.647 167.254 103.505 167.668 105.336 168.235C107.177 168.786 108.957 169.576 110.641 170.466C112.33 171.354 113.958 172.333 115.605 173.249C117.252 174.166 118.926 175.028 120.687 175.655C122.442 176.287 124.299 176.652 126.157 176.564L126.062 177.029L117.713 172.863L109.336 168.755C107.935 168.067 106.541 167.418 105.134 166.701C104.436 166.333 103.75 165.915 103.135 165.374C102.527 164.836 102 164.142 101.75 163.321C101.503 162.503 101.52 161.723 101.09 161.259C100.681 160.767 99.9703 160.526 99.2406 160.325C98.5003 160.136 97.7131 159.886 96.9788 159.596C96.2398 159.299 95.5201 158.962 94.8224 158.594C92.0285 157.119 89.5138 155.251 86.7556 153.993C84.0294 152.679 80.9629 152.382 77.8697 151.914C74.7508 151.483 71.6516 150.582 68.7896 149.233C68.4314 149.065 68.0737 148.889 67.7229 148.708C67.3736 148.532 67.002 148.335 66.6437 148.085C66.2886 147.837 65.9273 147.524 65.6592 147.088C65.3892 146.654 65.2744 146.103 65.3278 145.605C65.3845 145.109 65.5596 144.685 65.7438 144.306C65.928 143.927 66.1334 143.586 66.3146 143.257C66.6802 142.601 66.926 141.981 66.7391 141.509L67.2357 141.865C64.3397 141.753 61.5574 140.589 59.3749 138.761C57.1868 136.943 55.5391 134.444 54.8954 131.663C54.73 130.973 54.6463 130.322 54.2377 129.956C53.8385 129.574 53.1859 129.436 52.5343 129.393C51.1989 129.312 49.8392 129.437 48.5202 129.755C47.1984 130.062 45.909 130.531 44.655 131.082C43.4011 131.632 42.1747 132.254 40.9585 132.905L40.885 132.784Z" fill="#82301D"/>
</g>
<path d="M84.0985 160.403L52.4608 142.137C42.5362 136.407 36.5813 125.731 36.9191 114.275L37.9155 80.6953C38.2253 70.2115 43.7394 60.6607 52.6637 55.1506L81.2515 37.4965C91.0035 31.476 103.224 31.293 113.152 37.0249L144.789 55.2909C154.714 61.0209 160.669 71.6974 160.331 83.1532L159.333 116.736C159.023 127.22 153.509 136.771 144.585 142.281L115.999 159.932C106.25 165.954 94.0264 166.135 84.0985 160.403ZM111.771 39.4091C102.724 34.1858 91.5844 34.3513 82.6983 39.8402L54.1139 57.4962C45.9823 62.5191 40.958 71.2215 40.6738 80.7751L39.6755 114.358C39.365 124.798 44.7915 134.528 53.8384 139.751L85.4761 158.017C94.5198 163.238 105.663 163.075 114.549 157.586L143.133 139.93C151.265 134.907 156.289 126.205 156.573 116.651L157.571 83.0682C157.882 72.6283 152.456 62.8984 143.409 57.6751L111.771 39.4091Z" fill="#49261B"/>
<path d="M84.3659 158.501L51.8142 139.708C41.8896 133.978 35.9347 123.301 36.2725 111.846L37.2708 78.2626C37.5806 67.7789 43.0947 58.2281 52.019 52.718L80.6035 35.062C90.3556 29.0415 102.576 28.8585 112.504 34.5904L145.055 53.3841C154.98 59.1141 160.935 69.7905 160.597 81.2463L159.599 114.829C159.289 125.313 153.775 134.864 144.851 140.374L116.266 158.03C106.514 164.05 94.2905 164.231 84.3659 158.501ZM111.124 36.9797C102.077 31.7565 90.9378 31.922 82.0517 37.4108L53.4673 55.0668C45.3357 60.0897 40.3114 68.7921 40.0272 78.3457L39.0289 111.929C38.7184 122.369 44.1449 132.098 53.1918 137.322L85.7435 156.115C94.7904 161.339 105.93 161.173 114.816 155.684L143.4 138.028C151.532 133.005 156.556 124.303 156.84 114.749L157.839 81.1665C158.149 70.7265 152.723 60.9967 143.676 55.7734L111.124 36.9797Z" fill="url(#paint0_linear_1_1133)"/>
<path fill-rule="evenodd" clip-rule="evenodd" d="M150.151 102.087C135.228 97.0767 117.669 93.2424 98.8773 93.2424C80.0829 93.2424 62.5222 97.0776 47.5988 102.089C60.5235 93.8945 78.7189 85.4642 98.8761 85.4642C119.032 85.4642 137.226 93.8934 150.151 102.087Z" fill="#E49A19"/>
<path fill-rule="evenodd" clip-rule="evenodd" d="M129.078 108.279L98.8743 46.6169L68.6709 108.279C73.8485 107.101 79.233 106.161 84.7789 105.551L98.8725 76.7783L112.966 105.551C118.513 106.161 123.899 107.101 129.078 108.279Z" fill="#E49A19"/>
<path d="M54.0113 129.968H50.3799L54.4712 117.573H59.0709L63.1622 129.968H59.5309L56.8195 120.986H56.7227L54.0113 129.968ZM53.3334 125.077H60.1603V127.595H53.3334V125.077Z" fill="white"/>
<path d="M67.7453 117.573V129.968H64.4044V117.573H67.7453Z" fill="white"/>
<path d="M69.4475 133.454V120.671H72.7641V122.293H72.8367C72.9578 121.979 73.1353 121.69 73.3693 121.428C73.6033 121.162 73.8938 120.95 74.2408 120.792C74.5878 120.631 74.9913 120.55 75.4513 120.55C76.0646 120.55 76.6476 120.714 77.2004 121.04C77.7572 121.367 78.2091 121.882 78.5561 122.584C78.9071 123.286 79.0826 124.198 79.0826 125.319C79.0826 126.393 78.9152 127.282 78.5803 127.988C78.2494 128.695 77.8056 129.221 77.2488 129.568C76.696 129.915 76.0888 130.089 75.4271 130.089C74.9913 130.089 74.6019 130.018 74.259 129.877C73.9201 129.731 73.6296 129.536 73.3875 129.29C73.1494 129.039 72.9658 128.757 72.8367 128.442H72.7883V133.454H69.4475ZM72.7157 125.319C72.7157 125.771 72.7742 126.163 72.8912 126.494C73.0122 126.82 73.1817 127.075 73.3996 127.256C73.6215 127.434 73.8858 127.522 74.1924 127.522C74.4991 127.522 74.7593 127.436 74.9732 127.262C75.191 127.085 75.3565 126.832 75.4694 126.506C75.5864 126.175 75.6449 125.779 75.6449 125.319C75.6449 124.859 75.5864 124.466 75.4694 124.139C75.3565 123.808 75.191 123.556 74.9732 123.383C74.7593 123.205 74.4991 123.116 74.1924 123.116C73.8858 123.116 73.6215 123.205 73.3996 123.383C73.1817 123.556 73.0122 123.808 72.8912 124.139C72.7742 124.466 72.7157 124.859 72.7157 125.319Z" fill="white"/>
<path d="M83.823 124.738V129.968H80.4822V117.573H83.702V122.439H83.7988C84.0086 121.845 84.3576 121.383 84.8458 121.053C85.3341 120.718 85.9211 120.55 86.6071 120.55C87.2647 120.55 87.8357 120.7 88.3198 120.998C88.808 121.297 89.1853 121.708 89.4516 122.233C89.7219 122.757 89.8551 123.358 89.851 124.036V129.968H86.5102V124.738C86.5142 124.278 86.3993 123.917 86.1652 123.655C85.9352 123.393 85.6064 123.262 85.1787 123.262C84.9084 123.262 84.6703 123.322 84.4646 123.443C84.2628 123.56 84.1055 123.73 83.9925 123.952C83.8835 124.169 83.8271 124.432 83.823 124.738Z" fill="white"/>
<path d="M94.0906 130.113C93.4975 130.113 92.973 130.016 92.5171 129.822C92.0652 129.625 91.7101 129.326 91.4519 128.927C91.1936 128.527 91.0645 128.019 91.0645 127.401C91.0645 126.893 91.1513 126.459 91.3248 126.1C91.4983 125.737 91.7403 125.44 92.051 125.21C92.3617 124.98 92.7228 124.805 93.1344 124.684C93.55 124.563 93.9978 124.484 94.478 124.448C94.9985 124.408 95.4161 124.359 95.7308 124.303C96.0495 124.242 96.2795 124.159 96.4207 124.054C96.562 123.946 96.6326 123.802 96.6326 123.625V123.601C96.6326 123.358 96.5398 123.173 96.3542 123.044C96.1686 122.915 95.9305 122.85 95.64 122.85C95.3213 122.85 95.061 122.921 94.8593 123.062C94.6616 123.199 94.5425 123.411 94.5022 123.697H91.4277C91.468 123.133 91.6475 122.612 91.9663 122.136C92.2891 121.656 92.7591 121.272 93.3765 120.986C93.9938 120.695 94.7644 120.55 95.6884 120.55C96.3542 120.55 96.9513 120.629 97.4799 120.786C98.0084 120.94 98.4583 121.155 98.8295 121.434C99.2007 121.708 99.4832 122.031 99.6768 122.402C99.8745 122.769 99.9734 123.169 99.9734 123.601V129.968H96.8504V128.66H96.7778C96.5922 129.007 96.3663 129.288 96.1 129.501C95.8377 129.715 95.5371 129.871 95.1982 129.968C94.8633 130.064 94.4941 130.113 94.0906 130.113ZM95.18 128.007C95.4342 128.007 95.6723 127.954 95.8942 127.849C96.1201 127.744 96.3037 127.593 96.445 127.395C96.5862 127.198 96.6568 126.958 96.6568 126.675V125.9C96.568 125.937 96.4732 125.971 96.3723 126.003C96.2755 126.036 96.1706 126.066 96.0576 126.094C95.9487 126.122 95.8317 126.149 95.7066 126.173C95.5855 126.197 95.4584 126.219 95.3253 126.239C95.0671 126.28 94.8552 126.346 94.6898 126.439C94.5284 126.528 94.4074 126.639 94.3267 126.772C94.25 126.901 94.2117 127.046 94.2117 127.208C94.2117 127.466 94.3025 127.664 94.484 127.801C94.6656 127.938 94.8976 128.007 95.18 128.007Z" fill="white"/>
<path d="M108.203 121.446C108.171 121.042 108.019 120.728 107.749 120.502C107.483 120.276 107.077 120.163 106.533 120.163C106.186 120.163 105.901 120.205 105.679 120.29C105.461 120.371 105.3 120.482 105.195 120.623C105.09 120.764 105.036 120.925 105.032 121.107C105.023 121.256 105.05 121.391 105.11 121.513C105.175 121.63 105.276 121.736 105.413 121.833C105.55 121.926 105.726 122.011 105.939 122.088C106.153 122.164 106.407 122.233 106.702 122.293L107.719 122.511C108.405 122.656 108.992 122.848 109.48 123.086C109.968 123.324 110.368 123.605 110.678 123.927C110.989 124.246 111.217 124.605 111.362 125.005C111.511 125.404 111.588 125.84 111.592 126.312C111.588 127.127 111.384 127.817 110.981 128.382C110.577 128.947 110 129.376 109.25 129.671C108.504 129.965 107.606 130.113 106.557 130.113C105.479 130.113 104.539 129.953 103.736 129.635C102.937 129.316 102.316 128.826 101.872 128.164C101.432 127.498 101.211 126.647 101.207 125.61H104.402C104.422 125.989 104.517 126.308 104.687 126.566C104.856 126.824 105.094 127.02 105.401 127.153C105.711 127.286 106.081 127.353 106.508 127.353C106.867 127.353 107.168 127.309 107.41 127.22C107.652 127.131 107.836 127.008 107.961 126.851C108.086 126.693 108.15 126.514 108.154 126.312C108.15 126.122 108.088 125.957 107.967 125.816C107.85 125.67 107.656 125.541 107.386 125.428C107.116 125.311 106.75 125.202 106.29 125.102L105.056 124.835C103.958 124.597 103.093 124.2 102.459 123.643C101.83 123.082 101.517 122.317 101.521 121.349C101.517 120.562 101.727 119.874 102.151 119.285C102.578 118.692 103.169 118.23 103.924 117.899C104.683 117.569 105.552 117.403 106.533 117.403C107.533 117.403 108.399 117.571 109.129 117.905C109.859 118.24 110.422 118.712 110.817 119.322C111.217 119.927 111.419 120.635 111.423 121.446H108.203Z" fill="white"/>
<path d="M114.567 129.968L112.243 120.671H115.584L116.649 126.336H116.721L117.908 120.671H121.152L122.386 126.288H122.459L123.476 120.671H126.817L124.492 129.968H120.885L119.578 124.98H119.481L118.174 129.968H114.567Z" fill="white"/>
<path d="M130.424 130.113C129.831 130.113 129.306 130.016 128.85 129.822C128.398 129.625 128.043 129.326 127.785 128.927C127.527 128.527 127.398 128.019 127.398 127.401C127.398 126.893 127.484 126.459 127.658 126.1C127.831 125.737 128.073 125.44 128.384 125.21C128.695 124.98 129.056 124.805 129.467 124.684C129.883 124.563 130.331 124.484 130.811 124.448C131.332 124.408 131.749 124.359 132.064 124.303C132.383 124.242 132.613 124.159 132.754 124.054C132.895 123.946 132.966 123.802 132.966 123.625V123.601C132.966 123.358 132.873 123.173 132.687 123.044C132.502 122.915 132.264 122.85 131.973 122.85C131.654 122.85 131.394 122.921 131.192 123.062C130.995 123.199 130.876 123.411 130.835 123.697H127.761C127.801 123.133 127.981 122.612 128.299 122.136C128.622 121.656 129.092 121.272 129.71 120.986C130.327 120.695 131.097 120.55 132.021 120.55C132.687 120.55 133.284 120.629 133.813 120.786C134.341 120.94 134.791 121.155 135.163 121.434C135.534 121.708 135.816 122.031 136.01 122.402C136.208 122.769 136.306 123.169 136.306 123.601V129.968H133.183V128.66H133.111C132.925 129.007 132.699 129.288 132.433 129.501C132.171 129.715 131.87 129.871 131.531 129.968C131.196 130.064 130.827 130.113 130.424 130.113ZM131.513 128.007C131.767 128.007 132.005 127.954 132.227 127.849C132.453 127.744 132.637 127.593 132.778 127.395C132.919 127.198 132.99 126.958 132.99 126.675V125.9C132.901 125.937 132.806 125.971 132.705 126.003C132.609 126.036 132.504 126.066 132.391 126.094C132.282 126.122 132.165 126.149 132.04 126.173C131.919 126.197 131.791 126.219 131.658 126.239C131.4 126.28 131.188 126.346 131.023 126.439C130.861 126.528 130.74 126.639 130.66 126.772C130.583 126.901 130.545 127.046 130.545 127.208C130.545 127.466 130.636 127.664 130.817 127.801C130.999 127.938 131.231 128.007 131.513 128.007Z" fill="white"/>
<path d="M137.903 133.454V120.671H141.219V122.293H141.292C141.413 121.979 141.591 121.69 141.825 121.428C142.059 121.162 142.349 120.95 142.696 120.792C143.043 120.631 143.447 120.55 143.907 120.55C144.52 120.55 145.103 120.714 145.656 121.04C146.212 121.367 146.664 121.882 147.011 122.584C147.362 123.286 147.538 124.198 147.538 125.319C147.538 126.393 147.37 127.282 147.036 127.988C146.705 128.695 146.261 129.221 145.704 129.568C145.151 129.915 144.544 130.089 143.882 130.089C143.447 130.089 143.057 130.018 142.714 129.877C142.375 129.731 142.085 129.536 141.843 129.29C141.605 129.039 141.421 128.757 141.292 128.442H141.244V133.454H137.903ZM141.171 125.319C141.171 125.771 141.229 126.163 141.346 126.494C141.467 126.82 141.637 127.075 141.855 127.256C142.077 127.434 142.341 127.522 142.648 127.522C142.954 127.522 143.215 127.436 143.428 127.262C143.646 127.085 143.812 126.832 143.925 126.506C144.042 126.175 144.1 125.779 144.1 125.319C144.1 124.859 144.042 124.466 143.925 124.139C143.812 123.808 143.646 123.556 143.428 123.383C143.215 123.205 142.954 123.116 142.648 123.116C142.341 123.116 142.077 123.205 141.855 123.383C141.637 123.556 141.467 123.808 141.346 124.139C141.229 124.466 141.171 124.859 141.171 125.319Z" fill="white"/>
<defs>
<linearGradient id="paint0_linear_1_1133" x1="128.78" y1="43.9872" x2="68.09" y2="149.105" gradientUnits="userSpaceOnUse">
<stop stop-color="#F6BF23"/>
<stop offset="1" stop-color="#FFAC30"/>
</linearGradient>
</defs>
</svg>
