<svg width="96" height="56" viewBox="0 0 96 56" fill="none" xmlns="http://www.w3.org/2000/svg">
<path d="M58.4 51.6738H1V54.9738H58.4V51.6738Z" fill="#916153" stroke="#0C0502" stroke-miterlimit="10"/>
<path d="M64.3 17.8741H47V47.0741H64.3V17.8741Z" fill="#936857" stroke="#0C0703" stroke-miterlimit="10"/>
<path d="M55.3 46.0741H47V18.8741H55.3C57.7 18.8741 59.6 20.7741 59.6 23.1741V41.7741C59.5 44.1741 57.6 46.0741 55.3 46.0741Z" fill="#FCFCFC" stroke="#0C0703" stroke-miterlimit="10"/>
<path d="M46.4 13.3741H11.5V51.6741H46.4V13.3741Z" fill="#FFAC5C" stroke="#0C0501" stroke-miterlimit="10"/>
<path d="M18.1992 25.6739V41.2739C18.1992 42.5739 19.5992 43.6739 21.3992 43.6739C23.0992 43.6739 24.5992 42.5739 24.5992 41.2739V25.7739" stroke="#070301" stroke-miterlimit="10"/>
<path d="M20.7992 43.5739H21.9992C23.3992 43.5739 24.5992 42.3739 24.5992 40.9739V23.7739C24.5992 22.3739 23.3992 21.1739 21.9992 21.1739H20.7992C19.3992 21.1739 18.1992 22.3739 18.1992 23.7739V40.9739C18.1992 42.4739 19.3992 43.5739 20.7992 43.5739Z" fill="#FF853D"/>
<path d="M35.9008 43.5739H37.1008C38.5008 43.5739 39.7008 42.3739 39.7008 40.9739V23.7739C39.7008 22.3739 38.5008 21.1739 37.1008 21.1739H35.9008C34.5008 21.1739 33.3008 22.3739 33.3008 23.7739V40.9739C33.4008 42.4739 34.5008 43.5739 35.9008 43.5739Z" fill="#FF853D" stroke="#070301" stroke-miterlimit="10"/>
<path d="M39.8009 3.87409C40.6009 4.47409 41.8009 4.8741 43.1009 4.9741C48.3009 5.4741 60.8009 7.57409 46.6009 16.8741C46.6009 16.8741 46.7009 18.2741 44.0009 17.7741C42.2009 17.4741 40.1009 17.5741 38.7009 18.3741C36.4009 19.5741 32.4009 21.0741 27.6009 20.3741C24.1009 19.8741 20.6009 21.2741 20.6009 23.4741V23.7741C20.6009 23.7741 14.9009 26.8741 14.2009 22.2741V19.1741C14.2009 17.8741 12.8009 16.6741 10.7009 16.2741C7.90094 15.5741 4.40095 13.8741 4.80095 9.57407C5.30095 4.47407 11.001 4.27407 14.301 4.57407C15.801 4.77407 17.4009 4.5741 18.6009 3.9741C22.7009 1.9741 32.3009 -1.52591 39.8009 3.87409Z" fill="#FEE6D0" stroke="#070301" stroke-miterlimit="10"/>
<path d="M39.8007 6.27441C39.8007 6.27441 35.1007 7.07442 35.5007 8.87442" stroke="#0C0601" stroke-miterlimit="10"/>
<path d="M29.8999 4.57422C29.8999 4.57422 18.3999 6.87423 19.4999 12.2742" stroke="#0C0601" stroke-miterlimit="10"/>
<path d="M12.5002 6.57422C12.5002 6.57422 8.00017 7.97423 8.40017 11.2742" stroke="#0C0601" stroke-miterlimit="10"/>
<path d="M19.1024 14.8742H19.9023C20.0023 14.8742 20.1024 14.7742 20.1024 14.6742V13.7742C20.1024 13.6742 20.0023 13.5742 19.9023 13.5742H19.1024C19.0024 13.5742 18.9023 13.6742 18.9023 13.7742V14.6742C18.9023 14.7742 19.0024 14.8742 19.1024 14.8742Z" fill="#0C0601"/>
<path d="M60.8993 20.474L62.7993 18.874H67.4993C67.4993 18.874 74.8993 24.974 76.6993 24.774C78.4993 24.574 78.4993 24.574 78.4993 24.574L79.0993 41.974L75.1993 42.774H53.0993C53.0993 42.774 49.4993 40.574 53.7993 39.974L60.3993 39.874V37.474H50.8993C50.8993 37.474 48.9993 35.074 52.6993 34.174L60.1993 34.074L59.9993 32.774L50.4993 32.874C50.4993 32.874 47.8993 30.674 50.4993 29.574L60.4993 29.674L60.3993 27.674L51.3993 27.874C51.3993 27.874 48.4993 25.074 52.6993 24.074L64.6993 23.974L64.1993 22.774C64.0993 23.074 58.9993 22.074 60.8993 20.474Z" fill="#FDCABE" stroke="#070202" stroke-miterlimit="10"/>
<path d="M85 43.5742H79.8C79.4 43.5742 79 43.1743 79 42.7743V24.3743C79 23.9743 79.4 23.5742 79.8 23.5742H85C85.4 23.5742 85.8 23.9743 85.8 24.3743V42.7743C85.8 43.1743 85.5 43.5742 85 43.5742Z" fill="#BD6B73" stroke="#0A0303" stroke-miterlimit="10"/>
<path d="M82.3984 23.5742V33.9743" stroke="#070202" stroke-miterlimit="10"/>
<path d="M82.5992 38.6744H82.2992C81.9992 38.6744 81.6992 38.3744 81.6992 38.0744V37.3745C81.6992 37.0745 81.9992 36.7744 82.2992 36.7744H82.5992C82.8992 36.7744 83.1992 37.0745 83.1992 37.3745V38.0744C83.1992 38.4744 82.8992 38.6744 82.5992 38.6744Z" stroke="#070202" stroke-miterlimit="10"/>
<path d="M94.7008 42.674H88.8008C87.2008 42.674 85.8008 41.374 85.8008 39.674V27.374C85.8008 25.774 87.1008 24.374 88.8008 24.374H94.7008V42.674Z" fill="#D8334B" stroke="#0C0202" stroke-miterlimit="10"/>
</svg>
