<svg width="82" height="63" viewBox="0 0 82 63" fill="none" xmlns="http://www.w3.org/2000/svg">
<path d="M7.45403 56.5195L81.254 56.5195L81.254 7.31954L7.45403 7.31954L7.45403 56.5195Z" fill="#EFEFEF" stroke="#0F0702" stroke-miterlimit="10"/>
<path d="M71.7501 56.5685H81.2586V48.543" fill="#898989"/>
<path d="M71.7501 56.5685H81.2586V48.543" stroke="#0C0101" stroke-miterlimit="10"/>
<path d="M81.2586 48.543H71.7501V56.5685" fill="#B7B7B7"/>
<path d="M81.2586 48.543H71.7501V56.5685" stroke="#0F0101" stroke-miterlimit="10"/>
<path d="M7.45403 15.2979L81.254 15.2979L81.254 7.35957L7.45403 7.35957L7.45403 15.2979Z" fill="#BA9177" stroke="#0F0702" stroke-miterlimit="10"/>
<path d="M68.0846 13.6489H68.4336C69.5676 13.6489 70.4399 12.7766 70.4399 11.6426V3.0064C70.4399 1.87236 69.5676 1 68.4336 1H68.0846C66.9506 1 66.0782 1.87236 66.0782 3.0064V11.6426C66.0782 12.7766 66.9506 13.6489 68.0846 13.6489Z" fill="#ACB0B1" stroke="#0C0602" stroke-miterlimit="10"/>
<path d="M42.1761 13.6489H42.525C43.6591 13.6489 44.5314 12.7766 44.5314 11.6426V3.0064C44.5314 1.87236 43.6591 1 42.525 1H42.1761C41.042 1 40.1697 1.87236 40.1697 3.0064V11.6426C40.0825 12.7766 41.042 13.6489 42.1761 13.6489Z" fill="#ACB0B1" stroke="#0C0602" stroke-miterlimit="10"/>
<path d="M19.5807 13.6489H19.9297C21.0637 13.6489 21.936 12.7766 21.936 11.6426V3.0064C21.936 1.87236 21.0637 1 19.9297 1H19.5807C18.4467 1 17.5743 1.87236 17.5743 3.0064V11.6426C17.5743 12.7766 18.5339 13.6489 19.5807 13.6489Z" fill="#ACB0B1" stroke="#0C0602" stroke-miterlimit="10"/>
<path d="M64.3912 31.9873L73.8125 31.9873L73.8125 17.5937L64.3912 17.5937L64.3912 31.9873Z" fill="#FCCABE" stroke="#020100" stroke-miterlimit="10"/>
<path d="M45.5631 31.9873L54.9844 31.9873L54.9844 17.5937L45.5631 17.5937L45.5631 31.9873Z" fill="#FCCABE" stroke="#020100" stroke-miterlimit="10"/>
<path d="M54.9772 46.334L64.3984 46.334L64.3984 31.9404L54.9772 31.9404L54.9772 46.334Z" fill="#FCCABE" stroke="#020100" stroke-miterlimit="10"/>
<path d="M54.9772 31.9873L64.3984 31.9873L64.3984 17.5937L54.9772 17.5937L54.9772 31.9873Z" fill="#F6A38A" stroke="#0C0602" stroke-miterlimit="10"/>
<path d="M64.3912 46.334L73.8125 46.334L73.8125 31.9404L64.3912 31.9404L64.3912 46.334Z" fill="#F6A38A" stroke="#0C0602" stroke-miterlimit="10"/>
<path d="M45.5631 46.334L54.9844 46.334L54.9844 31.9404L45.5631 31.9404L45.5631 46.334Z" fill="#F6A38A" stroke="#0C0602" stroke-miterlimit="10"/>
<path d="M22.2996 46.4014L45.5039 46.4014L45.5039 17.6141L22.2996 17.6141L22.2996 46.4014Z" fill="#FBA88F" stroke="#050201" stroke-miterlimit="10"/>
<path d="M55.5213 58.4873H1V62.5001H55.5213V58.4873Z" fill="#916153" stroke="#0C0502" stroke-miterlimit="10"/>
<path d="M51.9395 34.3232H42.3438V55.1722H51.9395V34.3232Z" fill="#936857" stroke="#0C0703" stroke-miterlimit="10"/>
<path d="M45.4855 50.4616H43.3047V40.4297H45.4855C46.2706 40.4297 46.8813 41.0403 46.8813 41.8254V49.0659C46.8813 49.851 46.2706 50.4616 45.4855 50.4616Z" fill="#FCFCFC" stroke="#0C0703" stroke-miterlimit="10"/>
<path d="M40.9511 31.0957H9.28516V58.4872H40.9511V31.0957Z" fill="#FFAC5C" stroke="#0C0501" stroke-miterlimit="10"/>
<path d="M17.8379 52.5563H18.1869C19.2337 52.5563 20.0188 51.684 20.0188 50.7244V38.5116C20.0188 37.4648 19.1464 36.6797 18.1869 36.6797H17.8379C16.7911 36.6797 16.006 37.5521 16.006 38.5116V50.7244C15.9188 51.7712 16.7911 52.5563 17.8379 52.5563Z" fill="#FF853D"/>
<path d="M15.918 40.4306V51.5093C15.918 52.4689 16.7903 53.254 17.9244 53.254C19.0584 53.254 19.9307 52.4689 19.9307 51.5093V40.4306" stroke="#070301" stroke-miterlimit="10"/>
<path d="M32.1426 52.9049H32.4916C33.5384 52.9049 34.3235 52.0326 34.3235 51.073V38.8602C34.3235 37.8134 33.4511 37.0284 32.4916 37.0284H32.1426C31.0958 37.0284 30.3107 37.9007 30.3107 38.8602V51.073C30.2235 52.0326 31.0958 52.9049 32.1426 52.9049Z" fill="#FF853D" stroke="#070301" stroke-miterlimit="10"/>
<path d="M35.0191 18.6215C35.6297 19.2322 36.502 19.5811 37.5488 19.6683C41.5616 20.1045 51.1574 22.1981 40.2531 31.4449C40.2531 31.4449 40.3403 32.8407 38.2467 32.3173C36.851 31.9683 35.2808 32.1428 34.1467 32.9279C32.3148 34.1492 29.3489 35.6322 25.5978 34.9343C22.8935 34.4109 20.2765 35.8939 20.2765 37.9875V38.2492C20.2765 38.2492 15.8276 41.3024 15.3914 36.7662V33.713C15.3914 32.4045 14.2574 31.2705 12.6871 30.8343C10.5063 30.1364 7.88928 28.479 8.15098 24.2045C8.49992 19.1449 12.9488 18.9705 15.4786 19.3194C16.6127 19.4939 17.834 19.3194 18.7935 18.7088C21.8467 16.7024 29.1744 13.3003 35.0191 18.6215Z" fill="#FEE6D0" stroke="#070301" stroke-miterlimit="10"/>
<path d="M34.9313 21.0635C34.9313 21.0635 31.3547 21.8486 31.7037 23.5933" stroke="#0C0601" stroke-miterlimit="10"/>
<path d="M27.4305 19.3193C27.4305 19.3193 18.6199 21.5874 19.405 26.9959" stroke="#0C0601" stroke-miterlimit="10"/>
<path d="M13.997 21.3252C13.997 21.3252 10.5076 22.7209 10.8566 25.9486" stroke="#0C0601" stroke-miterlimit="10"/>
<path d="M19.0534 29.526H19.664C19.7513 29.526 19.8385 29.4387 19.8385 29.3515V28.4791C19.8385 28.3919 19.7513 28.3047 19.664 28.3047H19.0534C18.9662 28.3047 18.8789 28.3919 18.8789 28.4791V29.3515C18.8789 29.4387 18.9662 29.526 19.0534 29.526Z" fill="#0C0601"/>
</svg>
