<svg id="Capa_1" enable-background="new 0 0 512 512" height="512" viewBox="0 0 512 512" width="512" xmlns="http://www.w3.org/2000/svg"><g><path d="m477.25 0h-377c-8.284 0-15 6.716-15 15v49h-20.5c-24.813 0-45 20.187-45 45s20.187 45 45 45h20.5v57h-20.5c-24.813 0-45 20.187-45 45s20.187 45 45 45h20.5v57h-20.5c-24.813 0-45 20.187-45 45s20.187 45 45 45h20.5v49c0 8.284 6.716 15 15 15h377c8.284 0 15-6.716 15-15v-482c0-8.284-6.716-15-15-15zm-412.5 124c-8.271 0-15-6.729-15-15s6.729-15 15-15h20.5v30zm0 147c-8.271 0-15-6.729-15-15s6.729-15 15-15h20.5v30zm0 147c-8.271 0-15-6.729-15-15s6.729-15 15-15h20.5v30zm397.5 64h-347v-94h15c8.284 0 15-6.716 15-15s-6.716-15-15-15h-15v-117h15c8.284 0 15-6.716 15-15s-6.716-15-15-15h-15v-117h15c8.284 0 15-6.716 15-15s-6.716-15-15-15h-15v-34h347z"/><path d="m238.418 248.993c-1.181 5.533.206 11.26 3.807 15.711 3.75 4.635 9.385 7.293 15.462 7.293h92.121c6.073 0 11.706-2.655 15.456-7.285 3.601-4.446 4.993-10.169 3.817-15.702-5.766-27.12-4.515-51.054 4.057-77.602 3.57-11.058 5.233-21.835 5.233-33.916v-62.492c0-8.284-6.716-15-15-15h-119.241c-8.284 0-15 6.716-15 15v62.273c0 12.091 1.667 22.878 5.245 33.95 8.599 26.606 9.846 50.591 4.043 77.77zm98.957-6.996h-67.245c3.901-27.17 1.546-52.908-7.21-79.999-1.307-4.044-2.252-7.967-2.872-11.997h87.434c-.618 4.099-1.568 8.083-2.894 12.19-8.726 27.027-11.082 52.704-7.213 79.806zm10.995-151.997v30.001h-89.24v-30.001z"/><path d="m190.25 332.001h.5c8.284 0 15-6.716 15-15s-6.716-15-15-15h-.5c-8.284 0-15 6.716-15 15s6.716 15 15 15z"/><path d="m235.25 317c0 8.284 6.716 15 15 15h166.999c8.284 0 15-6.716 15-15s-6.716-15-15-15h-166.999c-8.284 0-15 6.716-15 15z"/><path d="m190.25 392.001h.5c8.284 0 15-6.716 15-15s-6.716-15-15-15h-.5c-8.284 0-15 6.716-15 15s6.716 15 15 15z"/><path d="m417.249 362h-166.999c-8.284 0-15 6.716-15 15s6.716 15 15 15h166.999c8.284 0 15-6.716 15-15s-6.716-15-15-15z"/><path d="m190.25 452.001h.5c8.284 0 15-6.716 15-15s-6.716-15-15-15h-.5c-8.284 0-15 6.716-15 15s6.716 15 15 15z"/><path d="m417.249 422h-166.999c-8.284 0-15 6.716-15 15s6.716 15 15 15h166.999c8.284 0 15-6.716 15-15s-6.716-15-15-15z"/></g></svg>