<svg width="37" height="34" viewBox="0 0 37 34" fill="none" xmlns="http://www.w3.org/2000/svg">
<path d="M29.5107 0.243256L35.3972 7.55289C35.5585 7.7533 35.6576 7.99573 35.6826 8.25081L35.6889 8.37979V24.6202C35.6889 26.979 33.7767 28.8978 31.4078 28.8978C29.104 28.8978 27.2311 27.0815 27.1312 24.8101L27.1267 24.6202V11.2015H24.3378V31.1055L36.3783 31.1064V33.7568H0.702637V31.1064H3.82426V1.95272C3.82427 1.6233 3.94816 1.3057 4.17176 1.06184C4.39535 0.817984 4.70263 0.665363 5.03366 0.633739L5.1621 0.627555H22.9999C23.3325 0.627571 23.6531 0.750283 23.8993 0.971762C24.1455 1.19324 24.2996 1.49761 24.3315 1.82551L24.3378 1.95272V8.55118H28.4646C28.7971 8.5512 29.1178 8.67391 29.364 8.89539C29.6101 9.11687 29.7642 9.42123 29.7961 9.74913L29.8024 9.87635V24.6202C29.8024 25.5222 30.5248 26.2475 31.4078 26.2475C32.2462 26.2475 32.941 25.5937 33.0079 24.7545L33.0132 24.6202V8.84272L27.4193 1.8953L29.5107 0.243256ZM17.6486 9.02029H10.5134C10.2769 9.02029 10.05 9.11337 9.88278 9.27904C9.71552 9.44472 9.62155 9.66943 9.62155 9.90374V16.9713C9.62155 17.2056 9.71552 17.4303 9.88278 17.596C10.05 17.7617 10.2769 17.8547 10.5134 17.8547H17.6486C17.8851 17.8547 18.112 17.7617 18.2792 17.596C18.4465 17.4303 18.5405 17.2056 18.5405 16.9713V9.90374C18.5405 9.66943 18.4465 9.44472 18.2792 9.27904C18.112 9.11337 17.8851 9.02029 17.6486 9.02029Z" fill="#D68B63"/>
</svg>
