<svg width="46" height="37" viewBox="0 0 46 37" fill="none" xmlns="http://www.w3.org/2000/svg">
<path d="M34.7875 28.4403C34.7875 26.5075 34.2125 24.5746 33.0625 23.194C31.05 20.9851 28.75 19.8806 25.875 19.8806C24.15 19.8806 22.425 19.8806 20.7 19.8806C18.6875 19.8806 16.9625 20.4328 15.2375 21.5373C13.225 22.9179 12.075 24.8507 11.7875 27.0597C11.5 29.5448 11.7875 32.306 11.5 35.0672C11.7875 35.0672 12.3625 35.3433 12.65 35.3433C16.1 36.1716 19.2625 37 22.7125 37C24.725 37 27.025 37 29.0375 36.7239C30.7625 36.4478 32.4875 35.8955 34.2125 35.3433C34.5 35.3433 34.5 35.0672 34.5 34.791C34.7875 32.5821 34.7875 30.3731 34.7875 28.4403Z" fill="#D68B63"/>
<path d="M16.1 19.3284C16.675 19.0522 16.9625 19.0522 17.5375 18.7761C15.8125 17.1194 14.95 15.4627 14.95 13.2537C12.9375 13.2537 10.925 13.2537 8.9125 13.2537C7.7625 13.2537 6.6125 13.5299 5.75 13.806C2.5875 14.9104 0 17.9478 0 21.2612C0 23.4701 0 25.6791 0 28.1642C0 28.4403 0 28.4403 0.2875 28.7164C2.5875 29.2687 4.8875 29.8209 7.1875 30.097C8.05 30.097 9.2 30.3731 10.0625 30.3731C10.0625 29.8209 10.0625 29.2687 10.0625 28.7164C10.0625 27.8881 10.0625 27.0597 10.35 26.2313C11.2125 22.9179 13.225 20.709 16.1 19.3284Z" fill="#D68B63"/>
<path d="M46 21.8134C46 20.709 45.7125 19.3284 45.1375 18.2239C43.4125 14.9104 40.825 13.2537 37.0875 13.2537C31.625 13.2537 37.0875 13.2537 31.625 13.2537C31.625 15.4627 30.7625 17.3955 29.0375 18.7761C29.325 18.7761 29.6125 19.0522 29.6125 19.0522C31.05 19.6045 32.4875 20.4328 33.6375 21.5373C35.3625 23.4702 36.225 25.6791 36.225 28.1642C36.225 28.7164 36.225 29.5448 36.225 30.097C37.6625 29.8209 38.8125 29.8209 40.25 29.5448C41.975 29.2687 43.9875 28.7164 45.7125 27.8881C46 27.8881 46 27.6119 46 27.3358C46 25.9552 46 23.7463 46 21.8134Z" fill="#D68B63"/>
<path d="M23.2875 19.6045C27.025 19.6045 30.1875 16.5672 29.9 12.9776C29.9 9.38806 26.7375 6.62687 23.2875 6.62687C19.55 6.62687 16.3875 9.38806 16.3875 12.9776C16.675 16.5672 19.55 19.6045 23.2875 19.6045Z" fill="#D68B63"/>
<path d="M31.625 12.4254C32.4875 12.7015 33.35 12.9776 34.5 12.9776C38.2375 12.9776 41.4 9.9403 41.1125 6.35075C41.1125 2.76119 37.95 0 34.5 0C30.7625 0 27.6 2.76119 27.6 6.35075C29.9 7.45522 31.3375 9.66418 31.625 12.4254Z" fill="#D68B63"/>
<path d="M11.5 12.9776C12.65 12.9776 14.0875 12.7015 14.95 12.1493C15.2375 9.9403 16.3875 8.00746 18.1125 6.90299V6.62687C18.1125 3.03731 14.95 0.276119 11.5 0.276119C7.7625 0.276119 4.6 3.03731 4.6 6.62687C4.6 9.9403 7.7625 12.9776 11.5 12.9776Z" fill="#D68B63"/>
</svg>
