<svg width="36" height="34" viewBox="0 0 36 34" fill="none" xmlns="http://www.w3.org/2000/svg">
<path fill-rule="evenodd" clip-rule="evenodd" d="M35.2972 18.0206C35.2973 17.4147 35.1274 16.8213 34.8074 16.3098C34.586 15.9559 34.298 15.6497 33.96 15.4087C33.6219 15.1678 33.2404 14.9968 32.8373 14.9055C32.4341 14.8142 32.0171 14.8044 31.6102 14.8767C31.2033 14.949 30.8144 15.1019 30.4658 15.3267L17.9669 23.3835L5.53802 15.3411C5.06262 15.0336 4.51452 14.8614 3.95107 14.8425C3.38762 14.8237 2.82955 14.9589 2.33525 15.2341C1.84096 15.5092 1.42863 15.9141 1.14141 16.4064C0.854189 16.8988 0.702644 17.4604 0.702637 18.0325V28.9691C0.702637 30.2389 1.19965 31.4566 2.08434 32.3545C2.96904 33.2523 4.16894 33.7568 5.42008 33.7568H30.5798C31.8309 33.7568 33.0308 33.2523 33.9155 32.3545C34.8002 31.4566 35.2972 30.2389 35.2972 28.9691V18.0206ZM29.1981 1.64551C28.3134 0.747651 27.1135 0.24324 25.8623 0.24324H10.1375C8.88638 0.24324 7.68648 0.747651 6.80179 1.64551C5.9171 2.54337 5.42008 3.76112 5.42008 5.03088V13.0103L18.0259 20.9897L30.5798 13.0103V5.03088C30.5798 3.76112 30.0828 2.54337 29.1981 1.64551ZM18.0001 14.8378C18.3597 14.8378 18.7047 14.6886 18.96 14.4227V14.4235L22.4783 10.7505L22.5347 10.6897C23.1031 10.0664 23.4157 9.23365 23.4051 8.37077C23.3946 7.50789 23.0618 6.68386 22.4783 6.07608C21.8828 5.456 21.078 5.10809 20.2392 5.10809C19.4005 5.10809 18.5957 5.456 18.0001 6.07608C17.4045 5.456 16.5998 5.10809 15.761 5.10809C14.9223 5.10809 14.1175 5.456 13.5219 6.07608C12.9371 6.68517 12.604 7.51145 12.5948 8.37629C12.5855 9.24114 12.9008 10.0751 13.4725 10.6978L13.5219 10.7497L17.0402 14.4227C17.2955 14.6886 17.6405 14.8378 18.0001 14.8378Z" fill="#D68B63"/>
</svg>
