<svg width="38" height="28" viewBox="0 0 38 28" fill="none" xmlns="http://www.w3.org/2000/svg">
<path fill-rule="evenodd" clip-rule="evenodd" d="M30.5575 6.61636L17.7025 6.61636L17.7025 0L30.5575 2.56338e-06C31.9228 2.56338e-06 33.34 0.223585 34.6038 0.958555C35.9441 1.73805 36.7676 2.89003 37.2449 4.10503C37.6881 5.23321 37.8459 6.44407 37.9184 7.52052C37.9904 8.59062 37.9904 9.7888 37.9904 10.9723V11.0456C37.9904 11.4566 37.9928 11.873 37.9953 12.2859C38.0008 13.2247 38.0062 14.1452 37.9825 14.9432C37.9484 16.0907 37.8518 17.3831 37.4706 18.5709C37.0542 19.8681 36.2598 21.1546 34.8231 22.0209C33.4967 22.8208 31.9853 23.0378 30.5575 23.0378H8.67172V16.4214H30.5575C30.8681 16.4214 31.0833 16.4018 31.225 16.3808C31.2922 16.0855 31.3534 15.5868 31.3784 14.7464C31.3985 14.0681 31.3941 13.3423 31.3889 12.478C31.3862 12.04 31.3834 11.5665 31.3834 11.0456C31.3834 9.77171 31.3818 8.78957 31.3263 7.96576C31.2803 7.28172 31.2051 6.88061 31.1394 6.65495C31.0197 6.63543 30.8325 6.61636 30.5575 6.61636Z" fill="#E37A27"/>
<path d="M0 19.7295L14.0399 11.4591V28L0 19.7295Z" fill="#E37A27"/>
</svg>
