<svg width="39" height="30" viewBox="0 0 39 30" fill="none" xmlns="http://www.w3.org/2000/svg">
<path d="M2.24967 17.6004C1.65588 17.6004 1.146 17.3839 0.720022 16.951C0.294044 16.5181 0.0810547 16.0088 0.0810547 15.4231V12.52C0.0810547 11.9343 0.294044 11.4314 0.720022 11.0112C1.146 10.591 1.65588 10.3809 2.24967 10.3809H30.674C30.2868 10.4828 29.9124 10.6165 29.551 10.782C29.1896 10.9475 28.8669 11.2085 28.5829 11.5651C27.7567 12.4818 26.9306 13.4686 26.1045 14.5254C25.2783 15.5822 24.4909 16.6072 23.7422 17.6004H2.24967ZM7.09033 7.93622C6.49655 7.93622 5.98666 7.71977 5.56068 7.28685C5.13471 6.85394 4.92172 6.34463 4.92172 5.75893V3.08505C4.92172 2.49935 5.13471 1.9964 5.56068 1.57622C5.98666 1.15604 6.49655 0.945953 7.09033 0.945953H36.5603C37.1541 0.945953 37.6704 1.15604 38.1093 1.57622C38.5482 1.9964 38.7676 2.49935 38.7676 3.08505V5.75893C38.7676 6.34463 38.5482 6.85394 38.1093 7.28685C37.6704 7.71977 37.1541 7.93622 36.5603 7.93622H7.09033ZM26.6466 24.7052V25.0108C26.6466 25.1636 26.6531 25.4119 26.666 25.7557C26.6789 26.0995 26.6853 26.6024 26.6853 27.2645H2.24967C1.65588 27.2645 1.146 27.0544 0.720022 26.6342C0.294044 26.2141 0.0810547 25.6984 0.0810547 25.0872V22.2224C0.0810547 21.6366 0.294044 21.1337 0.720022 20.7135C1.146 20.2933 1.65588 20.0833 2.24967 20.0833H21.8059C21.7285 20.1342 21.6575 20.2042 21.593 20.2933C21.5284 20.3825 21.4703 20.4525 21.4187 20.5034C21.1605 20.8599 21.0056 21.2801 20.954 21.764C20.9024 22.2478 20.954 22.7126 21.1089 23.1582C21.2638 23.6039 21.5155 23.9795 21.864 24.2851C22.2126 24.5906 22.645 24.7434 23.1613 24.7434H24.9814L26.6466 24.7052ZM38.1867 20.427L38.7676 21.382C38.9225 21.6366 39 21.8404 39 21.9932C39 22.146 38.9032 22.2542 38.7095 22.3178C38.5159 22.3815 38.1996 22.4133 37.7608 22.4133H35.6696C35.1016 22.4133 34.6756 22.5534 34.3917 22.8335C34.1077 23.1136 33.9657 23.4829 33.9657 23.9413V27.6465C33.9657 28.0794 33.7721 28.5123 33.3848 28.9452C32.9976 29.3781 32.5328 29.5946 31.9907 29.5946H30.4804C30.0932 29.5946 29.7511 29.4482 29.4542 29.1553C29.1573 28.8625 29.0088 28.3468 29.0088 27.6083C29.0088 27.2772 29.0153 27.0672 29.0282 26.978C29.0411 26.8889 29.0476 26.7743 29.0476 26.6342C29.0476 26.4942 29.054 26.2586 29.0669 25.9276C29.0798 25.5965 29.0863 25.0236 29.0863 24.2087C29.0863 23.572 28.9766 23.1136 28.7571 22.8335C28.5377 22.5534 28.144 22.4133 27.576 22.4133H25.4848C24.8911 22.4133 24.5167 22.2924 24.3618 22.0505C24.2069 21.8085 24.336 21.4329 24.7491 20.9236C25.1363 20.4143 25.5688 19.8222 26.0464 19.1474C26.524 18.4726 27.0145 17.7723 27.5179 17.0465C28.0214 16.3207 28.5119 15.6141 28.9895 14.9265C29.4671 14.2389 29.9253 13.6278 30.3642 13.093C30.5449 12.8893 30.7773 12.7301 31.0613 12.6155C31.3453 12.5009 31.6422 12.4372 31.952 12.4245C32.2618 12.4118 32.5458 12.4436 32.8039 12.52C33.0621 12.5964 33.2557 12.7237 33.3848 12.902C33.6946 13.4368 34.0496 14.0288 34.4498 14.6782C34.8499 15.3276 35.2694 15.9833 35.7083 16.6454C36.1472 17.3075 36.5796 17.9633 37.0056 18.6126C37.4316 19.262 37.8253 19.8668 38.1867 20.427Z" fill="#D68B63"/>
</svg>
