<svg width="34" height="34" viewBox="0 0 34 34" fill="none" xmlns="http://www.w3.org/2000/svg">
<path d="M10.5174 27.5424C4.862 27.5424 0.274936 25.0138 0.247135 21.8927C0.247135 23.0855 0.243164 24.1311 0.243164 24.1311C0.243164 27.2681 4.84215 29.8087 10.5134 29.8087C16.1887 29.8087 20.7837 27.2681 20.7837 24.1311V21.8649C20.7877 25.0018 16.1927 27.5424 10.5174 27.5424ZM10.5174 31.4905C4.862 31.4905 0.274936 28.9658 0.247135 25.8408C0.247135 27.0335 0.243164 28.0792 0.243164 28.0792C0.243164 31.2162 4.84215 33.7568 10.5134 33.7568C16.1887 33.7568 20.7837 31.2162 20.7837 28.0792V25.8169C20.7877 28.9499 16.1927 31.4905 10.5174 31.4905Z" fill="#D68B63"/>
<path d="M23.4165 24.9601C23.0848 24.9601 22.757 24.9479 22.4333 24.9316C22.4213 25.0331 22.4213 25.1346 22.4053 25.2361C22.4732 25.4392 22.5092 25.6584 22.5092 25.8858V27.2459C22.809 27.2622 23.1127 27.2703 23.4205 27.2703C29.1321 27.2703 33.7566 24.6758 33.7566 21.4724V19.1622C33.7566 22.3656 29.1282 24.9601 23.4165 24.9601Z" fill="#D68B63"/>
<path d="M23.4165 20.7897C23.0848 20.7897 22.757 20.7784 22.4333 20.7632C22.4213 20.858 22.4213 20.9527 22.4053 21.0474C22.4732 21.2369 22.5092 21.4415 22.5092 21.6537V22.9232C22.809 22.9384 23.1127 22.946 23.4205 22.946C29.1321 22.946 33.7566 20.5245 33.7566 17.5346V15.3784C33.7566 18.3683 29.1282 20.7897 23.4165 20.7897Z" fill="#D68B63"/>
<path d="M23.4905 13.0682C17.8351 13.0682 13.2481 10.4859 13.2203 7.29869C13.2203 8.51673 13.2163 9.58455 13.2163 9.58455C13.2163 10.9528 14.0622 12.2074 15.4642 13.1981C16.886 13.596 18.1489 14.1522 19.2013 14.8465C20.508 15.1835 21.9575 15.3784 23.4866 15.3784C29.1618 15.3784 33.7568 12.7839 33.7568 9.58049V7.27026C33.7648 10.4778 29.1658 13.0682 23.4905 13.0682Z" fill="#D68B63"/>
<path d="M23.3661 16.8519C22.6667 16.8519 21.9874 16.8113 21.3242 16.7382C21.8508 17.4731 22.2085 18.277 22.3572 19.1337C22.6909 19.154 23.0245 19.1622 23.3621 19.1622C29.106 19.1622 33.7566 16.5677 33.7566 13.3643V11.054C33.7647 14.2575 29.1101 16.8519 23.3661 16.8519Z" fill="#D68B63"/>
<path d="M23.4866 0.243256C17.8153 0.243256 13.2163 2.783 13.2163 5.91893C13.2163 9.05486 17.8153 11.5946 23.4866 11.5946C29.1618 11.5946 33.7568 9.05486 33.7568 5.91893C33.7608 2.783 29.1618 0.243256 23.4866 0.243256Z" fill="#D68B63"/>
<path d="M10.5134 14.2973C4.84215 14.2973 0.243164 16.837 0.243164 19.973C0.243164 23.1089 4.84215 25.6487 10.5134 25.6487C16.1887 25.6487 20.7837 23.1089 20.7837 19.973C20.7837 16.8331 16.1887 14.2973 10.5134 14.2973Z" fill="#D68B63"/>
</svg>
