<svg width="33" height="36" viewBox="0 0 33 36" fill="none" xmlns="http://www.w3.org/2000/svg">
<path d="M23.0075 31.5V34.3125C23.0075 35.2445 22.235 36 21.282 36H1.72556C0.772549 36 0 35.2445 0 34.3125V8.4375C0 7.50551 0.772549 6.75 1.72556 6.75H6.90226V27.5625C6.90226 29.7337 8.70842 31.5 10.9286 31.5H23.0075ZM23.0075 7.3125V0H10.9286C9.97556 0 9.20301 0.755508 9.20301 1.6875V27.5625C9.20301 28.4945 9.97556 29.25 10.9286 29.25H30.485C31.438 29.25 32.2105 28.4945 32.2105 27.5625V9H24.7331C23.784 9 23.0075 8.24062 23.0075 7.3125ZM31.7052 5.13077L26.964 0.494227C26.6404 0.17778 26.2015 2.33997e-06 25.7439 0L25.3083 0V6.75H32.2105V6.32398C32.2105 5.87644 32.0287 5.44724 31.7052 5.13077V5.13077Z" fill="#E37A27"/>
</svg>
