<svg width="29" height="29" viewBox="0 0 29 29" fill="none" xmlns="http://www.w3.org/2000/svg">
<path d="M5.93873 13.558C5.93876 13.3985 5.9703 13.2406 6.03153 13.0933C6.09277 12.946 6.18249 12.8122 6.29555 12.6997C6.40862 12.5872 6.54279 12.4981 6.69037 12.4376C6.83796 12.3771 6.99604 12.3463 7.15555 12.3471L9.17289 12.3537C9.49455 12.3537 9.80303 12.4814 10.0305 12.7089C10.2579 12.9363 10.3857 13.2448 10.3857 13.5665V21.1951C10.6129 21.1278 10.9037 21.0559 11.2237 20.9806C11.4454 20.9284 11.6429 20.8029 11.7843 20.6244C11.9258 20.4459 12.0027 20.2249 12.0028 19.9971V10.535C12.0028 10.2134 12.1306 9.90486 12.358 9.67737C12.5854 9.44989 12.8939 9.32206 13.2156 9.322H15.2391C15.5607 9.32206 15.8692 9.44989 16.0967 9.67737C16.3241 9.90486 16.4519 10.2134 16.4519 10.535V19.3174C16.4519 19.3174 16.9581 19.1125 17.4509 18.9044C17.634 18.8269 17.7903 18.6973 17.9002 18.5316C18.0101 18.3659 18.0688 18.1715 18.0689 17.9727V7.5029C18.0689 7.18128 18.1967 6.87284 18.4241 6.6454C18.6515 6.41796 18.9599 6.29015 19.2815 6.29009H21.3029C21.6243 6.2904 21.9325 6.41832 22.1597 6.64573C22.3869 6.87314 22.5145 7.18145 22.5145 7.5029V16.1244C24.267 14.8544 26.043 13.3268 27.4524 11.49C27.6569 11.2234 27.7922 10.9103 27.8462 10.5787C27.9003 10.2471 27.8715 9.90723 27.7622 9.58947C27.1098 7.71248 26.0728 5.99236 24.7174 4.53917C23.3621 3.08598 21.7183 1.93173 19.8912 1.15028C18.0642 0.368832 16.0941 -0.0226098 14.1071 0.00100855C12.1201 0.0246269 10.1599 0.462783 8.352 1.28744C6.54405 2.1121 4.92816 3.30509 3.60774 4.79009C2.28731 6.27508 1.29142 8.01937 0.683805 9.91134C0.0761869 11.8033 -0.129781 13.8013 0.0790811 15.7774C0.287943 17.7536 0.907035 19.6643 1.89674 21.3875C2.06917 21.6847 2.32285 21.9266 2.62798 22.0847C2.93312 22.2427 3.27702 22.3104 3.6193 22.2798C4.00167 22.2462 4.47776 22.1986 5.04378 22.1322C5.29013 22.1042 5.51756 21.9865 5.68277 21.8016C5.84798 21.6168 5.93942 21.3776 5.93968 21.1296V13.558" fill="white"/>
<path d="M5.896 25.7924C8.02664 27.3424 10.5446 28.2728 13.1712 28.4806C15.7978 28.6884 18.4306 28.1656 20.7785 26.9699C23.1264 25.7742 25.0978 23.9523 26.4745 21.7058C27.8512 19.4593 28.5796 16.8757 28.5791 14.2409C28.5791 13.9113 28.5638 13.5868 28.5419 13.2633C23.3236 21.0461 13.6885 24.6846 5.896 25.7924Z" fill="white"/>
</svg>
