<svg width="30" height="29" viewBox="0 0 30 29" fill="none" xmlns="http://www.w3.org/2000/svg">
<path fill-rule="evenodd" clip-rule="evenodd" d="M14.8788 0C6.85876 0 0.296875 6.56188 0.296875 14.582C0.296875 20.9616 4.48919 26.4298 10.322 28.4348C11.0511 28.6171 11.2333 28.0703 11.2333 27.7057C11.2333 27.3412 11.2333 26.4298 11.2333 25.1539C7.2233 26.0653 6.31193 23.3311 6.31193 23.3311C5.58283 21.6907 4.67146 21.1438 4.67146 21.1438C3.39554 20.2325 4.85374 20.2325 4.85374 20.2325C6.31193 20.4147 7.04103 21.6907 7.04103 21.6907C8.31695 24.0602 10.5042 23.3311 11.2333 22.9666C11.4156 22.0552 11.7802 21.3261 12.1447 20.9616C8.86377 20.597 5.58283 19.3211 5.58283 13.6706C5.58283 12.0301 6.12966 10.7542 7.04103 9.84282C6.85876 9.47827 6.31193 8.02008 7.2233 6.01506C7.2233 6.01506 8.49923 5.65051 11.2333 7.47325C12.327 7.1087 13.6029 6.92643 14.8788 6.92643C16.1548 6.92643 17.4307 7.1087 18.5243 7.47325C21.2584 5.65051 22.5344 6.01506 22.5344 6.01506C23.2635 8.02008 22.8989 9.47827 22.7166 9.84282C23.628 10.9365 24.1748 12.2124 24.1748 13.6706C24.1748 19.3211 20.7116 20.4147 17.4307 20.7793C17.9775 21.5084 18.5243 22.4198 18.5243 23.6957C18.5243 25.7007 18.5243 27.1589 18.5243 27.7057C18.5243 28.0703 18.7066 28.6171 19.618 28.4348C25.4508 26.4298 29.6431 20.9616 29.6431 14.582C29.4608 6.56188 22.8989 0 14.8788 0Z" fill="white"/>
</svg>
