<svg width="30" height="25" viewBox="0 0 30 25" fill="none" xmlns="http://www.w3.org/2000/svg">
<path d="M29.5531 0.983697C29.5065 0.764514 29.3445 0.587918 29.1302 0.522543C28.747 0.446131 28.3503 0.474467 27.9819 0.604566C27.9819 0.604566 2.4288 9.78755 0.968786 10.8046C0.655274 11.0252 0.549554 11.151 0.496695 11.3004C0.245156 12.0295 1.03076 12.3449 1.03076 12.3449L7.61634 14.4902C7.72753 14.5103 7.84191 14.5034 7.9499 14.4702C9.44819 13.5242 23.024 4.95181 23.8078 4.66382C23.9317 4.62736 24.0229 4.66382 23.9901 4.75313C23.6765 5.84678 11.949 16.2711 11.8852 16.3349C11.822 16.3876 11.7887 16.4679 11.7959 16.5499L11.1816 22.9806C11.1816 22.9806 10.9228 24.9856 12.9242 22.9806C14.3441 21.5607 15.7075 20.3832 16.3874 19.8127C18.6512 21.3766 21.0882 23.1045 22.14 24.005C22.4958 24.3515 22.9778 24.5378 23.4742 24.5208C24.0936 24.4443 24.6013 23.9931 24.7501 23.3871C24.7501 23.3871 29.4182 4.65835 29.5731 2.13749C29.5877 1.89142 29.6114 1.74196 29.6114 1.55968C29.6181 1.36594 29.5984 1.17218 29.5531 0.983697Z" fill="white"/>
</svg>
