<svg width="30" height="25" viewBox="0 0 30 25" fill="none" xmlns="http://www.w3.org/2000/svg">
<path d="M29.492 3.21452C28.3984 3.76135 27.3047 3.94362 26.0288 4.1259C27.3047 3.3968 28.2161 2.30315 28.5807 0.844957C27.487 1.57405 26.2111 1.9386 24.7529 2.30315C23.6593 1.20951 22.0188 0.480408 20.3783 0.480408C17.2797 0.480408 14.5455 3.21452 14.5455 6.49546C14.5455 7.04229 14.5455 7.40684 14.7278 7.77139C9.8064 7.58911 5.24954 5.21954 2.33314 1.57405C1.78632 2.48543 1.60405 3.3968 1.60405 4.67272C1.60405 6.67774 2.69769 8.50048 4.33816 9.59413C3.42679 9.59413 2.51542 9.22958 1.60405 8.86503C1.60405 11.7814 3.60907 14.151 6.34318 14.6978C5.79636 14.8801 5.24954 14.8801 4.70271 14.8801C4.33816 14.8801 3.97361 14.8801 3.60907 14.6978C4.33816 17.0674 6.52546 18.8901 9.25957 18.8901C7.25456 20.5306 4.70271 21.442 1.78632 21.442C1.2395 21.442 0.874948 21.442 0.328125 21.442C3.06224 23.0824 6.16091 24.1761 9.44185 24.1761C20.3783 24.1761 26.3934 15.0624 26.3934 7.22456C26.3934 7.04229 26.3934 6.67774 26.3934 6.49546C27.6693 5.58409 28.7629 4.49045 29.492 3.21452Z" fill="white"/>
</svg>
