<svg width="57" height="78" viewBox="0 0 57 78" fill="none" xmlns="http://www.w3.org/2000/svg">
<path d="M55.5996 53.9002H38.0996V76.8002H55.5996V53.9002Z" fill="#A7A7A7" stroke="#050505" stroke-miterlimit="10"/>
<path d="M42.4998 59.5002H40.7998V61.1002H42.4998V59.5002Z" fill="#0A0A04"/>
<path d="M42.3998 62.8002H40.7998V71.3002H42.3998V62.8002Z" fill="#0A0A04"/>
<path d="M35.2998 52.2002H19.2998V76.7002H35.2998V52.2002Z" fill="#F0A34E" stroke="#0A0A04" stroke-miterlimit="10"/>
<path d="M35.2998 52.2002H19.2998V59.8002H35.2998V52.2002Z" fill="#EBECCB" stroke="#070706" stroke-miterlimit="10"/>
<path d="M25.0994 62.8002H23.3994V64.5002H25.0994V62.8002Z" fill="#0A0A04"/>
<path d="M25.9998 68.7002H24.2998V70.4002H25.9998V68.7002Z" fill="#0A0A04"/>
<path d="M30.2 65.1002H28.5V66.8002H30.2V65.1002Z" fill="#0A0A04"/>
<path d="M17 52.2002H1V76.7002H17V52.2002Z" fill="#F0A34E" stroke="#0A0A04" stroke-miterlimit="10"/>
<path d="M17 52.2002H1V59.8002H17V52.2002Z" fill="#EBECCB" stroke="#070706" stroke-miterlimit="10"/>
<path d="M6.79961 62.8002H5.09961V64.5002H6.79961V62.8002Z" fill="#0A0A04"/>
<path d="M7.7 68.7002H6V70.4002H7.7V68.7002Z" fill="#0A0A04"/>
<path d="M11.7996 65.1002H10.0996V66.8002H11.7996V65.1002Z" fill="#0A0A04"/>
<path d="M29.1984 29.7998H27.3984V37.5998H29.1984V29.7998Z" fill="#7C7B77" stroke="#070707" stroke-miterlimit="10"/>
<path d="M28.2977 39.0006C31.1695 39.0006 33.4977 36.6725 33.4977 33.8006C33.4977 30.9287 31.1695 28.6006 28.2977 28.6006C25.4258 28.6006 23.0977 30.9287 23.0977 33.8006C23.0977 36.6725 25.4258 39.0006 28.2977 39.0006Z" fill="#514F50" stroke="#191906" stroke-miterlimit="10"/>
<path d="M50.7973 40.7L48.4973 38.6C47.9973 38.1 47.6973 37.3 47.6973 36.4V30.9C47.6973 29.7 48.1973 28.6 48.8973 28.1L50.7973 26.8V40.7Z" fill="#D3A78A" stroke="#0C0C04" stroke-miterlimit="10"/>
<path d="M53.3969 22.2H51.2969V45.3H53.3969V22.2Z" fill="#7A4F3F" stroke="#111102" stroke-miterlimit="10"/>
<path d="M37.8967 29.8V38.3L28.5967 39.3L25.4967 42.1V46.1H18.0967V37.9L23.5967 29.8H37.8967Z" fill="#EDEDED" stroke="#0F0F05" stroke-miterlimit="10"/>
<path d="M18.3965 48.5C18.3965 48.5 23.3965 45.2 25.7965 48.5V52.1H18.3965V48.5Z" fill="#E9A258"/>
<path d="M27.9969 45.3H16.2969V48.7H27.9969V45.3Z" fill="#585E60" stroke="#0A0A03" stroke-miterlimit="10"/>
<path d="M42.2975 29.5H41.2975C40.2975 29.5 39.3975 28.7 39.3975 27.6V17.5C39.3975 16.5 40.1975 15.6 41.2975 15.6H42.2975C43.2975 15.6 44.1975 16.4 44.1975 17.5V27.6C44.1975 28.7 43.2975 29.5 42.2975 29.5Z" fill="#4F4E4C"/>
<path d="M38.7973 1H44.7973L46.3973 4.59999L45.6973 18.3H37.1973V4L38.7973 1Z" fill="#8D6A58" stroke="#111103" stroke-miterlimit="10"/>
<path d="M41.7973 36.9C43.5094 36.9 44.8973 35.5121 44.8973 33.8C44.8973 32.0879 43.5094 30.7 41.7973 30.7C40.0852 30.7 38.6973 32.0879 38.6973 33.8C38.6973 35.5121 40.0852 36.9 41.7973 36.9Z" fill="#626262" stroke="#0C0C02" stroke-miterlimit="10"/>
<path d="M3.59688 8.7H18.1969L25.8969 1H32.7969C32.7969 1 35.9969 1.6 34.9969 5.2L28.2969 5.3V6.7L44.3969 6.39999C44.3969 6.39999 49.8969 8.29999 44.3969 10.9H31.7969C31.7969 10.9 30.8969 11.2 31.8969 11.9C32.8969 12.6 46.6969 11.9 46.6969 11.9C46.6969 11.9 50.5969 14 46.5969 16.2L31.9969 15.8C31.9969 15.8 31.1969 16.9 32.0969 16.8H47.3969C47.3969 16.8 49.1969 19.5 47.4969 20.8H31.8969C31.8969 20.8 30.7969 22.2 31.8969 22.4L46.7969 21.8C46.7969 21.8 48.8969 26.3 44.6969 26.9C40.4969 27.5 20.9969 26.9 20.9969 26.9L18.2969 23.7L3.29688 24L3.59688 8.7Z" fill="#FDCDBD" stroke="#141404" stroke-width="0.5" stroke-miterlimit="10"/>
</svg>
