<svg width="66" height="68" viewBox="0 0 66 68" fill="none" xmlns="http://www.w3.org/2000/svg">
<path d="M24.5 33.7C24.5 33.7 18 38.3 7 39.4C5.2 39.6 3.70001 40.8 3.20001 42.5C2.30001 45.6 2.10001 48.1 2.20001 50C2.40001 54.8 4.00002 57.9 2.80002 62.8C2.30002 64.8 1.6 66.3 1 67.3H63.8C63.8 67.3 66.5 45.2 53.9 40.6C53.9 40.6 40.2 37.1 33.6 33.7H24.5Z" fill="#FEAF57" stroke="#050301" stroke-miterlimit="10"/>
<path d="M9.5 67.3V60.1C9.5 60.1 14.2 60.8 13.9 54.7V49.3H44.1V56.2C44.1 56.2 47.7 57.4 47.8 56.2C47.8 56.2 49.4 61.6 52.2 60.6V67.3H9.5Z" fill="#966757" stroke="#070402" stroke-miterlimit="10"/>
<path d="M47.3004 61H17.9004V67.3H47.3004V61Z" fill="#8F6D59" stroke="#070402" stroke-miterlimit="10"/>
<path d="M22.8996 50.6H20.0996V53.4H22.8996V50.6Z" fill="#180C07"/>
<path d="M41.5002 50.6H38.7002V53.4H41.5002V50.6Z" fill="#180C07"/>
<path d="M47.6998 56.7L44.4998 56.6L44.2998 38.3L48.5998 39.6L47.6998 56.7Z" fill="#3F3E46" stroke="#070402" stroke-miterlimit="10"/>
<path d="M16.1002 56.4H12.7002V38.8L16.1002 37.7V56.4Z" fill="#3F3E46" stroke="#070402" stroke-miterlimit="10"/>
<path d="M31.2 38.3H28V49.4H31.2V38.3Z" fill="#1A180E" stroke="#050301" stroke-miterlimit="10"/>
<path d="M57.7004 36.4H54.4004V57.2H57.7004V36.4Z" fill="#593B2E" stroke="#050302" stroke-miterlimit="10"/>
<path d="M51.7002 55.9V67.2H58.0002C58.0002 67.2 60.7002 67.8 60.4002 64.8V57.9C60.4002 57.9 59.5002 55.3 58.0002 55.9H51.7002Z" fill="#FCC5BC" stroke="#070402" stroke-miterlimit="10"/>
<path d="M61.4 38.9H50.7C48.7 38.9 47 37.2 47 35.2C47 33.2 48.7 31.5 50.7 31.5H61.4C63.4 31.5 65.1 33.2 65.1 35.2C65.1 37.3 63.4 38.9 61.4 38.9Z" fill="#EB5E70" stroke="#0C0202" stroke-miterlimit="10"/>
<path d="M60.6996 20.4V28.6H57.3996V18.2L56.2996 16.3L55.1996 18.2V28.6H51.2996V20.6L49.0996 18.3V30.9H49.4996H51.2996H55.1996H57.3996H60.6996H62.2996H62.9996V18.2L60.6996 20.4Z" fill="#6D6D6D" stroke="#0F0505" stroke-miterlimit="10"/>
<path d="M25.5 29.1V34.7L30 38.7L34.5 34.7V29.1H25.5Z" fill="#E28F7E" stroke="#0A0402" stroke-miterlimit="10"/>
<path d="M20.2002 15.8V24.7C20.2002 24.7 22.4002 28.5 25.8002 29.2H33.6002C33.6002 29.2 38.2002 28.1 39.2002 24.2V14.4H20.3002V15.8H20.2002Z" fill="#FAC8BA" stroke="#0A0303" stroke-miterlimit="10"/>
<path d="M27 24.8C27 24.3 27.4 23.9 27.9 23.9H31.3C31.8 23.9 32.2 24.3 32.2 24.8C32.2 25.3 31.8 25.7 31.3 25.7H27.9C27.4 25.7 27 25.3 27 24.8Z" fill="#F9B3A7"/>
<path d="M29.2995 20.2L24.5995 23.6C24.1995 23.9 24.3995 24.6 24.8995 24.6H34.2995C34.7995 24.6 35.0995 23.9 34.5995 23.6L29.8995 20.2C29.7995 20 29.4995 20 29.2995 20.2Z" fill="#BFC1C4" stroke="#0C0403" stroke-miterlimit="10"/>
<path d="M29.6998 22.9C29.1998 22.9 28.7998 22.5 28.7998 22V18.6C28.7998 18.1 29.1998 17.7 29.6998 17.7C30.1998 17.7 30.5998 18.1 30.5998 18.6V22C30.4998 22.5 30.0998 22.9 29.6998 22.9Z" fill="#F8CDC2"/>
<path d="M42.9 1H16V7.5H42.9V1Z" fill="#A37864" stroke="#070502" stroke-miterlimit="10"/>
<path d="M44.9996 16.2H14.9996L11.5996 11.6H47.6996L44.9996 16.2Z" fill="#A37864" stroke="#070502" stroke-miterlimit="10"/>
<path d="M43.9998 11.8L15.2998 11.6L15.8998 7.5H43.0998L43.9998 11.8Z" fill="#565556" stroke="#0C0402" stroke-miterlimit="10"/>
<path d="M20.1998 16.8C20.1998 16.8 16.3998 14.5 18.7998 19.5C18.7998 19.5 20.0998 20.7 20.1998 19.5C20.1998 18.3 20.1998 16.8 20.1998 16.8Z" fill="#FAC8BA" stroke="#070101" stroke-miterlimit="10"/>
<path d="M39.1001 16.9C39.1001 16.9 43.1001 14.5 40.6001 19.7C40.6001 19.7 39.2001 21 39.1001 19.7C39.0001 18.4 39.1001 16.9 39.1001 16.9Z" fill="#FAC8BA" stroke="#070101" stroke-miterlimit="10"/>
</svg>
