<svg width="71" height="71" viewBox="0 0 71 71" fill="none" xmlns="http://www.w3.org/2000/svg">
<path d="M63.4064 0C64.4036 0 65.3911 0.196414 66.3124 0.578027C67.2337 0.95964 68.0708 1.51898 68.7759 2.22411C69.481 2.92924 70.0404 3.76635 70.422 4.68764C70.8036 5.60894 71 6.59638 71 7.59358V53.1551C71 55.169 70.2 57.1005 68.7759 58.5246C67.3518 59.9486 65.4204 60.7487 63.4064 60.7487H62.2674V61.2233C62.2676 63.709 61.3209 66.1014 59.62 67.9141C57.919 69.7267 55.5915 70.8233 53.1108 70.981L52.4906 71H9.77674C7.29102 71.0002 4.89856 70.0535 3.08594 68.3526C1.27332 66.6516 0.176654 64.3241 0.018984 61.8434L2.53658e-08 61.2233V18.5094C-0.00017892 16.0236 0.946469 13.6312 2.64742 11.8186C4.34836 10.0059 6.67588 8.90928 9.1566 8.75161L9.77674 8.73262H10.2513V7.59358C10.2513 5.57964 11.0514 3.64818 12.4754 2.22411C13.8995 0.800036 15.831 0 17.8449 0H63.4064ZM10.2513 14.0481H9.77674C8.67768 14.0478 7.61717 14.4532 6.79856 15.1865C5.97995 15.9199 5.46086 16.9296 5.34082 18.0221L5.31551 18.5094V61.2233C5.31551 63.5235 7.0557 65.4156 9.28948 65.6592L9.77674 65.6845H52.4906C53.5897 65.6848 54.6502 65.2795 55.4688 64.5461C56.2874 63.8127 56.8065 62.803 56.9266 61.7105L56.9519 61.2233V60.7487H17.8449C15.831 60.7487 13.8995 59.9486 12.4754 58.5246C11.0514 57.1005 10.2513 55.169 10.2513 53.1551V14.0481ZM63.4064 5.31551H17.8449C17.3047 5.31595 16.7822 5.50838 16.3707 5.85843C15.9592 6.20848 15.6855 6.69338 15.5985 7.22656L15.5668 7.59358V8.73262H15.8706V14.0481H15.5668V53.1551C15.5673 53.6953 15.7597 54.2178 16.1098 54.6293C16.4598 55.0408 16.9447 55.3145 17.4779 55.4015L17.8449 55.4332H63.4064C63.9467 55.4327 64.4692 55.2403 64.8806 54.8902C65.2921 54.5402 65.5658 54.0553 65.6529 53.5221L65.6845 53.1551V7.59358C65.6841 7.05335 65.4916 6.53085 65.1416 6.11936C64.7915 5.70788 64.3066 5.43419 63.7734 5.34715L63.4064 5.31551Z" fill="#D68B63"/>
<path d="M43.4753 43.875V46H39.3168V43.875C34.7426 43.875 31 40.05 31 35.375H35.1584C35.1584 37.7125 37.0297 39.625 39.3168 39.625V31.125C34.7426 31.125 31 27.3 31 22.625C31 17.95 34.7426 14.125 39.3168 14.125V12H43.4753V14.125C48.0495 14.125 51.7921 17.95 51.7921 22.625H47.6337C47.6337 20.2875 45.7624 18.375 43.4753 18.375V26.875H44.3069C45.7624 26.875 47.6337 27.725 49.0891 29C50.7525 30.4875 52 32.825 52 35.375C51.7921 40.05 48.0495 43.875 43.4753 43.875ZM43.4753 39.625C45.7624 39.625 47.6337 37.7125 47.6337 35.375C47.6337 33.0375 45.7624 31.125 43.4753 31.125V39.625ZM39.3168 18.375C37.0297 18.375 35.1584 20.2875 35.1584 22.625C35.1584 24.9625 37.0297 26.875 39.3168 26.875V18.375Z" fill="#D68B63"/>
</svg>
