<svg width="70" height="66" viewBox="0 0 70 66" fill="none" xmlns="http://www.w3.org/2000/svg">
<path d="M69.4934 51.4623C70.6333 52.2219 69.4934 53.3613 69.4934 53.3613L57.7141 65.3248C57.7141 65.3248 56.5742 66.844 54.4843 65.3248C53.5344 64.5652 49.3546 61.1471 49.3546 61.1471C49.3546 61.1471 48.0247 60.0077 45.9349 59.8178H19.7165C19.7165 59.8178 18.5766 60.1976 17.6267 59.438C16.6767 58.6784 3.94753 48.0441 0.337756 45.0058C-0.422195 44.0563 0.337756 42.5371 0.337756 42.5371C0.337756 42.5371 2.8076 38.1694 9.45718 42.5371C13.4469 45.3855 19.7165 49.7532 19.7165 49.7532H34.9156L39.2853 46.9047C39.2853 46.9047 40.4252 46.1451 39.2853 46.1451C35.8655 45.9552 31.1158 45.5754 29.2159 45.1957C26.9361 44.8159 25.6062 42.9169 25.6062 41.0179C25.6062 37.9795 29.2159 37.5997 29.2159 37.5997H52.0145C52.0145 37.5997 52.9644 37.5997 53.9144 38.3593C54.6743 39.3088 68.3534 50.7027 69.4934 51.4623ZM57.3341 2.84847C57.9041 1.89898 59.044 1.70908 59.994 2.08887C59.994 2.08887 60.184 2.08887 60.184 2.27877C60.7539 2.84847 60.9439 3.60806 60.5639 4.36765L40.6152 31.9028C40.0452 32.8523 38.9053 33.0422 37.9554 32.6624C37.9554 32.6624 37.7654 32.6624 37.7654 32.4725C37.1954 31.9028 37.0054 31.1432 37.3854 30.3836L57.3341 2.84847ZM53.7244 21.8382C55.8142 21.8382 57.3341 22.4079 58.4741 23.5473C59.424 24.4968 59.994 26.016 59.994 27.7251C59.994 29.4341 59.424 30.7634 58.4741 31.9028C57.3341 33.0422 55.8142 33.6119 53.7244 33.6119C51.6345 33.6119 50.1146 33.0422 48.9747 31.9028C48.0247 30.7634 47.4548 29.4341 47.4548 27.7251C47.4548 26.016 47.8347 24.6867 48.9747 23.5473C50.1146 22.4079 51.6345 21.8382 53.7244 21.8382ZM53.7244 25.0665C52.7744 25.0665 52.2045 25.4463 51.8245 26.016C51.4445 26.3958 51.4445 27.1554 51.4445 27.915C51.4445 28.6746 51.6345 29.4341 51.8245 29.8139C52.2045 30.3836 52.7744 30.7634 53.7244 30.7634C54.6743 30.7634 55.2443 30.3836 55.6242 29.8139C55.8142 29.4341 56.0042 28.6746 56.0042 27.915C56.0042 27.1554 55.8142 26.3958 55.6242 26.016C55.2443 25.2564 54.6743 25.0665 53.7244 25.0665ZM45.1749 0C47.2648 0 48.7847 0.569693 49.9246 1.70908C50.8745 2.65857 51.4445 4.17775 51.4445 5.88683C51.4445 7.59591 50.8745 8.92519 49.9246 10.0646C48.7847 11.204 47.2648 11.7737 45.1749 11.7737C43.085 11.7737 41.5651 11.204 40.4252 10.0646C39.4753 8.92519 38.9053 7.59591 38.9053 5.88683C38.9053 4.17775 39.2853 2.84847 40.4252 1.70908C41.5651 0.569693 43.085 0 45.1749 0ZM45.1749 3.03836C44.225 3.03836 43.655 3.41816 43.275 3.98785C42.8951 4.36765 42.8951 5.12724 42.8951 5.88683C42.8951 6.64642 43.085 7.40601 43.275 7.78581C43.655 8.3555 44.225 8.73529 45.1749 8.73529C46.1249 8.73529 46.6948 8.3555 47.0748 7.78581C47.2648 7.40601 47.4548 6.64642 47.4548 5.88683C47.4548 5.12724 47.2648 4.36765 47.0748 3.98785C46.6948 3.41816 46.1249 3.03836 45.1749 3.03836ZM23.7063 1.89898C27.506 1.89898 30.3559 3.22826 32.6357 6.26662C34.7256 8.92519 35.6755 12.7231 35.6755 17.2807C35.6755 21.8382 34.7256 25.4463 32.6357 28.2948C30.5458 31.1432 27.506 32.6624 23.7063 32.6624C19.9065 32.6624 16.8667 31.1432 14.7768 28.2948C12.687 25.6362 11.737 21.8382 11.737 17.2807C11.737 12.7231 12.687 9.11509 14.7768 6.26662C17.0567 3.41816 19.9065 1.89898 23.7063 1.89898ZM23.7063 6.07673C21.0464 6.07673 19.3366 7.40601 18.1966 10.0646C17.4367 11.7737 17.0567 14.2423 17.0567 17.2807C17.0567 20.3191 17.4367 22.7877 18.1966 24.4968C19.3366 27.1554 21.0464 28.4847 23.7063 28.4847C26.1761 28.4847 28.076 27.1554 29.2159 24.4968C29.9759 22.5978 30.3559 20.3191 30.3559 17.2807C30.3559 14.2423 29.9759 11.7737 29.2159 10.0646C28.076 7.21611 26.3661 6.07673 23.7063 6.07673Z" fill="#D68B63"/>
</svg>
