<svg width="62" height="76" viewBox="0 0 62 76" fill="none" xmlns="http://www.w3.org/2000/svg">
<path d="M60.3326 57.5881C59.9976 56.8089 59.6254 56.0594 59.2085 55.3395C58.2334 53.6549 57.0126 52.1336 55.5611 50.7755L55.2633 49.5881C56.2533 48.9944 57.0349 48.193 57.5783 47.1763C58.1292 46.167 58.4121 45.0835 58.4121 43.9406C58.4121 42.8646 58.2408 41.9518 57.8761 41.1948C57.5262 40.4453 57.0498 39.807 56.4692 39.2653C56.4469 39.243 56.4245 39.2208 56.4022 39.2059C55.829 38.6939 55.1814 38.2412 54.4519 37.8479C53.6926 37.4397 52.8887 37.0315 52.0475 36.6382L51.0203 36.1484L51.2213 35.6141H52.2783C52.3453 34.4861 52.3974 33.3581 52.4495 32.2078C52.4942 31.0575 52.5165 29.9221 52.5165 28.7718C52.5165 28.4601 52.5091 28.1558 52.5016 27.8442C52.4942 27.5399 52.4867 27.2282 52.4867 26.9165C52.6133 26.8349 52.7324 26.7532 52.8515 26.6642C53.7894 26.0037 54.5338 25.3358 55.0921 24.6679C55.7248 23.9184 56.1938 23.1391 56.5213 22.3377C56.8414 21.5288 57.0424 20.6902 57.1168 19.807C57.1913 18.9239 57.2285 17.9592 57.2285 16.898V16.6605C57.2285 15.3098 56.1342 14.2189 54.7794 14.2189H50.3727C50.1121 14.2189 49.8739 14.0482 49.792 13.8033L47.075 5.6846C46.7847 4.82375 46.3828 4.05195 45.8617 3.36178C45.3406 2.67161 44.7302 2.0705 44.0379 1.57328C43.3457 1.07607 42.5789 0.690167 41.7527 0.415584C40.9338 0.133581 40.0629 0 39.1548 0C38.9687 0 38.79 0.00742113 38.6039 0.0222635C38.0307 0.0593692 37.4799 0.170687 36.9514 0.326531C36.2591 0.549165 35.5817 0.823748 34.9192 1.1577C34.2567 1.48423 33.6091 1.84787 32.9615 2.25603C32.3213 2.64935 31.6811 3.03525 31.0409 3.41373L30.9963 3.39147L30.9516 3.41373C30.3114 3.04267 29.6713 2.65677 29.0311 2.25603C28.3909 1.86271 27.7359 1.49907 27.0734 1.1577C26.4109 0.823748 25.7335 0.549165 25.0412 0.326531C24.5127 0.155844 23.9544 0.0593692 23.3738 0.0148423C23.1951 0 23.0164 0 22.8378 0C21.9296 0 21.0587 0.133581 20.2399 0.408163C19.4211 0.682746 18.6469 1.06865 17.9546 1.56586C17.2623 2.06308 16.6519 2.65677 16.1309 3.35436C15.6098 4.04453 15.2078 4.83117 14.9175 5.67718L12.2079 13.8182C12.1261 14.0705 11.8879 14.2338 11.6273 14.2338H7.22056C5.87321 14.2338 4.77152 15.3247 4.77152 16.6679V16.9054C4.77152 17.9592 4.80874 18.9314 4.88318 19.8145C4.95762 20.6976 5.1586 21.5362 5.47869 22.3451C5.79878 23.154 6.27518 23.9258 6.90047 24.6753C7.4662 25.3432 8.21059 26.0111 9.14852 26.679C9.26018 26.7607 9.37928 26.8423 9.49838 26.9239C9.49838 27.2356 9.49094 27.5399 9.48349 27.8516C9.4686 28.1633 9.4686 28.4675 9.4686 28.7792C9.4686 29.9295 9.49094 31.0724 9.5356 32.2152C9.58026 33.3655 9.63237 34.4935 9.70681 35.6215H10.7638L10.9648 36.1558L9.93757 36.6531C9.09641 37.0464 8.29992 37.4545 7.5332 37.8627C6.8037 38.256 6.15608 38.7013 5.59035 39.2134C5.56057 39.2356 5.53824 39.2579 5.51591 39.2801C4.92784 39.8219 4.46632 40.4675 4.10902 41.2096C3.75915 41.9592 3.57306 42.872 3.57306 43.9555C3.57306 45.1058 3.84848 46.1818 4.40677 47.1911C4.95762 48.2004 5.73178 49.0093 6.72182 49.603L6.42406 50.7904C4.97251 52.1484 3.75915 53.6623 2.78401 55.3395C2.35971 56.0594 1.98751 56.8163 1.65254 57.5955C0.550847 60.193 7.4446e-08 62.9017 0 65.7291V73.4249C5.40425 74.5455 15.4535 76 31.16 76C46.7624 76 56.6553 74.5677 62 73.4471V65.7217C61.9926 62.9017 61.4343 60.1855 60.3326 57.5881ZM48.9509 40.4304L49.9781 40.9276L49.993 40.9351L50.0079 40.9425C50.7746 41.3061 51.5116 41.6698 52.1815 42.0334C52.5835 42.2486 52.9185 42.4787 53.2013 42.7384L53.2088 42.7458C53.2162 42.7532 53.2311 42.7681 53.246 42.7755C53.38 42.9017 53.4768 43.0352 53.5587 43.2059L53.5661 43.2208L53.5735 43.2282C53.581 43.2505 53.648 43.4508 53.648 43.9406C53.648 44.2894 53.5661 44.5937 53.3874 44.9202C53.246 45.18 53.0674 45.3581 52.8068 45.5139L50.462 46.9165L48.7201 45.6772L46.1743 50.4712L44.0603 54.4564L42.2067 57.9443L43.3084 52.6382L44.1794 48.475L44.9535 44.7421C44.9833 44.7124 45.0131 44.6902 45.0503 44.6605C46.4944 43.4137 47.7748 41.974 48.8467 40.3785L48.9509 40.4304ZM19.4285 7.19109C19.5625 6.80519 19.7337 6.47124 19.9421 6.19666L19.9496 6.18924L19.957 6.18182C20.1729 5.89239 20.4185 5.6475 20.7163 5.4397C21.0215 5.22449 21.3639 5.04638 21.7435 4.92022C22.0785 4.80891 22.4358 4.75696 22.8378 4.75696C22.9122 4.75696 22.9792 4.75696 23.0537 4.76438H23.0686C23.2695 4.77922 23.4482 4.80891 23.6045 4.86085C24.066 5.00928 24.5127 5.18738 24.937 5.4026C25.4878 5.6846 26.0238 5.98145 26.5374 6.29314C27.2818 6.75325 27.9517 7.15399 28.5696 7.51763L30.8102 8.82375L31.0261 8.71243L31.227 8.81633L33.4528 7.51763C34.0706 7.15399 34.7405 6.76067 35.4849 6.30056H35.4924L35.4998 6.29314C36.0358 5.95918 36.542 5.67718 37.0481 5.42486L37.063 5.41744L37.0779 5.41002C37.4948 5.20223 37.934 5.02412 38.3806 4.8757C38.5667 4.82375 38.7602 4.78664 38.9538 4.7718C39.0282 4.76438 39.0952 4.76438 39.1696 4.76438C39.5642 4.76438 39.9066 4.81633 40.2267 4.92764L40.249 4.93506L40.2713 4.94249C40.6435 5.06122 40.9711 5.23191 41.2837 5.45455C41.5666 5.65492 41.8271 5.91466 42.0579 6.21892C42.2737 6.50093 42.4375 6.82746 42.5641 7.20594L43.3308 9.50649H18.6543L19.4285 7.19109ZM17.0688 14.2412H44.9312L46.5242 18.9981H15.4758L17.0688 14.2412ZM16.6594 30.8571V25.1725C17.4261 25.4397 18.2152 25.6772 19.0116 25.8776C19.8081 26.0928 20.6121 26.2709 21.4309 26.4267V27.4583C21.4309 27.8516 21.4532 28.2597 21.4979 28.6679C21.5426 29.0761 21.6468 29.4471 21.8105 29.7811C21.9817 30.1076 22.22 30.3748 22.54 30.5677C22.8601 30.7681 23.2844 30.8646 23.8129 30.8646C24.4531 30.8646 25.0114 30.6345 25.4878 30.1744C25.9642 29.7069 26.195 29.1651 26.195 28.5269V27.102C26.9915 27.1911 27.788 27.2505 28.577 27.2876C29.3735 27.3173 30.1551 27.3321 30.9367 27.3321H31.0261C31.7928 27.3321 32.5818 27.3173 33.3783 27.2876C34.1748 27.2579 34.9713 27.1985 35.7604 27.102V28.5269C35.7604 29.1651 35.9986 29.7217 36.4675 30.1744C36.9365 30.6345 37.5022 30.8646 38.1424 30.8646C38.6784 30.8646 39.0952 30.7681 39.4153 30.5677C39.7354 30.3673 39.981 30.1076 40.1448 29.7811C40.316 29.4471 40.4202 29.0835 40.4574 28.6679C40.5021 28.2597 40.5244 27.8516 40.5244 27.4583V26.4341C41.3433 26.2857 42.1472 26.1002 42.9437 25.885C43.7402 25.6772 44.5218 25.4397 45.296 25.18V30.8646H47.5142C47.2239 32.9128 46.5912 34.8052 45.6086 36.5492C45.482 36.7718 45.3481 36.9944 45.2141 37.2096C44.2985 38.6716 43.1968 39.9629 41.909 41.0761C41.7527 41.2096 41.5964 41.3432 41.4326 41.4694L41.1199 41.7143C39.8396 42.6865 38.4253 43.4731 36.8844 44.0594C36.7057 44.1262 36.5271 44.1929 36.3484 44.2523C34.6363 44.8386 32.8424 45.128 30.9665 45.128H30.9442C29.0683 45.128 27.2818 44.8386 25.5697 44.2523C25.3836 44.1929 25.2049 44.1262 25.0263 44.0519C23.4854 43.4657 22.0785 42.6865 20.7982 41.7143C20.6865 41.6327 20.5823 41.5436 20.4706 41.462C20.3069 41.3358 20.1506 41.2022 20.0017 41.0686C18.7139 39.9555 17.6122 38.6642 16.6966 37.2022C16.5626 36.987 16.4286 36.7644 16.3021 36.5417C15.3195 34.7978 14.6868 32.9054 14.3964 30.8571H16.6594ZM8.41902 43.2208C8.51579 43.0353 8.62 42.8868 8.73166 42.7755L8.77632 42.7384C9.05919 42.4861 9.39417 42.256 9.78869 42.0408C10.4735 41.6698 11.203 41.3061 11.9623 40.9499L11.9772 40.9425L11.9921 40.9351L13.0193 40.4378L13.1161 40.3933C14.1955 41.9889 15.4684 43.4212 16.9125 44.6679C16.9497 44.6976 16.9795 44.7273 17.0167 44.757L17.7909 48.4824L18.6618 52.6531L19.7635 57.9592L17.91 54.4712L15.8033 50.4787L13.2575 45.6846L11.5082 46.9239L9.16341 45.5213C8.90287 45.3655 8.73166 45.1874 8.59023 44.9276L8.58278 44.9128L8.57534 44.898C8.40413 44.5937 8.32969 44.3043 8.32969 43.9481C8.32969 43.4805 8.39669 43.2727 8.41902 43.2208ZM12.1707 70.397C9.52071 70.1373 7.0419 69.8256 4.76408 69.462V65.7217C4.76408 64.423 4.91295 63.154 5.23304 61.9221C5.47125 60.9796 5.79133 60.0668 6.18586 59.1837C6.30496 58.9165 6.43895 58.6493 6.57294 58.3822C7.161 57.2542 7.87562 56.2152 8.73166 55.2579C9.58771 54.3006 10.5405 53.4471 11.5976 52.6976L13.7116 56.6827L21.3341 71.0352C18.1258 70.8942 15.0664 70.679 12.1707 70.397ZM38.656 51.6735L34.5842 71.2134C34.1897 68.6902 33.7282 66.1892 33.2294 63.718C32.7158 61.2393 31.0409 49.8553 31.0409 49.8553C31.0409 49.8553 31.0261 49.9592 30.9963 50.1521C30.9665 49.9592 30.9516 49.8553 30.9516 49.8553C30.9516 49.8553 29.2693 61.2393 28.7557 63.718C28.2495 66.1892 27.7954 68.6902 27.4009 71.2134V71.2356L27.3934 71.2134L23.3291 51.6735L22.4582 47.5102H28.5547L30.9367 49.8553L30.9814 49.8108L31.0261 49.8553L33.4081 47.5102H39.5046L38.656 51.6735ZM57.221 69.4842C54.9804 69.8404 52.5537 70.1521 49.9484 70.4044C47.0229 70.6939 43.9114 70.9017 40.651 71.0427L48.2735 56.6827L50.3876 52.6976C51.4446 53.4471 52.4049 54.3006 53.2535 55.2579C54.1095 56.2152 54.8241 57.2542 55.4122 58.3822C55.5462 58.6493 55.6802 58.9165 55.8067 59.1837C56.2087 60.0668 56.5213 60.9722 56.7595 61.9147C57.0722 63.1466 57.2285 64.4156 57.2285 65.7143V69.4842H57.221Z" fill="#D68B63"/>
</svg>
