<svg width="68" height="62" viewBox="0 0 68 62" fill="none" xmlns="http://www.w3.org/2000/svg">
<path d="M61.8513 7.00073H1V55.1942H61.8513V7.00073Z" fill="#EFEFEF" stroke="#0F0702" stroke-miterlimit="10"/>
<path d="M8.78221 55.1942H1V47.412" fill="#898989"/>
<path d="M8.78221 55.1942H1V47.412" stroke="#0C0101" stroke-miterlimit="10"/>
<path d="M1 47.412H8.78221V55.1942" fill="#B7B7B7"/>
<path d="M1 47.412H8.78221V55.1942" stroke="#0F0101" stroke-miterlimit="10"/>
<path d="M61.8513 7.00073H1V14.7829H61.8513V7.00073Z" fill="#BA9177" stroke="#0F0702" stroke-miterlimit="10"/>
<path d="M11.5949 13.2828C10.5636 13.2828 9.81348 12.4389 9.81348 11.5013V2.78147C9.81348 1.75009 10.6573 1 11.5949 1C12.6263 1 13.3764 1.84385 13.3764 2.78147V11.5013C13.4702 12.4389 12.6263 13.2828 11.5949 13.2828Z" fill="#ACB0B1" stroke="#0C0602" stroke-miterlimit="10"/>
<path d="M32.9729 13.2828C31.9415 13.2828 31.1914 12.4389 31.1914 11.5013V2.78147C31.1914 1.75009 32.0353 1 32.9729 1C34.0043 1 34.7543 1.84385 34.7543 2.78147V11.5013C34.8481 12.4389 34.0043 13.2828 32.9729 13.2828Z" fill="#ACB0B1" stroke="#0C0602" stroke-miterlimit="10"/>
<path d="M51.5373 13.2828C50.506 13.2828 49.7559 12.4389 49.7559 11.5013V2.78147C49.7559 1.75009 50.5997 1 51.5373 1C52.5687 1 53.3188 1.84385 53.3188 2.78147V11.5013C53.4126 12.4389 52.5687 13.2828 51.5373 13.2828Z" fill="#ACB0B1" stroke="#0C0602" stroke-miterlimit="10"/>
<path d="M14.8769 17.0332H7.09473V31.1912H14.8769V17.0332Z" fill="#FCCABE" stroke="#020100" stroke-miterlimit="10"/>
<path d="M30.4414 17.0332H22.6592V31.1912H30.4414V17.0332Z" fill="#FCCABE" stroke="#020100" stroke-miterlimit="10"/>
<path d="M22.6592 31.0975H14.877V45.2555H22.6592V31.0975Z" fill="#FCCABE" stroke="#020100" stroke-miterlimit="10"/>
<path d="M22.6592 17.0332H14.877V31.1912H22.6592V17.0332Z" fill="#F6A38A" stroke="#0C0602" stroke-miterlimit="10"/>
<path d="M14.8769 31.0975H7.09473V45.2555H14.8769V31.0975Z" fill="#F6A38A" stroke="#0C0602" stroke-miterlimit="10"/>
<path d="M30.4414 31.0975H22.6592V45.2555H30.4414V31.0975Z" fill="#F6A38A" stroke="#0C0602" stroke-miterlimit="10"/>
<path d="M49.475 17.0332H30.3477V45.2555H49.475V17.0332Z" fill="#FBA88F" stroke="#050201" stroke-miterlimit="10"/>
<path d="M22.0721 61.1189L66.9839 61.1189L66.9839 57.1809L22.0721 57.1809L22.0721 61.1189Z" fill="#916153" stroke="#0C0502" stroke-miterlimit="10"/>
<path d="M32.9731 33.4415H25.0972V53.8815H32.9731V33.4415Z" fill="#936857" stroke="#0C0703" stroke-miterlimit="10"/>
<path d="M30.4415 49.2872H32.223V39.4422H30.5353C29.879 39.4422 29.3164 40.0048 29.3164 40.6611V47.9745C29.2227 48.7246 29.7852 49.2872 30.4415 49.2872Z" fill="#FCFCFC" stroke="#0C0703" stroke-miterlimit="10"/>
<path d="M34.173 57.1383L60.2388 57.1383L60.2388 30.3225L34.173 30.3225L34.173 57.1383Z" fill="#FFAC5C" stroke="#0C0501" stroke-miterlimit="10"/>
<path d="M53.0378 51.3499C52.1002 51.3499 51.3501 50.5998 51.3501 49.6622V37.3794C51.3501 36.4418 52.1002 35.6917 53.0378 35.6917C53.9754 35.6917 54.7255 36.4418 54.7255 37.3794V49.6622C54.7255 50.5998 53.9754 51.3499 53.0378 51.3499Z" fill="#FF853D"/>
<path d="M54.7255 39.4422V50.3185C54.7255 51.2562 53.9754 52.0063 53.0378 52.0063C52.1002 52.0063 51.3501 51.2562 51.3501 50.3185V39.4422" stroke="#070301" stroke-miterlimit="10"/>
<path d="M41.3176 51.6312C40.38 51.6312 39.6299 50.8811 39.6299 49.9435V37.7545C39.6299 36.8169 40.38 36.0668 41.3176 36.0668C42.2552 36.0668 43.0053 36.8169 43.0053 37.7545V50.0373C42.9115 50.8811 42.1614 51.6312 41.3176 51.6312Z" fill="#FF853D" stroke="#070301" stroke-miterlimit="10"/>
<path d="M39.0673 18.0646C38.5047 18.6272 37.8484 19.0022 37.0046 19.096C33.7229 19.5648 25.8469 21.5338 34.7543 30.6287C34.7543 30.6287 34.6605 32.0351 36.3482 31.5663C37.4734 31.285 38.786 31.3788 39.7236 32.1288C41.2238 33.3477 43.6616 34.7542 46.7558 34.0978C49.006 33.629 51.1626 35.0355 51.1626 37.0982V37.3795C51.1626 37.3795 54.8193 40.3799 55.1943 35.8793V32.8789C55.1943 31.5663 56.1319 30.5349 57.3508 30.0661C59.1323 29.4098 61.2888 27.8158 61.1013 23.5028C60.82 18.5334 57.1633 18.3459 55.1006 18.7209C54.1629 18.9085 53.1316 18.7209 52.3815 18.1584C49.8499 16.1894 43.8492 12.814 39.0673 18.0646Z" fill="#FEE6D0" stroke="#070301" stroke-miterlimit="10"/>
<path d="M39.0669 20.5024C39.0669 20.5024 42.0673 21.2525 41.786 22.9402" stroke="#0C0601" stroke-miterlimit="10"/>
<path d="M45.2554 18.7209C45.2554 18.7209 52.475 20.9712 51.8187 26.2219" stroke="#0C0601" stroke-miterlimit="10"/>
<path d="M56.3193 20.6899C56.3193 20.6899 59.1322 22.0026 58.9447 25.1905" stroke="#0C0601" stroke-miterlimit="10"/>
<path d="M52.1934 28.7534H51.7246C51.6309 28.7534 51.6309 28.6597 51.6309 28.6597V27.7221C51.6309 27.6283 51.7246 27.6283 51.7246 27.6283H52.1934C52.2872 27.6283 52.2872 27.7221 52.2872 27.7221V28.6597C52.2872 28.7534 52.1934 28.7534 52.1934 28.7534Z" fill="#0C0601"/>
</svg>
