<svg width="83" height="70" viewBox="0 0 83 70" fill="none" xmlns="http://www.w3.org/2000/svg">
<path d="M29.0037 28H28.9963C28.201 28.001 27.4386 28.3177 26.8767 28.8807C26.3149 29.4436 25.9995 30.2065 26 31.0019C26.0005 31.7972 26.3168 32.5598 26.8793 33.122C27.4419 33.6842 28.2047 34 29 34C29.7953 34 30.5581 33.6842 31.1207 33.122C31.6832 32.5598 31.9995 31.7972 32 31.0019C32.0005 30.2065 31.6852 29.4436 31.1233 28.8807C30.5614 28.3177 29.799 28.001 29.0037 28Z" fill="#D68B63"/>
<path d="M80.1004 38.5277H75.2421C75.2425 38.4722 75.2375 38.4168 75.2274 38.3622L70.0741 8.39222C69.9804 7.8595 69.7391 7.36334 69.3776 6.95951C69.016 6.55567 68.5484 6.26016 68.0273 6.10619L47.4396 0.114014C46.8779 -0.0481602 46.28 -0.0370982 45.7247 0.145741C45.1695 0.328579 44.683 0.674604 44.3294 1.13816L35.9077 12.1661L33.0916 9.70262C32.564 9.24398 31.887 8.99122 31.1864 8.99121H20.8925C20.3056 8.9947 19.7334 9.17438 19.2508 9.50671C18.7682 9.83905 18.3977 10.3086 18.1876 10.8539L7.87632 37.8218V37.8309C7.79808 38.0566 7.74536 38.2903 7.71916 38.5277H2.85348C2.09205 38.5412 1.36639 38.8516 0.832705 39.3921C0.299025 39.9326 0 40.66 0 41.4177C0 42.1754 0.299025 42.9028 0.832705 43.4433C1.36639 43.9838 2.09205 44.2942 2.85348 44.3077H6.75961L12.8256 57.7587C12.878 58.8661 14.1307 59.7229 15.7208 59.7229H15.7511C15.5231 60.4514 15.4045 61.2094 15.3991 61.9724C15.3991 66.399 19.0093 70 23.4476 70C27.8859 70 31.497 66.399 31.497 61.9724C31.4916 61.2093 31.3726 60.4513 31.144 59.7229H51.8043C51.5796 60.452 51.4629 61.2098 51.4578 61.9724C51.4578 66.399 55.0689 70 59.5072 70C63.9455 70 67.5575 66.399 67.5575 61.9724C67.552 61.2094 67.4333 60.4514 67.2055 59.7229H67.2358C68.7983 59.7229 70.0767 58.8478 70.131 57.7587L76.197 44.3077H80.1035C80.4849 44.3087 80.8626 44.2343 81.2147 44.0887C81.5669 43.9432 81.8865 43.7295 82.1549 43.46C82.559 43.0554 82.8339 42.5409 82.9449 41.9812C83.056 41.4216 82.9983 40.8418 82.779 40.3147C82.5598 39.7876 82.1889 39.3367 81.7128 39.0188C81.2368 38.7008 80.6769 38.53 80.1035 38.5277H80.1004ZM61.7673 61.9715C61.7658 62.4146 61.6324 62.8473 61.384 63.2151C61.1355 63.5828 60.7831 63.8691 60.3712 64.0377C59.9593 64.2063 59.5065 64.2497 59.0699 64.1624C58.6332 64.0752 58.2323 63.8611 57.9179 63.5474C57.6034 63.2336 57.3894 62.8342 57.3029 62.3995C57.2165 61.9648 57.2614 61.5144 57.432 61.1051C57.6027 60.6958 57.8914 60.346 58.2617 60.0999C58.632 59.8537 59.0674 59.7222 59.5127 59.722C60.1109 59.7249 60.6836 59.9631 61.106 60.3845C61.5284 60.8059 61.7661 61.3764 61.7673 61.9715ZM25.7104 61.9715C25.7089 62.4146 25.5755 62.8473 25.327 63.2151C25.0786 63.5828 24.7262 63.8691 24.3143 64.0377C23.9024 64.2063 23.4496 64.2497 23.0129 64.1624C22.5763 64.0752 22.1754 63.8611 21.8609 63.5474C21.5465 63.2336 21.3325 62.8342 21.246 62.3995C21.1596 61.9648 21.2045 61.5144 21.3751 61.1051C21.5458 60.6958 21.8345 60.346 22.2048 60.0999C22.5751 59.8537 23.0104 59.7222 23.4558 59.722C24.0545 59.724 24.6281 59.9617 25.0511 60.3833C25.4741 60.8048 25.7121 61.3758 25.7131 61.9715H25.7104ZM13.8054 38.5277L22.8759 14.763H30.088L34.4124 18.5468C34.7133 18.8031 35.0625 18.9972 35.4397 19.1176C35.8169 19.238 36.2144 19.2824 36.609 19.2482C37.0052 19.2094 37.389 19.089 37.736 18.8947C38.083 18.7005 38.3856 18.4366 38.6246 18.1198L47.7153 6.21133L64.6679 11.1419L69.3958 38.5277L13.8054 38.5277ZM69.8553 44.3068L65.5061 53.9438H17.4671L13.1216 44.3068H69.8553Z" fill="#D68B63"/>
<path d="M52.4065 21.775C51.8916 21.2775 51.2074 21 50.4959 21C49.7845 21 49.1003 21.2775 48.5853 21.775L43.7967 26.456C43.545 26.6986 43.3446 26.9907 43.2076 27.3142C43.0706 27.6378 43 27.9863 43 28.3384C43 28.6905 43.0706 29.0389 43.2076 29.3625C43.3446 29.6861 43.545 29.9781 43.7967 30.2208C44.3118 30.7186 44.9961 30.9963 45.7078 30.9963C46.4195 30.9963 47.1038 30.7186 47.6189 30.2208L50.4986 27.4092L53.3828 30.2262C53.8977 30.723 54.5813 31 55.2921 31C56.0029 31 56.6866 30.723 57.2014 30.2262C57.4537 29.9835 57.6546 29.6913 57.7919 29.3674C57.9292 29.0434 58 28.6946 58 28.342C58 27.9895 57.9292 27.6406 57.7919 27.3167C57.6546 26.9927 57.4537 26.7005 57.2014 26.4578L52.4065 21.775Z" fill="#D68B63"/>
</svg>
