<svg width="71" height="62" viewBox="0 0 71 62" fill="none" xmlns="http://www.w3.org/2000/svg">
<path d="M8.40039 19.2V60.8H61.8004V19.2L35.1004 3.20001L8.40039 19.2Z" fill="#DEE7E3" stroke="#0C0C01" stroke-miterlimit="10"/>
<path d="M34.9 6.5L55.9 15.2L65.4 27.2L69.5 23.7L60.3 11.7L34.9 1L9.30002 11.7L1 22.8L3.10001 27.2L11.9 17L34.9 6.5Z" fill="#D2475B" stroke="#0C0C02" stroke-miterlimit="10"/>
<path d="M47.7 35.5H22.5V60.7H47.7V35.5Z" fill="#BD967F" stroke="#0C0C02" stroke-miterlimit="10"/>
<path d="M24.0558 35.9108L22.9951 36.9714L46.4708 60.4471L47.5315 59.3865L24.0558 35.9108Z" fill="#9C7C65" stroke="#0C0C04" stroke-miterlimit="10"/>
<path d="M47.4864 36.9932L46.4258 35.9326L22.9501 59.4083L24.0107 60.469L47.4864 36.9932Z" fill="#9C7C65" stroke="#0C0C04" stroke-miterlimit="10"/>
<path d="M24.7 35.5H22.5V60.8H24.7V35.5Z" fill="#BD967F" stroke="#0C0C02" stroke-miterlimit="10"/>
<path d="M47.7 35.5H45.5V60.8H47.7V35.5Z" fill="#BD967F" stroke="#0C0C02" stroke-miterlimit="10"/>
<path d="M40.8998 27.2H28.7998V32.7H40.8998V27.2Z" fill="#6C473B" stroke="#0A0A02" stroke-miterlimit="10"/>
<path d="M33.0746 28.4026V28.5768H34.7526V28.4026H33.0746ZM33.2613 29.841V30.005H34.5558V29.841H33.2613ZM33.2613 30.2952V30.4617H34.5558V30.2952H33.2613ZM33.1654 28.9149V30.5829H33.342V29.084H34.4776V30.5753H34.6593V28.9149H33.1654ZM32.5194 28.443C32.6532 28.5212 32.8374 28.6373 32.9282 28.708L33.0392 28.554C32.9459 28.4884 32.7617 28.3799 32.6279 28.3067L32.5194 28.443ZM32.4286 29.1193C32.5699 29.1975 32.7591 29.306 32.855 29.3741L32.9635 29.2177C32.8651 29.1521 32.6708 29.0486 32.5346 28.983L32.4286 29.1193ZM32.474 30.434L32.6431 30.545C32.7718 30.3103 32.9257 29.9899 33.0418 29.7224L32.8929 29.6139C32.7667 29.9015 32.5951 30.2371 32.474 30.434ZM33.5994 28.4935V29.0234H33.766V28.4935H33.5994ZM34.0107 28.4884V29.0259H34.1823V28.4884H34.0107ZM33.6221 29.0108V29.1723C33.6221 29.3111 33.5666 29.4751 33.3168 29.6038C33.3496 29.6265 33.4076 29.682 33.4304 29.7123C33.7054 29.5659 33.7735 29.3514 33.7735 29.1748V29.0108H33.6221ZM34.0057 29.0133V29.3969C34.0057 29.5584 34.0461 29.5962 34.205 29.5962C34.2378 29.5962 34.4195 29.5962 34.4523 29.5962C34.5533 29.5962 34.6012 29.571 34.6214 29.4927C34.5735 29.4801 34.5104 29.4574 34.4801 29.4347C34.475 29.4398 34.465 29.4423 34.4271 29.4423C34.3918 29.4423 34.2505 29.4423 34.2227 29.4423C34.1647 29.4423 34.1546 29.4372 34.1546 29.3943V29.0133H34.0057ZM36.0269 28.2613V28.554H36.2212V28.2613H36.0269ZM36.0269 29.0385V29.8839H36.2212V29.0385H36.0269ZM35.7317 28.5818C35.6737 28.8165 35.5197 28.9376 35.0151 28.9956C35.0504 29.031 35.0908 29.0966 35.1059 29.1395C35.6711 29.0587 35.8604 28.8997 35.931 28.5818H35.7317ZM36.2439 28.5868V28.8543C36.2439 29.0158 36.2995 29.0537 36.5114 29.0537C36.5569 29.0537 36.8117 29.0537 36.8571 29.0537C37.0111 29.0537 37.0615 29.0083 37.0792 28.819C37.0313 28.8114 36.9606 28.7887 36.9227 28.7635C36.9127 28.8947 36.9 28.9124 36.8344 28.9124C36.7789 28.9124 36.5745 28.9124 36.5341 28.9124C36.4458 28.9124 36.4307 28.9048 36.4307 28.8543V28.5868H36.2439ZM35.0479 28.4607V28.8367H35.2295V28.6121H37.0439V28.819H37.2331V28.4607H35.0479ZM35.0176 29.576V29.7274H37.2432V29.576H35.0176ZM35.3986 30.3406V30.492H36.9V30.3406H35.3986ZM35.5021 29.0209C35.4365 29.195 35.3179 29.3666 35.1766 29.4801C35.2245 29.5079 35.3052 29.5659 35.3406 29.5962C35.4819 29.47 35.6156 29.2682 35.6938 29.0638L35.5021 29.0209ZM35.3002 29.9318V30.5854H35.4844V30.0832H36.8243V30.5778H37.0136V29.9318H35.3002ZM35.4844 29.2177L35.3885 29.3615H37.0439V29.2177H35.4844Z" fill="black"/>
</svg>
