<svg width="73" height="58" viewBox="0 0 73 58" fill="none" xmlns="http://www.w3.org/2000/svg">
<path d="M41.8016 46.9363H29.7573C29.4772 43.3884 26.2094 40.494 22.288 40.3073C18.0865 40.1206 14.1651 43.0149 13.885 46.9363C10.1504 46.9363 6.50907 46.9363 2.77441 46.9363V33.6783H41.8016V46.9363Z" fill="#E6B8A0" stroke="#0C0501" stroke-miterlimit="10"/>
<path d="M47.4958 35.2655H41.707V50.3909H47.4958V35.2655Z" fill="#936857" stroke="#0C0703" stroke-miterlimit="10"/>
<path d="M45.7218 46.9363H47.0289V39.6537H45.7218C45.2549 39.6537 44.7881 40.0272 44.7881 40.5874V46.0027C44.7881 46.4695 45.1616 46.9363 45.7218 46.9363Z" fill="#FCFCFC" stroke="#0C0703" stroke-miterlimit="10"/>
<path d="M47.4618 52.7445L66.6953 52.7445L66.6953 32.9508L47.4618 32.9508L47.4618 52.7445Z" fill="#FFAC5C" stroke="#0C0501" stroke-miterlimit="10"/>
<path d="M52.724 48.4302C53.3775 48.4302 53.9377 47.87 53.9377 47.2165V38.1599C53.9377 37.5064 53.3775 36.9462 52.724 36.9462C52.0704 36.9462 51.5102 37.5064 51.5102 38.1599V47.2165C51.4168 47.87 51.977 48.4302 52.724 48.4302Z" fill="#FF853D"/>
<path d="M51.417 39.6538V47.6833C51.417 48.3369 51.9772 48.8971 52.6308 48.8971C53.2843 48.8971 53.8445 48.3369 53.8445 47.6833V39.6538" stroke="#070301" stroke-miterlimit="10"/>
<path d="M61.4071 48.617C62.0607 48.617 62.6209 48.0568 62.6209 47.4032V38.3467C62.6209 37.6931 62.0607 37.1329 61.4071 37.1329C60.7535 37.1329 60.1934 37.6931 60.1934 38.3467V47.4032C60.1934 48.1502 60.7535 48.617 61.4071 48.617Z" fill="#FF853D" stroke="#070301" stroke-miterlimit="10"/>
<path d="M72.4251 52.8185H39.9336V57.3H72.4251V52.8185Z" fill="#916153" stroke="#0C0502" stroke-miterlimit="10"/>
<path d="M41.8006 7.44229H1.09277V6.97546C1.09277 3.70763 3.70704 1 7.06824 1H35.9185C39.1863 1 41.8939 3.61426 41.8939 6.97546V7.44229H41.8006Z" fill="#DEAF90" stroke="#110601" stroke-miterlimit="10"/>
<path d="M41.8006 20.7003H1.09277V21.1672C1.09277 24.435 3.70704 27.1426 7.06824 27.1426H35.9185C39.1863 27.1426 41.8939 24.5284 41.8939 21.1672V20.7003H41.8006Z" fill="#DEAF90" stroke="#110601" stroke-miterlimit="10"/>
<path d="M41.7078 14.2581H1V20.7003H41.7078V14.2581Z" fill="#DEAF90" stroke="#110601" stroke-miterlimit="10"/>
<path d="M41.7078 7.62903H1V14.0713H41.7078V7.62903Z" fill="#DEAF90" stroke="#110601" stroke-miterlimit="10"/>
<path d="M11.6434 1.18677H8.74902V28.5432H11.6434V1.18677Z" fill="#ABABA9" stroke="#0C0501" stroke-miterlimit="10"/>
<path d="M6.32227 33.6783C6.32227 30.3171 8.09623 27.6095 10.2437 27.6095C12.3911 27.6095 14.165 30.3171 14.165 33.6783" fill="#ABABA9"/>
<path d="M6.32227 33.6783C6.32227 30.3171 8.09623 27.6095 10.2437 27.6095C12.3911 27.6095 14.165 30.3171 14.165 33.6783" stroke="#0C0501" stroke-miterlimit="10"/>
<path d="M35.6395 1.18677H32.7451V28.5432H35.6395V1.18677Z" fill="#ABABA9" stroke="#0C0501" stroke-miterlimit="10"/>
<path d="M30.2236 33.6783C30.2236 30.3171 31.9976 27.6095 34.145 27.6095C36.2924 27.6095 38.0664 30.3171 38.0664 33.6783" fill="#ABABA9"/>
<path d="M30.2236 33.6783C30.2236 30.3171 31.9976 27.6095 34.145 27.6095C36.2924 27.6095 38.0664 30.3171 38.0664 33.6783" stroke="#0C0501" stroke-miterlimit="10"/>
<path d="M51.3242 20.5136H54.4986C54.7787 20.5136 54.8721 20.7937 54.7787 20.9804C54.3119 21.7274 53.6583 23.2212 54.2185 24.2483C54.2185 24.2483 59.7272 22.1008 64.3955 26.9559C64.3955 26.9559 72.7051 24.8085 71.2112 31.3441C71.2112 31.3441 68.6903 35.7323 64.2087 32.4645C64.2087 32.4645 60.1006 37.693 55.8058 35.0788L55.1522 38.2532C55.1522 38.2532 53.0981 40.6808 51.6043 38.2532L51.3242 33.7717C51.3242 33.7717 45.5355 32.9314 45.7222 29.6635C45.7222 29.6635 46.189 26.5824 49.5502 26.3023C49.5502 26.3023 48.3364 22.8478 50.5772 22.1008L51.3242 20.5136Z" fill="#FEEAC9" stroke="#050501" stroke-miterlimit="10"/>
<path d="M41.707 12.2973V16.032H50.857C51.1371 16.032 51.3238 16.3121 51.3238 16.5922V20.5136H54.7783V13.6045C54.7783 12.9509 54.2182 12.3907 53.658 12.3907H41.707V12.2973Z" fill="#ABABA9" stroke="#0C0501" stroke-miterlimit="10"/>
<path d="M53.8448 9.21625H49.8301V9.86981H51.5107V12.2973H52.1642V9.86981H53.8448V9.21625Z" fill="#0C0501"/>
</svg>
