<svg width="52" height="65" viewBox="0 0 52 65" fill="none" xmlns="http://www.w3.org/2000/svg">
<path d="M17.4492 26.0138H8.68984V15.8705C8.68984 13.6624 9.13013 11.6039 10.0107 9.6948C10.8913 7.78574 12.1078 6.10669 13.6604 4.65764C15.213 3.2086 17.0437 2.07006 19.1524 1.24204C21.2611 0.414013 23.5668 -4.49682e-08 26.0695 0C28.2941 0 30.4376 0.414013 32.5 1.24204C34.5624 2.07006 36.393 3.2086 37.992 4.65764C39.5909 6.10669 40.8654 7.78574 41.8155 9.6948C42.7656 11.6039 43.2406 13.6624 43.2406 15.8705V26.0138H34.8289V17.8025C34.8289 14.9045 34.0178 12.6619 32.3957 11.0748C30.7736 9.48779 28.5722 8.69427 25.7914 8.69427C23.2888 8.69427 21.2727 9.48779 19.7433 11.0748C18.2139 12.6619 17.4492 14.9045 17.4492 17.8025V26.0138ZM47.4118 30.1539C48.6631 30.1539 49.7406 30.6024 50.6444 31.4995C51.5481 32.3965 52 33.466 52 34.7081V56.0987C52 57.3408 51.7799 58.5023 51.3396 59.5833C50.8993 60.6644 50.2968 61.6074 49.5321 62.4124C48.7674 63.2174 47.8636 63.85 46.8209 64.31C45.7781 64.77 44.631 65 43.3797 65H8.27273C7.02139 65 5.88592 64.77 4.86631 64.31C3.8467 63.85 2.97772 63.2405 2.25936 62.4814C1.541 61.7224 0.984848 60.8369 0.590909 59.8248C0.196969 58.8128 0 57.7318 0 56.5817V34.7081C0 33.466 0.440285 32.3965 1.32085 31.4995C2.20143 30.6024 3.26738 30.1539 4.51872 30.1539H8.68984H17.4492H34.8289H43.2406H47.4118V30.1539Z" fill="#D68B63"/>
</svg>
