<svg width="52" height="71" viewBox="0 0 52 71" fill="none" xmlns="http://www.w3.org/2000/svg">
<path d="M12.4004 20.7H10.4004V25.9H12.4004V20.7Z" fill="#936857" stroke="#0C0703" stroke-miterlimit="10"/>
<path d="M11.8 24.8H12.2V22.3H11.8C11.6 22.3 11.5 22.4 11.5 22.6V24.5C11.5 24.6 11.6 24.8 11.8 24.8Z" fill="#FCFCFC" stroke="#0C0703" stroke-miterlimit="10"/>
<path d="M12.5229 27.8454L17.9229 27.8454L17.9229 18.7454L12.5229 18.7454L12.5229 27.8454Z" fill="#FFAC5C" stroke="#0C0501" stroke-miterlimit="10"/>
<path d="M20.7998 20.9H18.7998V26.1H20.7998V20.9Z" fill="#936857" stroke="#0C0703" stroke-miterlimit="10"/>
<path d="M20.0998 24.9H20.4998V22.4H20.0998C19.8998 22.4 19.7998 22.5 19.7998 22.7V24.6C19.7998 24.8 19.9998 24.9 20.0998 24.9Z" fill="#FCFCFC" stroke="#0C0703" stroke-miterlimit="10"/>
<path d="M20.7797 27.9825L26.1797 27.9825L26.1797 18.8825L20.7797 18.8825L20.7797 27.9825Z" fill="#FFAC5C" stroke="#0C0501" stroke-miterlimit="10"/>
<path d="M50.6996 27.8H1.59961V33.5H50.6996V27.8Z" fill="#9C7666" stroke="#0C0C03" stroke-miterlimit="10"/>
<path d="M48.9998 33.5H3.2998V66.9H48.9998V33.5Z" fill="#9C7666" stroke="#0C0C03" stroke-miterlimit="10"/>
<path d="M43.4 61.5H34V64H43.4V61.5Z" fill="#0A0503"/>
<path d="M46.3 60.7H45V64.8H46.3V60.7Z" fill="#0A0503"/>
<path d="M17.6 67.8H11V70.3H17.6V67.8Z" fill="#BCBCB8" stroke="#0A0A03" stroke-miterlimit="10"/>
<path d="M15.4992 45.7H13.1992V67.8H15.4992V45.7Z" fill="#F4F4F2" stroke="#0F0406" stroke-miterlimit="10"/>
<path d="M21.4996 53.4H7.09961V49.4C7.09961 47.4 8.69961 45.7 10.7996 45.7H17.8996C19.8996 45.7 21.5996 47.3 21.5996 49.4V53.4H21.4996Z" fill="url(#paint0_linear_248_1925)" stroke="#0A0304" stroke-miterlimit="10"/>
<path d="M35.8002 67.8H29.2002V70.3H35.8002V67.8Z" fill="#BCBCB8" stroke="#0A0A03" stroke-miterlimit="10"/>
<path d="M33.5998 45.7H31.2998V67.8H33.5998V45.7Z" fill="#F4F4F2" stroke="#0F0406" stroke-miterlimit="10"/>
<path d="M39.6998 53.4H25.2998V49.4C25.2998 47.4 26.8998 45.7 28.9998 45.7H36.0998C38.0998 45.7 39.7998 47.3 39.7998 49.4V53.4H39.6998Z" fill="url(#paint1_linear_248_1925)" stroke="#0A0304" stroke-miterlimit="10"/>
<path d="M35.5996 17C34.0996 17 32.9996 17.5 32.5996 17.8V19V20.5H33.8996V18.3C34.3996 18.1 34.9996 18 35.6996 18C37.2996 18 38.3996 18.7 38.6996 19V17.8C38.0996 17.5 36.9996 17 35.5996 17Z" fill="#0C0805"/>
<path d="M36.9996 14.4H34.0996V14.7H35.3996V17.2H35.6996V14.7H36.9996V14.4Z" fill="#0C0805"/>
<path d="M49.0992 5.89999H36.1992V3.09999C36.1992 2.49999 36.6992 2 37.2992 2H47.9992C48.5992 2 49.0992 2.49999 49.0992 3.09999V5.89999Z" fill="#E76F74"/>
<path d="M47.799 5.79999H37.499V18.6H47.799V5.79999Z" fill="#E76F74" stroke="#0C0C03" stroke-miterlimit="10"/>
<path d="M39.199 13.3C39.399 13.4 39.999 13.6 40.599 13.4C40.999 13.3 41.299 13.1 41.399 13.1C41.799 12.8 41.999 12.5 42.099 12.3C42.399 12.1 43.099 11.5 44.199 11.4C44.199 11.4 45.299 11.3 46.399 12C46.599 12.1 46.699 12.3 47.099 12.5C47.399 12.7 47.599 12.7 47.699 12.9C47.799 13.1 47.699 13.4 47.699 13.6C47.499 13.5 47.199 13.4 46.799 13.3C46.799 13.3 46.599 13.3 46.299 13.2C44.699 13 43.399 13.8 43.099 14C42.799 14.3 42.299 14.9 41.399 15.2C39.499 15.9 37.699 14.9 37.499 14.8C37.499 14 37.499 13.3 37.499 12.5C38.099 12.9 38.599 13.1 39.199 13.3Z" fill="#F8E7C0" stroke="#0C0701" stroke-miterlimit="10"/>
<path d="M37.499 14.5C37.499 14.5 40.199 15.2 41.899 14.5C41.899 14.5 43.499 10.5 47.799 13.6V18.6H37.499V14.5Z" fill="#BC8B4F"/>
<path d="M47.799 18.6H37.499V24.5H47.799V18.6Z" fill="#F67C7D" stroke="#0C0701" stroke-miterlimit="10"/>
<path d="M48.5996 24.2H36.5996V27.8H48.5996V24.2Z" fill="#AB373B" stroke="#020101" stroke-miterlimit="10"/>
<path d="M28.2 13H2.7C1.8 13 1 12.3 1 11.3V2.7C1 1.8 1.7 1 2.7 1H28.2C29.1 1 29.9 1.7 29.9 2.7V11.3C29.9 12.2 29.1 13 28.2 13Z" fill="#4F3D33" stroke="#070705" stroke-miterlimit="10"/>
<path d="M25.5998 11.2H5.2998V4.59999C5.2998 3.59999 6.09981 2.79999 7.09981 2.79999H24.1998C24.9998 2.79999 25.5998 3.4 25.5998 4.2V11.2Z" fill="#FECB98" stroke="#0A0A03" stroke-miterlimit="10"/>
<path d="M5.2998 10.6L10.3998 7.29999L13.5998 9.39999L16.5998 7.29999L19.5998 9.39999H25.5998V11.2H5.2998V10.6Z" fill="#BC8B4F" stroke="#020101" stroke-miterlimit="10"/>
<defs>
<linearGradient id="paint0_linear_248_1925" x1="14.3066" y1="45.7072" x2="14.3066" y2="53.3991" gradientUnits="userSpaceOnUse">
<stop stop-color="#E96B74"/>
<stop offset="0.4351" stop-color="#E76973"/>
<stop offset="1" stop-color="#B83747"/>
</linearGradient>
<linearGradient id="paint1_linear_248_1925" x1="32.4581" y1="45.7072" x2="32.4581" y2="53.3991" gradientUnits="userSpaceOnUse">
<stop stop-color="#E96B74"/>
<stop offset="0.4351" stop-color="#E76973"/>
<stop offset="1" stop-color="#B83747"/>
</linearGradient>
</defs>
</svg>
